<?xml version="1.0" encoding="UTF-8" standalone="no"?>
<!-- Created with Inkscape (http://www.inkscape.org/) -->

<svg
   version="1.1"
   id="svg1"
   width="300.07849"
   height="48.902397"
   viewBox="0 0 300.07849 48.902397"
   sodipodi:docname="nisra-logo-white-bilingual-wide.svg"
   inkscape:version="1.3.2 (091e20e, 2023-11-25, custom)"
   xmlns:inkscape="http://www.inkscape.org/namespaces/inkscape"
   xmlns:sodipodi="http://sodipodi.sourceforge.net/DTD/sodipodi-0.dtd"
   xmlns="http://www.w3.org/2000/svg"
   xmlns:svg="http://www.w3.org/2000/svg">
  <defs
     id="defs1">
    <clipPath
       clipPathUnits="userSpaceOnUse"
       id="clipPath10">
      <path
         d="M 0,0 H 595.276 V 419.528 H 0 Z"
         transform="translate(-43.086601,-288.9522)"
         id="path10" />
    </clipPath>
    <clipPath
       clipPathUnits="userSpaceOnUse"
       id="clipPath12">
      <path
         d="M 0,0 H 595.276 V 419.528 H 0 Z"
         transform="translate(-60.322102,-299.8275)"
         id="path12" />
    </clipPath>
    <clipPath
       clipPathUnits="userSpaceOnUse"
       id="clipPath14">
      <path
         d="M 0,0 H 595.276 V 419.528 H 0 Z"
         transform="translate(-68.228002,-311.08051)"
         id="path14" />
    </clipPath>
    <clipPath
       clipPathUnits="userSpaceOnUse"
       id="clipPath18">
      <path
         d="M 0,0 H 595.276 V 419.528 H 0 Z"
         transform="translate(-43.086701,-160.09991)"
         id="path18" />
    </clipPath>
    <clipPath
       clipPathUnits="userSpaceOnUse"
       id="clipPath20">
      <path
         d="M 0,0 H 595.276 V 419.528 H 0 Z"
         transform="translate(-60.036101,-170.7947)"
         id="path20" />
    </clipPath>
    <clipPath
       clipPathUnits="userSpaceOnUse"
       id="clipPath22">
      <path
         d="M 0,0 H 595.276 V 419.528 H 0 Z"
         transform="translate(-67.810802,-181.8609)"
         id="path22" />
    </clipPath>
  </defs>
  <sodipodi:namedview
     id="namedview1"
     pagecolor="#ffffff"
     bordercolor="#666666"
     borderopacity="1.0"
     inkscape:showpageshadow="2"
     inkscape:pageopacity="0.0"
     inkscape:pagecheckerboard="true"
     inkscape:deskcolor="#d1d1d1"
     inkscape:zoom="2.0969995"
     inkscape:cx="386.02775"
     inkscape:cy="2.6227951"
     inkscape:window-width="3440"
     inkscape:window-height="1369"
     inkscape:window-x="1912"
     inkscape:window-y="-8"
     inkscape:window-maximized="1"
     inkscape:current-layer="g1">
    <inkscape:page
       x="0"
       y="0"
       inkscape:label="5"
       id="page1"
       width="300.07849"
       height="48.902397"
       margin="0"
       bleed="0" />
  </sodipodi:namedview>
  <g
     id="g1"
     inkscape:groupmode="layer"
     inkscape:label="5"
     transform="translate(-57.448933,-310.35641)">
    <g
       id="g15"
       style="fill:#00205c;fill-opacity:1">
      <path
         id="path16"
         d="m 19.735519,-22.805103 h -3.28125 v 16.1015624 c -0.796875,-1.5 -1.335938,-2.4960938 -1.40625,-2.671875 L 7.0441125,-22.805103 H 2.4972375 V -4.15625e-4 h 3.28125 V -17.098072 c 0.2109375,0.410156 1.03125,2.15625 1.265625,2.53125 L 15.9738,-4.15625e-4 h 3.761719 z m 8.0625,22.804687375 V -22.805103 H 23.696456 V -4.15625e-4 Z M 29.444503,-5.5082281 c 0.339844,1.0664062 0.75,2.4609375 2.285156,3.6914062 1.886719,1.51171877 4.277344,2.15625002 7.007813,2.15625002 5.203125,0 9.070312,-2.63671872 9.070312,-7.14843752 0,-4.8867186 -3.972656,-5.9765626 -5.917968,-6.4921876 l -3.867188,-0.960937 c -1.160156,-0.304688 -3.175781,-0.960938 -3.175781,-2.730469 0,-1.160156 0.785156,-2.835938 3.925781,-2.835938 3.246094,0 3.9375,1.804688 4.207031,2.589844 l 3.902344,-0.984375 c -0.210937,-0.75 -0.550781,-1.851562 -1.921875,-2.941406 -1.769531,-1.40625 -3.996094,-1.980469 -6.257812,-1.980469 -4.582032,0 -8.0625,2.496094 -8.0625,6.796875 0,2.90625 1.605468,5.238281 4.921875,6.09375 l 5.097656,1.2890626 c 1.019531,0.28125 2.800781,0.8320313 2.800781,2.9765625 0,1.03125 -0.75,3.0117188 -4.546875,3.0117188 -0.75,0 -1.710937,-0.070312 -2.835937,-0.4453125 -2.050782,-0.6445313 -2.460938,-2.1210938 -2.671875,-2.9414063 z M 68.078292,-4.15625e-4 64.082198,-10.055103 c 1.160157,-0.515625 4.101563,-1.78125 4.101563,-6.046875 0,-2.332031 -0.890625,-3.867188 -2.050781,-4.933594 -1.40625,-1.230469 -3.105469,-1.769531 -5.953125,-1.769531 H 50.300948 V -4.15625e-4 h 4.101563 V -9.3754156 h 5.777344 l 3.5625,9.374999975 z M 54.402511,-19.523853 h 5.472656 c 2.90625,0 4.03125,1.640625 4.03125,3.351562 0,2.835938 -2.355469,3.515625 -4.371094,3.515625 h -5.132812 z m 28.787109,-3.28125 H 78.173995 L 70.580245,-4.15625e-4 H 74.09587 L 75.87712,-5.4379156 h 8.753907 l 1.851562,5.437499975 h 4.371094 z m -6.28125,14.0859374 3.316407,-10.1953124 3.316406,10.1953124 z m 0,0"
         style="fill:#00205c;fill-opacity:1;fill-rule:nonzero;stroke:none"
         aria-label="NISRA"
         transform="matrix(1.3333333,0,0,1.3333333,112.9516,350.44587)" />
    </g>
    <g
       id="g16"
       style="fill:#ffffff">
      <path
         id="path17"
         d="m 0,0 c 1.841,-3.19 4.14,-5.489 7.33,-7.33 3.154,-1.821 6.597,-2.686 9.994,-2.686 4.739,0 9.389,1.684 13.041,4.809 0.209,0.179 0.415,0.363 0.618,0.552 1.424,1.326 2.679,2.882 3.703,4.655 L 24.353,5.966 23.566,6.42 17.756,9.775 17.343,10.013 16.969,9.797 4.337,2.504 3.62,2.09 Z"
         style="fill:#3d7dca;fill-opacity:1;fill-rule:nonzero;stroke:none"
         transform="matrix(1.3333333,0,0,-1.3333333,57.448933,345.90413)"
         clip-path="url(#clipPath18)" />
      <path
         id="path19"
         d="M 0,0 0.019,0.011 V 12.313 13.1 h 0.787 c 2.119,0 4.19,-0.313 6.181,-0.933 v 3.799 c -3.683,0 -6.823,-0.841 -10.013,-2.683 -7.442,-4.297 -11.082,-12.649 -9.741,-20.654 z"
         style="fill:#00205c;fill-opacity:1;fill-rule:nonzero;stroke:none"
         transform="matrix(1.3333333,0,0,-1.3333333,80.048133,331.6444)"
         clip-path="url(#clipPath20)" />
      <path
         id="path21"
         d="M 0,0 C -0.26,0.096 -0.522,0.187 -0.787,0.273 -2.734,0.904 -4.811,1.247 -6.968,1.247 V -11.077 L -0.787,-14.646 0,-15.1 l 10.356,-5.979 0.681,-0.394 -0.393,-0.682 c -1.001,-1.733 -2.243,-3.304 -3.677,-4.67 l 3.408,-1.967 c 1.841,3.189 2.683,6.33 2.683,10.013 C 13.058,-10.17 7.624,-2.83 0,0"
         style="fill:#cedc00;fill-opacity:1;fill-rule:nonzero;stroke:none"
         transform="matrix(1.3333333,0,0,-1.3333333,90.4144,316.88947)"
         clip-path="url(#clipPath22)" />
    </g>
    <g
       id="g22"
       style="fill:#00205c;fill-opacity:1">
      <path
         id="path23"
         d="m 3.1413859,-3.6340266 h -0.515625 v 2.5664063 C 2.4968547,-1.3137141 2.4148234,-1.4660578 2.4031047,-1.4894953 L 1.1257609,-3.6340266 H 0.39919844 v 3.63281254 H 0.92654219 V -2.7199641 c 0.0234375,0.058594 0.16406251,0.3398438 0.19921871,0.3984375 l 1.4179688,2.32031254 h 0.5976562 z m 3.1523438,2.2851563 c 0,-0.7382813 -0.4335938,-1.3945313 -1.2421875,-1.3945313 -0.8203125,0 -1.265625,0.65625 -1.265625,1.3828125 0,0.62109379 0.328125,1.41796879 1.2304687,1.41796879 0.6796875,0 1.2773438,-0.50390625 1.2773438,-1.40624999 z m -0.6445313,-0.011719 c 0,0.28125 -0.046875,0.91406254 -0.609375,0.91406254 -0.609375,0 -0.609375,-0.76171874 -0.609375,-0.90234374 0,-0.421875 0.1289063,-0.9023438 0.6210938,-0.9023438 0.4570312,0 0.5976562,0.4335938 0.5976562,0.890625 z M 6.900175,-0.00121406 H 7.50955 V -1.0910578 c 0,-0.4101563 0.09375,-0.6796875 0.1992187,-0.796875 0.1992188,-0.2226563 0.421875,-0.2226563 0.5625,-0.2226563 v -0.65625 C 7.69705,-2.7902766 7.50955,-2.2394953 7.4509562,-2.0402766 V -2.6848078 H 6.900175 Z m 3.383789,-0.46875 c -0.07031,0 -0.105469,0 -0.152344,0 -0.3164059,0 -0.4453122,-0.0703125 -0.4453122,-0.43359375 V -2.2160578 H 10.22537 v -0.46875 H 9.6863078 v -0.7382813 l -0.4921875,0.035156 -0.058594,0.703125 h -0.375 v 0.46875 H 9.10037 v 1.39453124 c 0,0.3046875 0.023437,0.48046875 0.1875,0.66796875 0.1171875,0.140625 0.3632813,0.2109375 0.5625,0.2109375 0.1171875,0 0.292969,-0.0234375 0.433594,-0.05859375 z m 0.556641,0.46875 H 11.44998 V -1.2902766 c 0,-0.3164062 0.02344,-0.4921875 0.117187,-0.6914062 0.07031,-0.1640625 0.28125,-0.2929688 0.492188,-0.2929688 0.398437,0 0.398437,0.4101563 0.398437,0.6445313 v 1.62890624 h 0.609375 V -1.7355891 c 0,-0.75 -0.257812,-1.0664062 -0.832031,-1.0664062 -0.550781,0 -0.726563,0.4335937 -0.785156,0.5859375 v -1.4179688 h -0.609375 z m 4.719726,-0.85546875 c -0.05859,0.15234375 -0.175781,0.43359375 -0.609375,0.43359375 -0.222656,0 -0.386719,-0.0703125 -0.503906,-0.24609375 -0.152344,-0.2109375 -0.140625,-0.42187499 -0.140625,-0.59765629 h 1.839844 c 0.02344,-0.7851562 -0.328125,-1.4765625 -1.207032,-1.4765625 -0.785156,0 -1.265625,0.6210938 -1.265625,1.40625 0,0.67968754 0.351563,1.39453129 1.242188,1.39453129 0.527344,0 0.996094,-0.24609375 1.183594,-0.83203125 z M 14.306425,-1.6652766 c 0.02344,-0.140625 0.03516,-0.2578125 0.128906,-0.3867187 0.117188,-0.1757813 0.28125,-0.2695313 0.480469,-0.2695313 0.210937,0 0.363281,0.09375 0.46875,0.234375 0.117187,0.1640625 0.128906,0.2929688 0.128906,0.421875 z m 2.455078,1.66406254 h 0.609375 V -1.0910578 c 0,-0.4101563 0.09375,-0.6796875 0.199219,-0.796875 0.199219,-0.2226563 0.421875,-0.2226563 0.5625,-0.2226563 v -0.65625 c -0.574219,-0.023437 -0.761719,0.5273438 -0.820313,0.7265625 v -0.6445312 h -0.550781 z m 1.942383,0 h 0.609375 V -1.2551203 c 0,-0.9257813 0.457031,-0.9609375 0.585937,-0.9609375 0.105469,0 0.421875,0.011719 0.421875,0.6328125 v 1.58203124 H 20.91873 V -1.5949641 c 0,-0.3515625 0.02344,-1.1484375 -0.855469,-1.1484375 -0.492188,0 -0.703125,0.4570313 -0.808594,0.6796875 v -0.6210937 h -0.550781 z m 5.329101,0 V -3.6340266 h -0.65625 v 3.63281254 z m 0.820313,0 h 0.609375 V -1.0910578 c 0,-0.4101563 0.09375,-0.6796875 0.199219,-0.796875 0.199218,-0.2226563 0.421875,-0.2226563 0.5625,-0.2226563 v -0.65625 c -0.574219,-0.023437 -0.761719,0.5273438 -0.820313,0.7265625 V -2.6848078 H 24.8533 Z m 3.568359,-0.85546875 c -0.05859,0.15234375 -0.175781,0.43359375 -0.609375,0.43359375 -0.222656,0 -0.386718,-0.0703125 -0.503906,-0.24609375 -0.152344,-0.2109375 -0.140625,-0.42187499 -0.140625,-0.59765629 h 1.839844 c 0.02344,-0.7851562 -0.328125,-1.4765625 -1.207031,-1.4765625 -0.785157,0 -1.265625,0.6210938 -1.265625,1.40625 0,0.67968754 0.351562,1.39453129 1.242187,1.39453129 0.527344,0 0.996094,-0.24609375 1.183594,-0.83203125 z M 27.167753,-1.6652766 c 0.02344,-0.140625 0.03516,-0.2578125 0.128906,-0.3867187 0.117188,-0.1757813 0.28125,-0.2695313 0.480469,-0.2695313 0.210938,0 0.363281,0.09375 0.46875,0.234375 0.117188,0.1640625 0.128906,0.2929688 0.128906,0.421875 z m 3.064453,1.66406254 V -3.6340266 h -0.609375 v 3.63281254 z m 2.994141,-1.75781254 c 0,-0.3398437 0,-0.5507812 -0.269531,-0.7851562 -0.1875,-0.1640625 -0.527344,-0.1992188 -0.820313,-0.1992188 -0.550781,0 -1.113281,0.1640625 -1.21875,0.7734375 l 0.515625,0.070312 c 0.03516,-0.1171875 0.09375,-0.4101562 0.632813,-0.4101562 0.269531,0 0.574218,0.070312 0.574218,0.4101562 v 0.1992188 c -0.585937,-0.011719 -1.804687,0.023437 -1.804687,0.92578124 0,0.4453125 0.316406,0.83203125 0.890625,0.83203125 0.644531,0 0.832031,-0.41015625 0.914062,-0.59765625 0.01172,0.2109375 0.02344,0.31640625 0.09375,0.5390625 h 0.574219 c -0.02344,-0.09375 -0.08203,-0.29296875 -0.08203,-0.5390625 z m -0.585938,0.6328125 c 0,0.21093754 -0.117187,0.72656254 -0.703125,0.72656254 -0.433593,0 -0.480468,-0.3046875 -0.480468,-0.41015625 0,-0.33984379 0.328125,-0.43359379 0.445312,-0.46874999 0.117188,-0.035156 0.351563,-0.09375 0.738281,-0.09375 z m 1.371094,1.12500004 h 0.609375 V -1.2551203 c 0,-0.9257813 0.457031,-0.9609375 0.585938,-0.9609375 0.105468,0 0.421875,0.011719 0.421875,0.6328125 v 1.58203124 h 0.597656 V -1.5949641 c 0,-0.3515625 0.02344,-1.1484375 -0.855469,-1.1484375 -0.492187,0 -0.703125,0.4570313 -0.808594,0.6796875 v -0.6210937 h -0.550781 z m 5.206055,0 V -3.6340266 h -0.609375 v 1.3125 c -0.164063,-0.3867187 -0.445313,-0.4804687 -0.714844,-0.4804687 -0.820312,0 -1.054687,0.9023437 -1.054687,1.4179687 0,0.2929688 0.08203,1.44140629 1.019531,1.44140629 0.539062,0 0.714844,-0.421875 0.796875,-0.59765625 v 0.5390625 z M 38.608183,-1.1262141 c 0,0.42187504 -0.292969,0.67968754 -0.5625,0.67968754 -0.550781,0 -0.5625,-0.71484374 -0.5625,-0.89062504 0,-0.234375 0.02344,-0.9375 0.574219,-0.9375 0.152343,0 0.316406,0.070312 0.410156,0.1992188 0.117187,0.1523437 0.140625,0.2578125 0.140625,0.4921875 z m 0,0"
         style="fill:#00205c;fill-opacity:1;fill-rule:nonzero;stroke:none"
         aria-label="Northern Ireland "
         transform="matrix(1.3333333,0,0,1.3333333,241.11227,324.5524)" />
    </g>
    <g
       id="g23"
       style="fill:#00205c;fill-opacity:1">
      <path
         id="path24"
         d="m 0.02419844,-0.87995781 c 0.05859375,0.17578125 0.1171875,0.3984375 0.36328125,0.5859375 0.3046875,0.24609375 0.67968751,0.3515625 1.11328121,0.3515625 0.8320313,0 1.453125,-0.421875 1.453125,-1.14843749 0,-0.7734375 -0.6328125,-0.9492188 -0.9492187,-1.03125 l -0.609375,-0.1523438 c -0.1875,-0.046875 -0.51562501,-0.1523437 -0.51562501,-0.4335937 0,-0.1875 0.12890621,-0.4570313 0.63281251,-0.4570313 0.515625,0 0.6210937,0.2929688 0.6679687,0.421875 l 0.6210938,-0.1640625 c -0.035156,-0.1171875 -0.082031,-0.2929687 -0.3046875,-0.46875 -0.28125,-0.2226562 -0.6328125,-0.3164062 -0.9960938,-0.3164062 -0.72656246,0 -1.28906246,0.3984375 -1.28906246,1.0898437 0,0.4570313 0.2578125,0.8320313 0.78515625,0.9726563 l 0.80859371,0.1992187 c 0.1640625,0.046875 0.4570313,0.1289063 0.4570313,0.48046879 0,0.1640625 -0.1289063,0.48046875 -0.7265625,0.48046875 -0.1289063,0 -0.28125,-0.0117188 -0.4570313,-0.0703125 C 0.75076094,-0.64558281 0.69216719,-0.87995781 0.65701094,-1.0088641 Z m 4.76074216,0.41015625 c -0.070312,0 -0.1054687,0 -0.1523437,0 -0.3164063,0 -0.4453125,-0.0703125 -0.4453125,-0.43359375 V -2.2158953 h 0.5390625 v -0.46875 H 4.1872844 v -0.7382813 l -0.4921875,0.035156 -0.058594,0.703125 h -0.375 v 0.46875 h 0.3398438 v 1.39453124 c 0,0.3046875 0.023437,0.48046875 0.1875,0.66796875 0.1171875,0.140625 0.3632812,0.2109375 0.5625,0.2109375 0.1171875,0 0.2929687,-0.0234375 0.4335937,-0.05859375 z M 7.556425,-1.7588641 c 0,-0.3398437 0,-0.5507812 -0.2695313,-0.7851562 -0.1875,-0.1640625 -0.5273437,-0.1992188 -0.8203125,-0.1992188 -0.5507812,0 -1.1132812,0.1640625 -1.21875,0.7734375 l 0.515625,0.070312 c 0.035156,-0.1171875 0.09375,-0.4101562 0.6328125,-0.4101562 0.2695313,0 0.5742188,0.070312 0.5742188,0.4101562 v 0.1992188 C 6.38455,-1.7119891 5.1658,-1.6768328 5.1658,-0.77448906 c 0,0.4453125 0.3164062,0.83203125 0.890625,0.83203125 0.6445312,0 0.8320312,-0.41015625 0.9140625,-0.59765625 0.011719,0.2109375 0.023437,0.31640625 0.09375,0.5390625 h 0.5742187 c -0.023437,-0.09375 -0.082031,-0.29296875 -0.082031,-0.5390625 z m -0.5859375,0.6328125 c 0,0.21093754 -0.1171875,0.72656254 -0.703125,0.72656254 -0.4335938,0 -0.4804688,-0.3046875 -0.4804688,-0.41015625 0,-0.33984379 0.328125,-0.43359379 0.4453125,-0.46874999 0.1171875,-0.035156 0.3515625,-0.09375 0.7382813,-0.09375 z m 2.6220703,0.65625004 c -0.070312,0 -0.1054687,0 -0.1523437,0 -0.3164063,0 -0.4453125,-0.0703125 -0.4453125,-0.43359375 V -2.2158953 h 0.5390625 v -0.46875 H 8.9949016 v -0.7382813 l -0.4921875,0.035156 -0.058594,0.703125 h -0.375 v 0.46875 h 0.3398438 v 1.39453124 c 0,0.3046875 0.023437,0.48046875 0.1875,0.66796875 0.1171875,0.140625 0.3632812,0.2109375 0.5625,0.2109375 0.1171875,0 0.2929687,-0.0234375 0.4335937,-0.05859375 z m 1.1660152,0.46875 V -2.6963641 h -0.609375 v 2.69531254 z m 0,-3.00000004 v -0.6328125 h -0.609375 v 0.6328125 z m 0.451172,2.37890629 c 0.105469,0.3984375 0.503907,0.6796875 1.136719,0.6796875 0.375,0 1.171875,-0.140625 1.171875,-0.87890625 0,-0.42187504 -0.234375,-0.69140624 -0.667969,-0.77343754 l -0.585937,-0.1171875 c -0.210938,-0.046875 -0.386719,-0.1289062 -0.386719,-0.2929687 0,-0.1757813 0.152344,-0.3046875 0.480469,-0.3046875 0.386719,0 0.457031,0.2109375 0.492187,0.2929687 l 0.539063,-0.1054687 c -0.175781,-0.5507813 -0.726563,-0.6210938 -1.042969,-0.6210938 -0.867187,0 -1.03125,0.5625 -1.03125,0.8554688 0,0.6210937 0.5625,0.75 0.820313,0.796875 l 0.492187,0.09375 c 0.105469,0.0234375 0.292969,0.09375 0.292969,0.26953125 0,0.31640625 -0.433594,0.328125 -0.574219,0.328125 -0.421875,0 -0.515625,-0.19921875 -0.5625,-0.328125 z m 4.113282,0.15234375 c -0.07031,0 -0.105469,0 -0.152344,0 -0.316406,0 -0.445313,-0.0703125 -0.445313,-0.43359375 V -2.2158953 h 0.539063 v -0.46875 H 14.72537 v -0.7382813 l -0.492187,0.035156 -0.05859,0.703125 h -0.375 v 0.46875 h 0.339844 v 1.39453124 c 0,0.3046875 0.02344,0.48046875 0.1875,0.66796875 0.117187,0.140625 0.363281,0.2109375 0.5625,0.2109375 0.117187,0 0.292969,-0.0234375 0.433594,-0.05859375 z m 1.166015,0.46875 V -2.6963641 h -0.609375 v 2.69531254 z m 0,-3.00000004 v -0.6328125 h -0.609375 v 0.6328125 z m 2.326172,2.01562504 c -0.07031,0.3046875 -0.234375,0.515625 -0.527344,0.515625 -0.550781,0 -0.550781,-0.73828124 -0.550781,-0.85546874 0,-0.1171875 0.02344,-0.3164063 0.08203,-0.5039063 0.04687,-0.140625 0.164063,-0.421875 0.503907,-0.421875 0.257812,0 0.445312,0.1523438 0.492187,0.5039063 l 0.527344,-0.070312 c -0.03516,-0.2109375 -0.175781,-0.9257813 -1.042969,-0.9257813 -0.796875,0 -1.207031,0.65625 -1.207031,1.3945313 0,0.60937499 0.292969,1.40624999 1.148437,1.40624999 0.867188,0 1.042969,-0.75 1.101563,-0.99609375 z m 0.720703,0.36328125 c 0.105469,0.3984375 0.503906,0.6796875 1.136719,0.6796875 0.375,0 1.171875,-0.140625 1.171875,-0.87890625 0,-0.42187504 -0.234375,-0.69140624 -0.667969,-0.77343754 l -0.585937,-0.1171875 c -0.210938,-0.046875 -0.386719,-0.1289062 -0.386719,-0.2929687 0,-0.1757813 0.152344,-0.3046875 0.480469,-0.3046875 0.386718,0 0.457031,0.2109375 0.492187,0.2929687 l 0.539063,-0.1054687 c -0.175782,-0.5507813 -0.726563,-0.6210938 -1.042969,-0.6210938 -0.867188,0 -1.03125,0.5625 -1.03125,0.8554688 0,0.6210937 0.5625,0.75 0.820312,0.796875 l 0.492188,0.09375 c 0.105469,0.0234375 0.292969,0.09375 0.292969,0.26953125 0,0.31640625 -0.433594,0.328125 -0.574219,0.328125 -0.421875,0 -0.515625,-0.19921875 -0.5625,-0.328125 z m 6.708985,-1.13671879 c 0,-0.3398437 0,-0.5507812 -0.269532,-0.7851562 -0.1875,-0.1640625 -0.527343,-0.1992188 -0.820312,-0.1992188 -0.550781,0 -1.113281,0.1640625 -1.21875,0.7734375 l 0.515625,0.070312 c 0.03516,-0.1171875 0.09375,-0.4101562 0.632812,-0.4101562 0.269532,0 0.574219,0.070312 0.574219,0.4101562 v 0.1992188 c -0.585937,-0.011719 -1.804687,0.023437 -1.804687,0.92578124 0,0.4453125 0.316406,0.83203125 0.890625,0.83203125 0.644531,0 0.832031,-0.41015625 0.914062,-0.59765625 0.01172,0.2109375 0.02344,0.31640625 0.09375,0.5390625 h 0.574219 c -0.02344,-0.09375 -0.08203,-0.29296875 -0.08203,-0.5390625 z m -0.585938,0.6328125 c 0,0.21093754 -0.117187,0.72656254 -0.703125,0.72656254 -0.433594,0 -0.480469,-0.3046875 -0.480469,-0.41015625 0,-0.33984379 0.328125,-0.43359379 0.445313,-0.46874999 0.117187,-0.035156 0.351562,-0.09375 0.738281,-0.09375 z m 1.368164,1.12500004 h 0.609375 V -1.2549578 c 0,-0.9257813 0.457031,-0.9609375 0.585938,-0.9609375 0.105468,0 0.421875,0.011719 0.421875,0.6328125 v 1.58203124 h 0.597656 V -1.5948016 c 0,-0.3515625 0.02344,-1.1484375 -0.855469,-1.1484375 -0.492187,0 -0.703125,0.4570313 -0.808594,0.6796875 v -0.6210937 h -0.550781 z m 5.206055,0 V -3.6338641 h -0.609375 v 1.3125 c -0.164063,-0.3867187 -0.445313,-0.4804687 -0.714844,-0.4804687 -0.820312,0 -1.054687,0.9023437 -1.054687,1.4179687 0,0.2929688 0.08203,1.44140629 1.019531,1.44140629 0.539062,0 0.714844,-0.421875 0.796875,-0.59765625 v 0.5390625 z M 31.623808,-1.1260516 c 0,0.42187504 -0.292969,0.67968754 -0.5625,0.67968754 -0.550781,0 -0.5625,-0.71484374 -0.5625,-0.89062504 0,-0.234375 0.02344,-0.9375 0.574219,-0.9375 0.152343,0 0.316406,0.070312 0.410156,0.1992188 0.117187,0.1523437 0.140625,0.2578125 0.140625,0.4921875 z m 5.90039,1.12500004 -0.644531,-1.60546874 c 0.1875,-0.082031 0.65625,-0.28125 0.65625,-0.9609375 0,-0.375 -0.140625,-0.6210938 -0.328125,-0.7851563 -0.222656,-0.1992187 -0.492187,-0.28125 -0.949219,-0.28125 h -1.570312 v 3.63281254 h 0.65625 V -1.4893328 h 0.914062 l 0.574219,1.48828124 z M 35.344511,-3.1182391 h 0.867187 c 0.46875,0 0.644532,0.2695313 0.644532,0.5390625 0,0.4570313 -0.375,0.5625 -0.703125,0.5625 h -0.808594 z m 4.579101,2.26171879 c -0.05859,0.15234375 -0.175781,0.43359375 -0.609375,0.43359375 -0.222656,0 -0.386718,-0.0703125 -0.503906,-0.24609375 -0.152344,-0.2109375 -0.140625,-0.42187499 -0.140625,-0.59765629 h 1.839844 c 0.02344,-0.7851562 -0.328125,-1.4765625 -1.207031,-1.4765625 -0.785157,0 -1.265625,0.6210938 -1.265625,1.40625 0,0.67968754 0.351562,1.39453129 1.242187,1.39453129 0.527344,0 0.996094,-0.24609375 1.183594,-0.83203125 z M 38.669706,-1.6651141 c 0.02344,-0.140625 0.03516,-0.2578125 0.128906,-0.3867187 0.117188,-0.1757813 0.28125,-0.2695313 0.480469,-0.2695313 0.210938,0 0.363281,0.09375 0.46875,0.234375 0.117188,0.1640625 0.128906,0.2929688 0.128906,0.421875 z m 2.126953,1.04296879 c 0.105469,0.3984375 0.503907,0.6796875 1.136719,0.6796875 0.375,0 1.171875,-0.140625 1.171875,-0.87890625 0,-0.42187504 -0.234375,-0.69140624 -0.667969,-0.77343754 l -0.585937,-0.1171875 c -0.210938,-0.046875 -0.386719,-0.1289062 -0.386719,-0.2929687 0,-0.1757813 0.152344,-0.3046875 0.480469,-0.3046875 0.386719,0 0.457031,0.2109375 0.492187,0.2929687 l 0.539063,-0.1054687 c -0.175781,-0.5507813 -0.726563,-0.6210938 -1.042969,-0.6210938 -0.867187,0 -1.03125,0.5625 -1.03125,0.8554688 0,0.6210937 0.5625,0.75 0.820313,0.796875 l 0.492187,0.09375 c 0.105469,0.0234375 0.292969,0.09375 0.292969,0.26953125 0,0.31640625 -0.433594,0.328125 -0.574219,0.328125 -0.421875,0 -0.515625,-0.19921875 -0.5625,-0.328125 z m 4.567383,-0.234375 c -0.05859,0.15234375 -0.175781,0.43359375 -0.609375,0.43359375 -0.222656,0 -0.386719,-0.0703125 -0.503906,-0.24609375 -0.152344,-0.2109375 -0.140625,-0.42187499 -0.140625,-0.59765629 h 1.839844 c 0.02344,-0.7851562 -0.328125,-1.4765625 -1.207032,-1.4765625 -0.785156,0 -1.265625,0.6210938 -1.265625,1.40625 0,0.67968754 0.351563,1.39453129 1.242188,1.39453129 0.527344,0 0.996094,-0.24609375 1.183594,-0.83203125 z M 44.110136,-1.6651141 c 0.02344,-0.140625 0.03516,-0.2578125 0.128906,-0.3867187 0.117188,-0.1757813 0.28125,-0.2695313 0.480469,-0.2695313 0.210937,0 0.363281,0.09375 0.46875,0.234375 0.117187,0.1640625 0.128906,0.2929688 0.128906,0.421875 z m 4.669922,-0.09375 c 0,-0.3398437 0,-0.5507812 -0.269531,-0.7851562 -0.1875,-0.1640625 -0.527344,-0.1992188 -0.820313,-0.1992188 -0.550781,0 -1.113281,0.1640625 -1.21875,0.7734375 l 0.515625,0.070312 c 0.03516,-0.1171875 0.09375,-0.4101562 0.632813,-0.4101562 0.269531,0 0.574218,0.070312 0.574218,0.4101562 v 0.1992188 c -0.585937,-0.011719 -1.804687,0.023437 -1.804687,0.92578124 0,0.4453125 0.316406,0.83203125 0.890625,0.83203125 0.644531,0 0.832031,-0.41015625 0.914062,-0.59765625 0.01172,0.2109375 0.02344,0.31640625 0.09375,0.5390625 h 0.574219 c -0.02344,-0.09375 -0.08203,-0.29296875 -0.08203,-0.5390625 z m -0.585938,0.6328125 c 0,0.21093754 -0.117187,0.72656254 -0.703125,0.72656254 -0.433593,0 -0.480468,-0.3046875 -0.480468,-0.41015625 0,-0.33984379 0.328125,-0.43359379 0.445312,-0.46874999 0.117188,-0.035156 0.351563,-0.09375 0.738281,-0.09375 z m 1.371094,1.12500004 h 0.609375 V -1.0908953 c 0,-0.4101563 0.09375,-0.6796875 0.199219,-0.796875 0.199219,-0.2226563 0.421875,-0.2226563 0.5625,-0.2226563 v -0.65625 c -0.574219,-0.023437 -0.761719,0.5273438 -0.820313,0.7265625 v -0.6445312 h -0.550781 z m 3.404297,-0.984375 c -0.07031,0.3046875 -0.234375,0.515625 -0.527344,0.515625 -0.550781,0 -0.550781,-0.73828124 -0.550781,-0.85546874 0,-0.1171875 0.02344,-0.3164063 0.08203,-0.5039063 0.04687,-0.140625 0.164063,-0.421875 0.503906,-0.421875 0.257813,0 0.445313,0.1523438 0.492188,0.5039063 l 0.527344,-0.070312 c -0.03516,-0.2109375 -0.175782,-0.9257813 -1.042969,-0.9257813 -0.796875,0 -1.207031,0.65625 -1.207031,1.3945313 0,0.60937499 0.292968,1.40624999 1.148437,1.40624999 0.867188,0 1.042969,-0.75 1.101563,-0.99609375 z m 1.048828,0.984375 h 0.609375 V -1.2901141 c 0,-0.3164062 0.02344,-0.4921875 0.117188,-0.6914062 0.07031,-0.1640625 0.28125,-0.2929688 0.492187,-0.2929688 0.398438,0 0.398438,0.4101563 0.398438,0.6445313 v 1.62890624 h 0.609375 V -1.7354266 c 0,-0.75 -0.257813,-1.0664062 -0.832032,-1.0664062 -0.550781,0 -0.726562,0.4335937 -0.785156,0.5859375 v -1.4179688 h -0.609375 z m 6.307617,-3.63281254 h -0.796875 l -1.21875,3.63281254 h 0.5625 l 0.28125,-0.8671875 h 1.40625 l 0.292969,0.8671875 h 0.691406 z m -1.007812,2.2382813 0.539062,-1.6171875 0.527344,1.6171875 z m 5.135742,-1.8046875 h -0.175781 c -0.175782,0 -0.328125,0.035156 -0.445313,0.1171875 -0.117187,0.070312 -0.210937,0.1992187 -0.246094,0.3984375 -0.152343,-0.035156 -0.28125,-0.058594 -0.527343,-0.058594 -0.9375,0 -1.101563,0.5390625 -1.101563,0.8085938 0,0.375 0.222656,0.5273437 0.375,0.6210937 -0.152344,0.070312 -0.433594,0.2226563 -0.433594,0.56250004 0,0.19921875 0.105469,0.3046875 0.257813,0.43359375 -0.199219,0.10546875 -0.398438,0.22265625 -0.398438,0.55078125 0,0.5625 0.597657,0.7265625 1.300782,0.7265625 1.148437,0 1.394531,-0.5390625 1.394531,-0.87890625 0,-0.3515625 -0.257813,-0.73828125 -0.914063,-0.73828125 h -0.691406 c -0.339844,0 -0.433594,-0.1640625 -0.433594,-0.26953125 0,-0.16406249 0.105469,-0.21093749 0.1875,-0.25781249 0.1875,0.046875 0.316407,0.070312 0.503907,0.070312 0.644531,0 1.089843,-0.3398438 1.089843,-0.8320313 0,-0.28125 -0.175781,-0.4570312 -0.316406,-0.5742187 0.09375,-0.1523438 0.1875,-0.2109375 0.398438,-0.2109375 h 0.175781 z m -0.878906,1.265625 c 0,0.140625 0,0.2578125 -0.152344,0.375 -0.08203,0.046875 -0.222656,0.082031 -0.339844,0.082031 -0.339844,0 -0.503906,-0.1992187 -0.503906,-0.4335937 0,-0.1875 0.117187,-0.4453125 0.515625,-0.4453125 0.386719,0 0.480469,0.2578125 0.480469,0.4218752 z m -1.289063,2.01562499 c 0,-0.08203125 0.03516,-0.140625 0.128906,-0.234375 0.175782,0.0703125 0.457032,0.0703125 0.65625,0.0703125 h 0.421875 c 0.1875,0 0.398438,0.08203125 0.398438,0.26953125 0,0.31640625 -0.433594,0.36328125 -0.691406,0.36328125 -0.152344,0 -0.328125,-0.0117188 -0.515625,-0.0585938 -0.222657,-0.0585938 -0.398438,-0.234375 -0.398438,-0.4101562 z m 4.306641,-0.9375 c -0.05859,0.15234375 -0.175781,0.43359375 -0.609375,0.43359375 -0.222656,0 -0.386719,-0.0703125 -0.503906,-0.24609375 -0.152344,-0.2109375 -0.140625,-0.42187499 -0.140625,-0.59765629 h 1.839843 c 0.02344,-0.7851562 -0.328125,-1.4765625 -1.207031,-1.4765625 -0.785156,0 -1.265625,0.6210938 -1.265625,1.40625 0,0.67968754 0.351563,1.39453129 1.242188,1.39453129 0.527343,0 0.996093,-0.24609375 1.183593,-0.83203125 z M 65.338652,-1.6651141 c 0.02344,-0.140625 0.03516,-0.2578125 0.128906,-0.3867187 0.117187,-0.1757813 0.28125,-0.2695313 0.480469,-0.2695313 0.210937,0 0.363281,0.09375 0.46875,0.234375 0.117187,0.1640625 0.128906,0.2929688 0.128906,0.421875 z m 2.455078,1.66406254 h 0.609375 V -1.2549578 c 0,-0.9257813 0.457031,-0.9609375 0.585937,-0.9609375 0.105469,0 0.421875,0.011719 0.421875,0.6328125 v 1.58203124 h 0.597656 V -1.5948016 c 0,-0.3515625 0.02344,-1.1484375 -0.855468,-1.1484375 -0.492188,0 -0.703125,0.4570313 -0.808594,0.6796875 V -2.6846453 H 67.79373 Z m 4.549804,-0.984375 c -0.07031,0.3046875 -0.234375,0.515625 -0.527343,0.515625 -0.550782,0 -0.550782,-0.73828124 -0.550782,-0.85546874 0,-0.1171875 0.02344,-0.3164063 0.08203,-0.5039063 0.04687,-0.140625 0.164062,-0.421875 0.503906,-0.421875 0.257812,0 0.445312,0.1523438 0.492187,0.5039063 l 0.527344,-0.070312 c -0.03516,-0.2109375 -0.175781,-0.9257813 -1.042969,-0.9257813 -0.796875,0 -1.207031,0.65625 -1.207031,1.3945313 0,0.60937499 0.292969,1.40624999 1.148438,1.40624999 0.867187,0 1.042968,-0.75 1.101562,-0.99609375 z M 75.396269,-2.6846453 H 74.9158 l -0.5625,1.76953124 -0.65625,-1.76953124 h -0.632813 l 0.925782,2.51953124 c 0.01172,0.0234375 0.04687,0.15234375 0.04687,0.1640625 0,0.0703125 -0.08203,0.31640625 -0.164063,0.38671875 -0.117187,0.09375 -0.257812,0.09375 -0.597656,0.0820313 v 0.48046875 c 0.1875,0.0117188 0.304687,0.0234375 0.351562,0.0234375 0.246094,0 0.550782,-0.0703125 0.726563,-0.59765625 z m 0,0"
         style="fill:#00205c;fill-opacity:1;fill-rule:nonzero;stroke:none"
         aria-label="Statistics and Research Agency"
         transform="matrix(1.3333333,0,0,1.3333333,241.11227,331.77093)" />
    </g>
    <g
       id="g24"
       style="fill:#00205c;fill-opacity:1">
      <path
         id="path25"
         d="m 3.1531047,-1.8643078 h -1.359375 v 0.5390625 h 0.75 c 0,0.52734374 -0.3632813,0.84374999 -0.7734375,0.84374999 -0.7265625,0 -0.86718751,-0.72656249 -0.86718751,-1.38281249 0,-0.5742188 0.12890621,-0.8203125 0.25781251,-0.984375 0.09375,-0.140625 0.3046875,-0.2929688 0.6210937,-0.2929688 0.5976563,0 0.7148438,0.5039063 0.7617188,0.65625 l 0.5742187,-0.09375 c -0.046875,-0.1640625 -0.09375,-0.3984375 -0.3164062,-0.6445312 -0.3164063,-0.3867188 -0.703125,-0.46875 -1.0429688,-0.46875 -1.17187496,0 -1.54687496,1.0898437 -1.54687496,1.875 0,0.4101562 0.140625,1.87499999 1.47656246,1.87499999 0.3632813,0 0.703125,-0.1171875 0.9726563,-0.55078125 l 0.2109375,0.4921875 h 0.28125 z m 0.7646484,1.86328124 h 0.609375 V -1.2549328 c 0,-0.9257813 0.4570313,-0.9609375 0.5859375,-0.9609375 0.1054688,0 0.421875,0.011719 0.421875,0.6328125 v 1.58203124 H 6.1325969 V -1.5947766 c 0,-0.3515625 0.023437,-1.1484375 -0.8554688,-1.1484375 -0.4921875,0 -0.703125,0.4570313 -0.8085937,0.6796875 V -2.6846203 H 3.9177531 Z m 3.6123047,0 V -2.6846203 h -0.609375 v 2.68359374 z m 0.2929688,-3.96093754 -1.03125,0.5859375 0.1054687,0.28125 1.1132813,-0.46875 z m 2.8212894,2.6132813 c 0,-0.7382813 -0.433594,-1.3945313 -1.2421879,-1.3945313 -0.8203125,0 -1.265625,0.65625 -1.265625,1.3828125 0,0.62109379 0.328125,1.41796879 1.2304688,1.41796879 0.6796871,0 1.2773441,-0.50390625 1.2773441,-1.40624999 z m -0.6445316,-0.011719 c 0,0.28125 -0.046875,0.91406254 -0.609375,0.91406254 -0.609375,0 -0.609375,-0.76171874 -0.609375,-0.90234374 0,-0.421875 0.1289062,-0.9023438 0.6210937,-0.9023438 0.4570313,0 0.5976563,0.4335938 0.5976563,0.890625 z m 1.2509766,1.35937504 h 0.632812 V -1.3135266 c 0,-0.6679687 0.316407,-0.890625 0.621094,-0.890625 0.375,0 0.433594,0.328125 0.433594,0.5273438 v 1.67578124 h 0.632812 V -1.4072766 c 0,-0.5859375 0.292969,-0.7851562 0.597657,-0.7851562 0.398437,0 0.457031,0.2695312 0.457031,0.609375 v 1.58203124 h 0.632812 V -1.7471203 c 0,-0.5859375 -0.269531,-0.9960938 -0.855468,-0.9960938 -0.480469,0 -0.738282,0.3398438 -0.890625,0.6328125 -0.05859,-0.1757812 -0.199219,-0.6328125 -0.773438,-0.6328125 -0.585937,0 -0.773437,0.3984375 -0.902344,0.6328125 v -0.5742187 h -0.585937 z m 4.795898,0 h 0.609375 V -1.2900891 c 0,-0.3164062 0.02344,-0.4921875 0.117188,-0.6914062 0.07031,-0.1640625 0.28125,-0.2929688 0.492187,-0.2929688 0.398438,0 0.398438,0.4101563 0.398438,0.6445313 v 1.62890624 h 0.609375 V -1.7354016 c 0,-0.75 -0.257813,-1.0664062 -0.832031,-1.0664062 -0.550782,0 -0.726563,0.4335937 -0.785157,0.5859375 v -1.4179688 h -0.609375 z m 5.223633,-1.75781254 c 0,-0.3398437 0,-0.5507812 -0.269531,-0.7851562 -0.1875,-0.1640625 -0.527344,-0.1992188 -0.820313,-0.1992188 -0.550781,0 -1.113281,0.1640625 -1.21875,0.7734375 l 0.515625,0.070312 c 0.03516,-0.1171875 0.09375,-0.4101562 0.632813,-0.4101562 0.269531,0 0.574219,0.070312 0.574219,0.4101562 v 0.1992188 c -0.585938,-0.011719 -1.804688,0.023437 -1.804688,0.92578124 0,0.4453125 0.316406,0.83203125 0.890625,0.83203125 0.644531,0 0.832031,-0.41015625 0.914063,-0.59765625 0.01172,0.2109375 0.02344,0.31640625 0.09375,0.5390625 h 0.574218 c -0.02344,-0.09375 -0.08203,-0.29296875 -0.08203,-0.5390625 z m -0.585937,0.6328125 c 0,0.21093754 -0.117188,0.72656254 -0.703125,0.72656254 -0.433594,0 -0.480469,-0.3046875 -0.480469,-0.41015625 0,-0.33984379 0.328125,-0.43359379 0.445312,-0.46874999 0.117188,-0.035156 0.351563,-0.09375 0.738282,-0.09375 z m 1.980468,1.12500004 V -2.6963391 h -0.609375 v 2.69531254 z m 0,-3.00000004 v -0.6328125 h -0.609375 v 0.6328125 z m 0.779297,3.00000004 h 0.609375 V -1.0908703 c 0,-0.4101563 0.09375,-0.6796875 0.199219,-0.796875 0.199219,-0.2226563 0.421875,-0.2226563 0.5625,-0.2226563 v -0.65625 c -0.574219,-0.023437 -0.761719,0.5273438 -0.820312,0.7265625 V -2.6846203 H 23.44412 Z m 3.571289,-0.85546875 c -0.05859,0.15234375 -0.175781,0.43359375 -0.609375,0.43359375 -0.222656,0 -0.386718,-0.0703125 -0.503906,-0.24609375 -0.152344,-0.2109375 -0.140625,-0.42187499 -0.140625,-0.59765629 h 1.839844 c 0.02344,-0.7851562 -0.328125,-1.4765625 -1.207031,-1.4765625 -0.785157,0 -1.265625,0.6210938 -1.265625,1.40625 0,0.67968754 0.351562,1.39453129 1.242187,1.39453129 0.527344,0 0.996094,-0.24609375 1.183594,-0.83203125 z M 25.761503,-1.6650891 c 0.02344,-0.140625 0.03516,-0.2578125 0.128906,-0.3867187 0.117188,-0.1757813 0.28125,-0.2695313 0.480469,-0.2695313 0.210938,0 0.363281,0.09375 0.46875,0.234375 0.117188,0.1640625 0.128906,0.2929688 0.128906,0.421875 z m 4.669922,-0.09375 c 0,-0.3398437 0,-0.5507812 -0.269531,-0.7851562 -0.1875,-0.1640625 -0.527344,-0.1992188 -0.820313,-0.1992188 -0.550781,0 -1.113281,0.1640625 -1.21875,0.7734375 l 0.515625,0.070312 c 0.03516,-0.1171875 0.09375,-0.4101562 0.632813,-0.4101562 0.269531,0 0.574218,0.070312 0.574218,0.4101562 v 0.1992188 c -0.585937,-0.011719 -1.804687,0.023437 -1.804687,0.92578124 0,0.4453125 0.316406,0.83203125 0.890625,0.83203125 0.644531,0 0.832031,-0.41015625 0.914062,-0.59765625 0.01172,0.2109375 0.02344,0.31640625 0.09375,0.5390625 h 0.574219 c -0.02344,-0.09375 -0.08203,-0.29296875 -0.08203,-0.5390625 z m -0.585938,0.6328125 c 0,0.21093754 -0.117187,0.72656254 -0.703125,0.72656254 -0.433593,0 -0.480468,-0.3046875 -0.480468,-0.41015625 0,-0.33984379 0.328125,-0.43359379 0.445312,-0.46874999 0.117188,-0.035156 0.351563,-0.09375 0.738281,-0.09375 z m 2.91504,0.14062504 c -0.07031,0.3046875 -0.234375,0.515625 -0.527344,0.515625 -0.550781,0 -0.550781,-0.73828124 -0.550781,-0.85546874 0,-0.1171875 0.02344,-0.3164063 0.08203,-0.5039063 0.04687,-0.140625 0.164062,-0.421875 0.503906,-0.421875 0.257813,0 0.445313,0.1523438 0.492188,0.5039063 l 0.527343,-0.070312 c -0.03516,-0.2109375 -0.175781,-0.9257813 -1.042968,-0.9257813 -0.796875,0 -1.207032,0.65625 -1.207032,1.3945313 0,0.60937499 0.292969,1.40624999 1.148438,1.40624999 0.867187,0 1.042969,-0.75 1.101562,-0.99609375 z m 1.048828,0.984375 H 34.41873 V -1.2900891 c 0,-0.3164062 0.02344,-0.4921875 0.117187,-0.6914062 0.07031,-0.1640625 0.28125,-0.2929688 0.492188,-0.2929688 0.398437,0 0.398437,0.4101563 0.398437,0.6445313 v 1.62890624 h 0.609375 V -1.7354016 c 0,-0.75 -0.257812,-1.0664062 -0.832031,-1.0664062 -0.550781,0 -0.726563,0.4335937 -0.785156,0.5859375 v -1.4179688 h -0.609375 z m 4.262695,-0.46875 c -0.07031,0 -0.105469,0 -0.152344,0 -0.316406,0 -0.445312,-0.0703125 -0.445312,-0.43359375 V -2.2158703 h 0.539062 v -0.46875 h -0.539062 v -0.7382813 l -0.492188,0.035156 -0.05859,0.703125 h -0.375 v 0.46875 h 0.339844 v 1.39453124 c 0,0.3046875 0.02344,0.48046875 0.1875,0.66796875 0.117188,0.140625 0.363281,0.2109375 0.5625,0.2109375 0.117188,0 0.292969,-0.0234375 0.433594,-0.05859375 z m 3.492187,0.46875 V -3.0713391 h 0.972657 v -0.5625 h -2.636719 v 0.5625 h 0.960937 v 3.07031254 z m 1.385743,0 h 0.609375 V -1.2900891 c 0,-0.3164062 0.02344,-0.4921875 0.117187,-0.6914062 0.07031,-0.1640625 0.28125,-0.2929688 0.492188,-0.2929688 0.398437,0 0.398437,0.4101563 0.398437,0.6445313 v 1.62890624 h 0.609375 V -1.7354016 c 0,-0.75 -0.257812,-1.0664062 -0.832031,-1.0664062 -0.550781,0 -0.726563,0.4335937 -0.785156,0.5859375 V -3.6338391 H 42.94998 Z m 5.214843,-2.68359374 h -0.597656 v 1.2890625 c 0,0.2578125 -0.02344,0.39843749 -0.08203,0.55078124 -0.08203,0.234375 -0.328125,0.375 -0.527344,0.375 -0.28125,0 -0.375,-0.22265625 -0.375,-0.515625 V -2.6846203 h -0.621094 v 1.87499999 c 0,0.24609375 0.02344,0.36328125 0.140625,0.5390625 0.152344,0.234375 0.410157,0.328125 0.65625,0.328125 0.292969,0 0.46875,-0.12890625 0.5625,-0.19921875 0.175782,-0.15234375 0.234375,-0.29296875 0.28125,-0.43359375 v 0.57421875 h 0.5625 z m 3.00293,0.9257812 c 0,-0.3398437 0,-0.5507812 -0.269531,-0.7851562 -0.1875,-0.1640625 -0.527344,-0.1992188 -0.820313,-0.1992188 -0.550781,0 -1.113281,0.1640625 -1.21875,0.7734375 l 0.515625,0.070312 c 0.03516,-0.1171875 0.09375,-0.4101562 0.632813,-0.4101562 0.269531,0 0.574219,0.070312 0.574219,0.4101562 v 0.1992188 c -0.585938,-0.011719 -1.804688,0.023437 -1.804688,0.92578124 0,0.4453125 0.316406,0.83203125 0.890625,0.83203125 0.644531,0 0.832031,-0.41015625 0.914063,-0.59765625 0.01172,0.2109375 0.02344,0.31640625 0.09375,0.5390625 h 0.574218 c -0.02344,-0.09375 -0.08203,-0.29296875 -0.08203,-0.5390625 z m -0.585937,0.6328125 c 0,0.21093754 -0.117188,0.72656254 -0.703125,0.72656254 -0.433594,0 -0.480469,-0.3046875 -0.480469,-0.41015625 0,-0.33984379 0.328125,-0.43359379 0.445312,-0.46874999 0.117188,-0.035156 0.351563,-0.09375 0.738282,-0.09375 z m 1.980468,1.12500004 V -2.6963391 h -0.609375 v 2.69531254 z m 0,-3.00000004 v -0.6328125 h -0.609375 v 0.6328125 z m 0.451172,2.37890629 c 0.105469,0.3984375 0.503906,0.6796875 1.136719,0.6796875 0.375,0 1.171875,-0.140625 1.171875,-0.87890625 0,-0.42187504 -0.234375,-0.69140624 -0.667969,-0.77343754 l -0.585937,-0.1171875 c -0.210938,-0.046875 -0.386719,-0.1289062 -0.386719,-0.2929687 0,-0.1757813 0.152344,-0.3046875 0.480469,-0.3046875 0.386718,0 0.457031,0.2109375 0.492187,0.2929687 l 0.539063,-0.1054687 c -0.175782,-0.5507813 -0.726563,-0.6210938 -1.042969,-0.6210938 -0.867188,0 -1.03125,0.5625 -1.03125,0.8554688 0,0.6210937 0.5625,0.75 0.820312,0.796875 l 0.492188,0.09375 c 0.105469,0.0234375 0.292969,0.09375 0.292969,0.26953125 0,0.31640625 -0.433594,0.328125 -0.574219,0.328125 -0.421875,0 -0.515625,-0.19921875 -0.5625,-0.328125 z m 4.40625,-0.36328125 c -0.07031,0.3046875 -0.234375,0.515625 -0.527344,0.515625 -0.550781,0 -0.550781,-0.73828124 -0.550781,-0.85546874 0,-0.1171875 0.02344,-0.3164063 0.08203,-0.5039063 0.04687,-0.140625 0.164063,-0.421875 0.503907,-0.421875 0.257812,0 0.445312,0.1523438 0.492187,0.5039063 l 0.527344,-0.070312 c -0.03516,-0.2109375 -0.175781,-0.9257813 -1.042969,-0.9257813 -0.796875,0 -1.207031,0.65625 -1.207031,1.3945313 0,0.60937499 0.292969,1.40624999 1.148437,1.40624999 0.867188,0 1.042969,-0.75 1.101563,-0.99609375 z m 2.756836,0.12890625 c -0.05859,0.15234375 -0.175781,0.43359375 -0.609375,0.43359375 -0.222656,0 -0.386719,-0.0703125 -0.503906,-0.24609375 -0.152344,-0.2109375 -0.140625,-0.42187499 -0.140625,-0.59765629 h 1.839844 c 0.02344,-0.7851562 -0.328125,-1.4765625 -1.207032,-1.4765625 -0.785156,0 -1.265625,0.6210938 -1.265625,1.40625 0,0.67968754 0.351563,1.39453129 1.242188,1.39453129 0.527344,0 0.996094,-0.24609375 1.183594,-0.83203125 z M 58.922636,-1.6650891 c 0.02344,-0.140625 0.03516,-0.2578125 0.128906,-0.3867187 0.117188,-0.1757813 0.28125,-0.2695313 0.480469,-0.2695313 0.210937,0 0.363281,0.09375 0.46875,0.234375 0.117187,0.1640625 0.128906,0.2929688 0.128906,0.421875 z m 4.669922,-0.09375 c 0,-0.3398437 0,-0.5507812 -0.269531,-0.7851562 -0.1875,-0.1640625 -0.527344,-0.1992188 -0.820313,-0.1992188 -0.550781,0 -1.113281,0.1640625 -1.21875,0.7734375 l 0.515625,0.070312 c 0.03516,-0.1171875 0.09375,-0.4101562 0.632813,-0.4101562 0.269531,0 0.574218,0.070312 0.574218,0.4101562 v 0.1992188 c -0.585937,-0.011719 -1.804687,0.023437 -1.804687,0.92578124 0,0.4453125 0.316406,0.83203125 0.890625,0.83203125 0.644531,0 0.832031,-0.41015625 0.914062,-0.59765625 0.01172,0.2109375 0.02344,0.31640625 0.09375,0.5390625 h 0.574219 c -0.02344,-0.09375 -0.08203,-0.29296875 -0.08203,-0.5390625 z m -0.585938,0.6328125 c 0,0.21093754 -0.117187,0.72656254 -0.703125,0.72656254 -0.433593,0 -0.480468,-0.3046875 -0.480468,-0.41015625 0,-0.33984379 0.328125,-0.43359379 0.445312,-0.46874999 0.117188,-0.035156 0.351563,-0.09375 0.738281,-0.09375 z m 1.368164,1.12500004 h 0.609375 V -1.0908703 c 0,-0.4101563 0.09375,-0.6796875 0.199219,-0.796875 0.199219,-0.2226563 0.421875,-0.2226563 0.5625,-0.2226563 v -0.65625 c -0.574219,-0.023437 -0.761719,0.5273438 -0.820312,0.7265625 v -0.6445312 h -0.550782 z m 3.386719,-0.46875 c -0.07031,0 -0.105469,0 -0.152344,0 -0.316406,0 -0.445312,-0.0703125 -0.445312,-0.43359375 V -2.2158703 h 0.539062 v -0.46875 h -0.539062 v -0.7382813 l -0.492188,0.035156 -0.05859,0.703125 h -0.375 v 0.46875 h 0.339843 v 1.39453124 c 0,0.3046875 0.02344,0.48046875 0.1875,0.66796875 0.117188,0.140625 0.363282,0.2109375 0.5625,0.2109375 0.117188,0 0.292969,-0.0234375 0.433594,-0.05859375 z m 4.582031,0.46875 v -0.5625 H 70.644316 V -1.5830578 h 1.347656 v -0.5273438 h -1.347656 v -0.984375 h 1.675781 v -0.5390625 h -2.332031 v 3.63281254 z m -0.421875,-4.74609374 -1.089843,0.5039062 0.105468,0.28125 1.148438,-0.3867187 z m 1.623047,4.74609374 V -2.6963391 h -0.609375 v 2.69531254 z m 0,-3.00000004 v -0.6328125 h -0.609375 v 0.6328125 z m 0.779297,3.00000004 h 0.609375 V -1.0908703 c 0,-0.4101563 0.09375,-0.6796875 0.199219,-0.796875 0.199219,-0.2226563 0.421875,-0.2226563 0.5625,-0.2226563 v -0.65625 c -0.574219,-0.023437 -0.761719,0.5273438 -0.820313,0.7265625 v -0.6445312 h -0.550781 z m 3.571289,-0.85546875 c -0.05859,0.15234375 -0.175781,0.43359375 -0.609375,0.43359375 -0.222656,0 -0.386719,-0.0703125 -0.503906,-0.24609375 -0.152344,-0.2109375 -0.140625,-0.42187499 -0.140625,-0.59765629 h 1.839844 c 0.02344,-0.7851562 -0.328125,-1.4765625 -1.207032,-1.4765625 -0.785156,0 -1.265625,0.6210938 -1.265625,1.40625 0,0.67968754 0.351563,1.39453129 1.242188,1.39453129 0.527344,0 0.996094,-0.24609375 1.183594,-0.83203125 z M 76.641386,-1.6650891 c 0.02344,-0.140625 0.03516,-0.2578125 0.128906,-0.3867187 0.117188,-0.1757813 0.28125,-0.2695313 0.480469,-0.2695313 0.210937,0 0.363281,0.09375 0.46875,0.234375 0.117187,0.1640625 0.128906,0.2929688 0.128906,0.421875 z m 4.669922,-0.09375 c 0,-0.3398437 0,-0.5507812 -0.269531,-0.7851562 -0.1875,-0.1640625 -0.527344,-0.1992188 -0.820313,-0.1992188 -0.550781,0 -1.113281,0.1640625 -1.21875,0.7734375 l 0.515625,0.070312 c 0.03516,-0.1171875 0.09375,-0.4101562 0.632813,-0.4101562 0.269531,0 0.574218,0.070312 0.574218,0.4101562 v 0.1992188 c -0.585937,-0.011719 -1.804687,0.023437 -1.804687,0.92578124 0,0.4453125 0.316406,0.83203125 0.890625,0.83203125 0.644531,0 0.832031,-0.41015625 0.914062,-0.59765625 0.01172,0.2109375 0.02344,0.31640625 0.09375,0.5390625 h 0.574219 c -0.02344,-0.09375 -0.08203,-0.29296875 -0.08203,-0.5390625 z m -0.585938,0.6328125 c 0,0.21093754 -0.117187,0.72656254 -0.703125,0.72656254 -0.433593,0 -0.480468,-0.3046875 -0.480468,-0.41015625 0,-0.33984379 0.328125,-0.43359379 0.445312,-0.46874999 0.117188,-0.035156 0.351563,-0.09375 0.738281,-0.09375 z m 1.368164,1.12500004 h 0.609375 V -1.2549328 c 0,-0.9257813 0.457032,-0.9609375 0.585938,-0.9609375 0.105469,0 0.421875,0.011719 0.421875,0.6328125 v 1.58203124 h 0.597656 V -1.5947766 c 0,-0.3515625 0.02344,-1.1484375 -0.855469,-1.1484375 -0.492187,0 -0.703125,0.4570313 -0.808593,0.6796875 v -0.6210937 h -0.550782 z m 3.00293,0 h 0.609375 V -1.2549328 c 0,-0.9257813 0.457031,-0.9609375 0.585938,-0.9609375 0.105468,0 0.421875,0.011719 0.421875,0.6328125 v 1.58203124 h 0.597656 V -1.5947766 c 0,-0.3515625 0.02344,-1.1484375 -0.855469,-1.1484375 -0.492187,0 -0.703125,0.4570313 -0.808594,0.6796875 v -0.6210937 h -0.550781 z m 0,0"
         style="fill:#00205c;fill-opacity:1;fill-rule:nonzero;stroke:none"
         aria-label="Gníomhaireacht Thuaisceart Éireann"
         transform="matrix(1.3333333,0,0,1.3333333,241.11227,343.4584)" />
    </g>
    <g
       id="g25"
       style="fill:#00205c;fill-opacity:1">
      <path
         id="path26"
         d="M 2.5671672,-2.6844578 H 1.9695109 v 1.2890625 c 0,0.2578125 -0.023437,0.39843749 -0.082031,0.55078124 -0.082031,0.234375 -0.328125,0.375 -0.5273438,0.375 -0.28125,0 -0.37499996,-0.22265625 -0.37499996,-0.515625 V -2.6844578 H 0.36404219 v 1.87499999 c 0,0.24609375 0.0234375,0.36328125 0.140625,0.5390625 0.15234375,0.234375 0.41015625,0.328125 0.65625001,0.328125 0.2929687,0 0.46875,-0.12890625 0.5625,-0.19921875 0.1757812,-0.15234375 0.234375,-0.29296875 0.28125,-0.43359375 v 0.5742187475 h 0.5625 z M 3.3552531,-8.640625e-4 H 3.9880656 V -1.3133641 c 0,-0.6679687 0.3164063,-0.890625 0.6210938,-0.890625 0.375,0 0.4335937,0.328125 0.4335937,0.5273438 V -8.640625e-4 H 5.6755656 V -1.4071141 c 0,-0.5859375 0.2929688,-0.7851562 0.5976563,-0.7851562 0.3984375,0 0.4570312,0.2695312 0.4570312,0.609375 V -8.640625e-4 H 7.3630656 V -1.7469578 c 0,-0.5859375 -0.2695312,-0.9960938 -0.8554687,-0.9960938 -0.4804688,0 -0.7382813,0.3398438 -0.890625,0.6328125 -0.058594,-0.1757812 -0.1992188,-0.6328125 -0.7734375,-0.6328125 -0.5859375,0 -0.7734375,0.3984375 -0.9023438,0.6328125 V -2.6844578 H 3.3552531 Z m 6.09375,-0.8789062475 c 0.058594,0.17578125 0.1171875,0.3984375 0.3632813,0.5859375 0.3046876,0.24609375 0.6796876,0.3515625 1.1132816,0.3515625 0.832031,0 1.453125,-0.421875 1.453125,-1.14843749 0,-0.7734375 -0.632813,-0.9492188 -0.949219,-1.03125 l -0.609375,-0.1523438 c -0.1875,-0.046875 -0.515625,-0.1523437 -0.515625,-0.4335937 0,-0.1875 0.128906,-0.4570313 0.632812,-0.4570313 0.515625,0 0.621094,0.2929688 0.667969,0.421875 l 0.621094,-0.1640625 c -0.03516,-0.1171875 -0.08203,-0.2929687 -0.304688,-0.46875 -0.28125,-0.2226562 -0.632812,-0.3164062 -0.996093,-0.3164062 -0.726563,0 -1.2890629,0.3984375 -1.2890629,1.0898437 0,0.4570313 0.2578125,0.8320313 0.7851559,0.9726563 l 0.808594,0.1992187 c 0.164063,0.046875 0.457031,0.1289063 0.457031,0.48046879 0,0.1640625 -0.128906,0.48046875 -0.726562,0.48046875 -0.128906,0 -0.28125,-0.0117188 -0.457031,-0.0703125 -0.328125,-0.10546875 -0.386719,-0.33984375 -0.421875,-0.46875004 z m 4.7607419,0.41015625 c -0.07031,0 -0.105468,0 -0.152343,0 -0.316407,0 -0.445313,-0.0703125 -0.445313,-0.43359375 V -2.2157078 h 0.539063 v -0.46875 h -0.539063 v -0.7382813 l -0.492187,0.035156 -0.05859,0.703125 h -0.375 v 0.46875 h 0.339844 v 1.39453124 c 0,0.3046875 0.02344,0.48046875 0.1875,0.66796875 0.117187,0.140625 0.363281,0.2109375 0.5625,0.2109375 0.117187,0 0.292968,-0.0234375 0.433593,-0.0585937525 z M 16.98123,-1.7586766 c 0,-0.3398437 0,-0.5507812 -0.269532,-0.7851562 -0.1875,-0.1640625 -0.527343,-0.1992188 -0.820312,-0.1992188 -0.550781,0 -1.113281,0.1640625 -1.21875,0.7734375 l 0.515625,0.070312 c 0.03516,-0.1171875 0.09375,-0.4101562 0.632812,-0.4101562 0.269532,0 0.574219,0.070312 0.574219,0.4101562 v 0.1992188 c -0.585937,-0.011719 -1.804687,0.023437 -1.804687,0.92578124 0,0.4453125 0.316406,0.83203125 0.890625,0.83203125 0.644531,0 0.832031,-0.41015625 0.914062,-0.59765625 0.01172,0.2109375 0.02344,0.31640625 0.09375,0.5390624975 h 0.574219 C 17.039823,-0.09461406 16.98123,-0.29383281 16.98123,-0.53992656 Z m -0.585938,0.6328125 c 0,0.21093754 -0.117187,0.72656254 -0.703125,0.72656254 -0.433594,0 -0.480469,-0.3046875 -0.480469,-0.41015625 0,-0.33984379 0.328125,-0.43359379 0.445313,-0.46874999 0.117187,-0.035156 0.351562,-0.09375 0.738281,-0.09375 z m 1.977539,1.1250000375 V -2.6961766 h -0.609375 v 2.6953125375 z m 0,-3.0000000375 v -0.6328125 h -0.609375 v 0.6328125 z m 2.036133,2.53125004 c -0.07031,0 -0.105469,0 -0.152344,0 -0.316406,0 -0.445312,-0.0703125 -0.445312,-0.43359375 V -2.2157078 h 0.539062 v -0.46875 h -0.539062 v -0.7382813 l -0.492188,0.035156 -0.05859,0.703125 h -0.375 v 0.46875 h 0.339843 v 1.39453124 c 0,0.3046875 0.02344,0.48046875 0.1875,0.66796875 0.117188,0.140625 0.363282,0.2109375 0.5625,0.2109375 0.117188,0 0.292969,-0.0234375 0.433594,-0.0585937525 z M 21.57498,-8.640625e-4 V -2.6961766 h -0.609375 v 2.6953125375 z m 0,-3.0000000375 v -0.6328125 h -0.609375 v 0.6328125 z m 0.451172,2.37890629 c 0.105468,0.3984375 0.503906,0.6796875 1.136718,0.6796875 0.375,0 1.171875,-0.140625 1.171875,-0.87890625 0,-0.42187504 -0.234375,-0.69140624 -0.667968,-0.77343754 l -0.585938,-0.1171875 c -0.210937,-0.046875 -0.386719,-0.1289062 -0.386719,-0.2929687 0,-0.1757813 0.152344,-0.3046875 0.480469,-0.3046875 0.386719,0 0.457031,0.2109375 0.492188,0.2929687 l 0.539062,-0.1054687 c -0.175781,-0.5507813 -0.726562,-0.6210938 -1.042969,-0.6210938 -0.867187,0 -1.03125,0.5625 -1.03125,0.8554688 0,0.6210937 0.5625,0.75 0.820313,0.796875 l 0.492187,0.09375 c 0.105469,0.0234375 0.292969,0.09375 0.292969,0.26953125 0,0.31640625 -0.433594,0.328125 -0.574219,0.328125 -0.421875,0 -0.515625,-0.19921875 -0.5625,-0.328125 z m 4.113281,0.15234375 c -0.07031,0 -0.105469,0 -0.152344,0 -0.316406,0 -0.445312,-0.0703125 -0.445312,-0.43359375 V -2.2157078 h 0.539062 v -0.46875 h -0.539062 v -0.7382813 l -0.492188,0.035156 -0.05859,0.703125 h -0.375 v 0.46875 h 0.339844 v 1.39453124 c 0,0.3046875 0.02344,0.48046875 0.1875,0.66796875 0.117188,0.140625 0.363281,0.2109375 0.5625,0.2109375 0.117188,0 0.292969,-0.0234375 0.433594,-0.0585937525 z m 1.163086,0.4687499975 V -2.6961766 h -0.609375 v 2.6953125375 z m 0,-3.0000000375 v -0.6328125 h -0.609375 v 0.6328125 z m 2.329101,2.01562504 c -0.07031,0.3046875 -0.234375,0.515625 -0.527343,0.515625 -0.550782,0 -0.550782,-0.73828124 -0.550782,-0.85546874 0,-0.1171875 0.02344,-0.3164063 0.08203,-0.5039063 0.04687,-0.140625 0.164062,-0.421875 0.503906,-0.421875 0.257812,0 0.445312,0.1523438 0.492187,0.5039063 l 0.527344,-0.070312 c -0.03516,-0.2109375 -0.175781,-0.9257813 -1.042969,-0.9257813 -0.796875,0 -1.207031,0.65625 -1.207031,1.3945313 0,0.60937499 0.292969,1.40624999 1.148438,1.40624999 0.867187,0 1.042968,-0.75 1.101562,-0.99609375 z m 1.658203,0.9843749975 V -2.6844578 h -0.609375 v 2.6835937375 z m 0.292969,-3.9609375375 -1.03125,0.5859375 0.105469,0.28125 1.113281,-0.46875 z m 4.335938,2.203125 c 0,-0.3398437 0,-0.5507812 -0.269532,-0.7851562 -0.1875,-0.1640625 -0.527343,-0.1992188 -0.820312,-0.1992188 -0.550781,0 -1.113281,0.1640625 -1.21875,0.7734375 l 0.515625,0.070312 c 0.03516,-0.1171875 0.09375,-0.4101562 0.632812,-0.4101562 0.269532,0 0.574219,0.070312 0.574219,0.4101562 v 0.1992188 c -0.585937,-0.011719 -1.804687,0.023437 -1.804687,0.92578124 0,0.4453125 0.316406,0.83203125 0.890625,0.83203125 0.644531,0 0.832031,-0.41015625 0.914062,-0.59765625 0.01172,0.2109375 0.02344,0.31640625 0.09375,0.5390624975 h 0.574219 C 35.977323,-0.09461406 35.91873,-0.29383281 35.91873,-0.53992656 Z m -0.585938,0.6328125 c 0,0.21093754 -0.117187,0.72656254 -0.703125,0.72656254 -0.433594,0 -0.480469,-0.3046875 -0.480469,-0.41015625 0,-0.33984379 0.328125,-0.43359379 0.445313,-0.46874999 0.117187,-0.035156 0.351562,-0.09375 0.738281,-0.09375 z m 3.820313,-2.0742187 h -0.175782 c -0.175781,0 -0.328125,0.035156 -0.445312,0.1171875 -0.117188,0.070312 -0.210938,0.1992187 -0.246094,0.3984375 -0.152344,-0.035156 -0.28125,-0.058594 -0.527344,-0.058594 -0.9375,0 -1.101562,0.5390625 -1.101562,0.8085938 0,0.375 0.222656,0.5273437 0.375,0.6210937 -0.152344,0.070312 -0.433594,0.2226563 -0.433594,0.56250004 0,0.19921875 0.105469,0.3046875 0.257813,0.43359375 -0.199219,0.10546875 -0.398438,0.22265625 -0.398438,0.55078125 0,0.5625 0.597656,0.7265625 1.300781,0.7265625 1.148438,0 1.394532,-0.5390625 1.394532,-0.87890625 0,-0.3515625 -0.257813,-0.73828125 -0.914063,-0.73828125 h -0.691406 c -0.339844,0 -0.433594,-0.1640625 -0.433594,-0.26953125 0,-0.16406249 0.105469,-0.21093749 0.1875,-0.25781249 0.1875,0.046875 0.316406,0.070312 0.503906,0.070312 0.644532,0 1.089844,-0.3398438 1.089844,-0.8320313 0,-0.28125 -0.175781,-0.4570312 -0.316406,-0.5742187 0.09375,-0.1523438 0.1875,-0.2109375 0.398437,-0.2109375 h 0.175782 z m -0.878907,1.265625 c 0,0.140625 0,0.2578125 -0.152343,0.375 -0.08203,0.046875 -0.222657,0.082031 -0.339844,0.082031 -0.339844,0 -0.503906,-0.1992187 -0.503906,-0.4335937 0,-0.1875 0.117187,-0.4453125 0.515625,-0.4453125 0.386718,0 0.480468,0.2578125 0.480468,0.4218752 z m -1.289062,2.01562499 c 0,-0.0820312525 0.03516,-0.140625 0.128906,-0.234375 0.175781,0.0703125 0.457031,0.0703125 0.65625,0.0703125 h 0.421875 c 0.1875,0 0.398438,0.0820312475 0.398438,0.26953125 0,0.31640625 -0.433594,0.36328125 -0.691407,0.36328125 -0.152343,0 -0.328125,-0.0117188 -0.515625,-0.0585937 -0.222656,-0.0585938 -0.398437,-0.234375 -0.398437,-0.4101563 z m 4.798828,-2.76562499 h -0.597656 v 1.2890625 c 0,0.2578125 -0.02344,0.39843749 -0.08203,0.55078124 -0.08203,0.234375 -0.328125,0.375 -0.527344,0.375 -0.28125,0 -0.375,-0.22265625 -0.375,-0.515625 V -2.6844578 H 39.58084 v 1.87499999 c 0,0.24609375 0.02344,0.36328125 0.140625,0.5390625 0.152344,0.234375 0.410156,0.328125 0.65625,0.328125 0.292969,0 0.46875,-0.12890625 0.5625,-0.19921875 0.175781,-0.15234375 0.234375,-0.29296875 0.28125,-0.43359375 v 0.5742187475 h 0.5625 z m 0.462891,2.06249999 c 0.105468,0.3984375 0.503906,0.6796875 1.136718,0.6796875 0.375,0 1.171875,-0.140625 1.171875,-0.87890625 0,-0.42187504 -0.234375,-0.69140624 -0.667968,-0.77343754 l -0.585938,-0.1171875 c -0.210937,-0.046875 -0.386719,-0.1289062 -0.386719,-0.2929687 0,-0.1757813 0.152344,-0.3046875 0.480469,-0.3046875 0.386719,0 0.457031,0.2109375 0.492188,0.2929687 l 0.539062,-0.1054687 c -0.175781,-0.5507813 -0.726562,-0.6210938 -1.042969,-0.6210938 -0.867187,0 -1.03125,0.5625 -1.03125,0.8554688 0,0.6210937 0.5625,0.75 0.820313,0.796875 l 0.492187,0.09375 c 0.105469,0.0234375 0.292969,0.09375 0.292969,0.26953125 0,0.31640625 -0.433594,0.328125 -0.574219,0.328125 -0.421875,0 -0.515625,-0.19921875 -0.5625,-0.328125 z m 5.794922,0.6210937475 V -3.0711766 h 0.972656 v -0.5625 h -2.636719 v 0.5625 h 0.960938 V -8.640625e-4 Z M 51.314237,-1.7586766 c 0,-0.3398437 0,-0.5507812 -0.269531,-0.7851562 -0.1875,-0.1640625 -0.527344,-0.1992188 -0.820312,-0.1992188 -0.550782,0 -1.113282,0.1640625 -1.21875,0.7734375 l 0.515625,0.070312 c 0.03516,-0.1171875 0.09375,-0.4101562 0.632812,-0.4101562 0.269531,0 0.574219,0.070312 0.574219,0.4101562 v 0.1992188 c -0.585938,-0.011719 -1.804688,0.023437 -1.804688,0.92578124 0,0.4453125 0.316407,0.83203125 0.890625,0.83203125 0.644532,0 0.832032,-0.41015625 0.914063,-0.59765625 0.01172,0.2109375 0.02344,0.31640625 0.09375,0.5390624975 h 0.574219 C 51.372831,-0.09461406 51.314237,-0.29383281 51.314237,-0.53992656 Z M 50.7283,-1.1258641 c 0,0.21093754 -0.117188,0.72656254 -0.703125,0.72656254 -0.433594,0 -0.480469,-0.3046875 -0.480469,-0.41015625 0,-0.33984379 0.328125,-0.43359379 0.445313,-0.46874999 0.117187,-0.035156 0.351562,-0.09375 0.738281,-0.09375 z m 1.980469,1.1250000375 V -2.6961766 h -0.609375 v 2.6953125375 z m 0,-3.0000000375 v -0.6328125 h -0.609375 v 0.6328125 z m 3.228515,-0.1992187 h -0.175781 c -0.175781,0 -0.328125,0.035156 -0.445312,0.1171875 -0.117188,0.070312 -0.210938,0.1992187 -0.246094,0.3984375 -0.152344,-0.035156 -0.28125,-0.058594 -0.527344,-0.058594 -0.9375,0 -1.101562,0.5390625 -1.101562,0.8085938 0,0.375 0.222656,0.5273437 0.375,0.6210937 -0.152344,0.070312 -0.433594,0.2226563 -0.433594,0.56250004 0,0.19921875 0.105469,0.3046875 0.257812,0.43359375 -0.199218,0.10546875 -0.398437,0.22265625 -0.398437,0.55078125 0,0.5625 0.597656,0.7265625 1.300781,0.7265625 1.148438,0 1.394531,-0.5390625 1.394531,-0.87890625 0,-0.3515625 -0.257812,-0.73828125 -0.914062,-0.73828125 h -0.691406 c -0.339844,0 -0.433594,-0.1640625 -0.433594,-0.26953125 0,-0.16406249 0.105469,-0.21093749 0.1875,-0.25781249 0.1875,0.046875 0.316406,0.070312 0.503906,0.070312 0.644531,0 1.089844,-0.3398438 1.089844,-0.8320313 0,-0.28125 -0.175781,-0.4570312 -0.316406,-0.5742187 0.09375,-0.1523438 0.1875,-0.2109375 0.398437,-0.2109375 h 0.175781 z m -0.878906,1.265625 c 0,0.140625 0,0.2578125 -0.152344,0.375 -0.08203,0.046875 -0.222656,0.082031 -0.339843,0.082031 -0.339844,0 -0.503907,-0.1992187 -0.503907,-0.4335937 0,-0.1875 0.117188,-0.4453125 0.515625,-0.4453125 0.386719,0 0.480469,0.2578125 0.480469,0.4218752 z m -1.289062,2.01562499 c 0,-0.0820312525 0.03516,-0.140625 0.128906,-0.234375 0.175781,0.0703125 0.457031,0.0703125 0.65625,0.0703125 h 0.421875 c 0.1875,0 0.398437,0.0820312475 0.398437,0.26953125 0,0.31640625 -0.433593,0.36328125 -0.691406,0.36328125 -0.152344,0 -0.328125,-0.0117188 -0.515625,-0.0585937 -0.222656,-0.0585938 -0.398437,-0.234375 -0.398437,-0.4101563 z m 2.598632,-0.0820312525 h 0.609375 V -1.2899266 c 0,-0.3164062 0.02344,-0.4921875 0.117188,-0.6914062 0.07031,-0.1640625 0.28125,-0.2929688 0.492187,-0.2929688 0.398438,0 0.398438,0.4101563 0.398438,0.6445313 v 1.6289062375 h 0.609375 V -1.7352391 c 0,-0.75 -0.257813,-1.0664062 -0.832031,-1.0664062 -0.550782,0 -0.726563,0.4335937 -0.785157,0.5859375 v -1.4179688 h -0.609375 z m 5.211914,0 V -3.6336766 h -0.609375 v 1.3125 c -0.164062,-0.3867187 -0.445312,-0.4804687 -0.714843,-0.4804687 -0.820313,0 -1.054688,0.9023437 -1.054688,1.4179687 0,0.2929688 0.08203,1.44140629 1.019531,1.44140629 0.539063,0 0.714844,-0.421875 0.796875,-0.59765625 V -8.640625e-4 Z M 60.970487,-1.1258641 c 0,0.42187504 -0.292968,0.67968754 -0.5625,0.67968754 -0.550781,0 -0.5625,-0.71484374 -0.5625,-0.89062504 0,-0.234375 0.02344,-0.9375 0.574219,-0.9375 0.152344,0 0.316406,0.070312 0.410156,0.1992188 0.117188,0.1523437 0.140625,0.2578125 0.140625,0.4921875 z m 3.105469,0.26953129 c -0.05859,0.15234375 -0.175781,0.43359375 -0.609375,0.43359375 -0.222656,0 -0.386719,-0.0703125 -0.503906,-0.24609375 C 62.810331,-0.87977031 62.82205,-1.0907078 62.82205,-1.2664891 h 1.839844 c 0.02344,-0.7851562 -0.328125,-1.4765625 -1.207032,-1.4765625 -0.785156,0 -1.265625,0.6210938 -1.265625,1.40625 0,0.67968754 0.351563,1.39453129 1.242188,1.39453129 0.527344,0 0.996094,-0.24609375 1.183594,-0.83203125 z M 62.82205,-1.6649266 c 0.02344,-0.140625 0.03516,-0.2578125 0.128906,-0.3867187 0.117188,-0.1757813 0.28125,-0.2695313 0.480469,-0.2695313 0.210937,0 0.363281,0.09375 0.46875,0.234375 0.117187,0.1640625 0.128906,0.2929688 0.128906,0.421875 z m 0,0"
         style="fill:#00205c;fill-opacity:1;fill-rule:nonzero;stroke:none"
         aria-label="um Staitisticí agus Taighde"
         transform="matrix(1.3333333,0,0,1.3333333,241.11227,350.67693)" />
    </g>
    <g
       id="g26"
       style="fill:#ffffff;stroke:#00205c;stroke-opacity:1">
      <path
         id="path27"
         d="M 0,0 H 86.444"
         style="fill:#ffffff;stroke:#00205c;stroke-width:0.225;stroke-linecap:butt;stroke-linejoin:miter;stroke-miterlimit:4;stroke-dasharray:none;stroke-opacity:1"
         transform="matrix(1.3333333,0,0,-1.3333333,241.11227,335.39213)" />
    </g>
  </g>
</svg>
