<?xml version="1.0" encoding="UTF-8" standalone="no"?>
<!-- Created with Inkscape (http://www.inkscape.org/) -->

<svg
   version="1.1"
   id="svg1"
   width="123.43387"
   height="49.267124"
   viewBox="0 0 123.43387 49.267124"
   sodipodi:docname="Bilingual white logo.svg"
   inkscape:version="1.3.2 (091e20e, 2023-11-25, custom)"
   xmlns:inkscape="http://www.inkscape.org/namespaces/inkscape"
   xmlns:sodipodi="http://sodipodi.sourceforge.net/DTD/sodipodi-0.dtd"
   xmlns="http://www.w3.org/2000/svg"
   xmlns:svg="http://www.w3.org/2000/svg">
  <defs
     id="defs1">
    <clipPath
       clipPathUnits="userSpaceOnUse"
       id="clipPath26">
      <path
         d="M 0,0 H 595.276 V 419.528 H 0 Z"
         transform="translate(-452.97641,-258.43931)"
         id="path26" />
    </clipPath>
    <clipPath
       clipPathUnits="userSpaceOnUse"
       id="clipPath28">
      <path
         d="M 0,0 H 595.276 V 419.528 H 0 Z"
         transform="translate(-466.25161,-266.81571)"
         id="path28" />
    </clipPath>
    <clipPath
       clipPathUnits="userSpaceOnUse"
       id="clipPath30">
      <path
         d="M 0,0 H 595.276 V 419.528 H 0 Z"
         transform="translate(-472.34091,-275.48301)"
         id="path30" />
    </clipPath>
    <clipPath
       clipPathUnits="userSpaceOnUse"
       id="clipPath41">
      <path
         d="M 0,0 H 595.276 V 419.528 H 0 Z"
         transform="translate(-449.12091,-315.02701)"
         id="path41" />
    </clipPath>
    <clipPath
       clipPathUnits="userSpaceOnUse"
       id="clipPath43">
      <path
         d="M 0,0 H 595.276 V 419.528 H 0 Z"
         transform="translate(-462.44181,-323.43231)"
         id="path43" />
    </clipPath>
    <clipPath
       clipPathUnits="userSpaceOnUse"
       id="clipPath45">
      <path
         d="M 0,0 H 595.276 V 419.528 H 0 Z"
         transform="translate(-468.55211,-332.12941)"
         id="path45" />
    </clipPath>
  </defs>
  <sodipodi:namedview
     id="namedview1"
     pagecolor="#ffffff"
     bordercolor="#000000"
     borderopacity="0.25"
     inkscape:showpageshadow="2"
     inkscape:pageopacity="0.0"
     inkscape:pagecheckerboard="true"
     inkscape:deskcolor="#d1d1d1"
     inkscape:zoom="3.9288579"
     inkscape:cx="50.650851"
     inkscape:cy="73.940062"
     inkscape:window-width="1920"
     inkscape:window-height="991"
     inkscape:window-x="-9"
     inkscape:window-y="-9"
     inkscape:window-maximized="1"
     inkscape:current-layer="g1">
    <inkscape:page
       x="0"
       y="0"
       inkscape:label="2"
       id="page1"
       width="123.43387"
       height="49.267124"
       margin="0"
       bleed="0" />
  </sodipodi:namedview>
  <g
     id="g1"
     inkscape:groupmode="layer"
     inkscape:label="2"
     transform="translate(-598.82788,-111.39693)">
    <g
       id="g34"
       style="fill:#ffffff;fill-opacity:1">
      <path
         id="path35"
         d="M 2.1329203,-2.4597875 H 1.7813578 v 1.734375 C 1.6876078,-0.889475 1.6290141,-0.99494375 1.6290141,-1.0066625 L 0.76182656,-2.4597875 H 0.26963906 V 0.00115 h 0.3515625 v -1.8515625 c 0.0234375,0.046875 0.1171875,0.234375 0.140625,0.28125 L 1.7227641,0.00115 h 0.4101562 z m 2.0917969,1.546875 c 0,-0.4921875 -0.2929688,-0.9375 -0.84375,-0.9375 -0.5507813,0 -0.8554688,0.4335937 -0.8554688,0.9375 0,0.41015625 0.2226563,0.94921875 0.8320313,0.94921875 0.46875,0 0.8671875,-0.33984375 0.8671875,-0.94921875 z m -0.4453125,0 c 0,0.1875 -0.023437,0.609375 -0.4101563,0.609375 -0.4101562,0 -0.4101562,-0.515625 -0.4101562,-0.609375 0,-0.28125 0.082031,-0.609375 0.421875,-0.609375 0.3046875,0 0.3984375,0.2929687 0.3984375,0.609375 z M 4.6290141,0.00115 h 0.4101562 v -0.73828125 c 0,-0.28125005 0.070312,-0.45703125 0.140625,-0.53906255 0.1289063,-0.1523437 0.28125,-0.1523437 0.375,-0.1523437 V -1.87385 c -0.3867187,-0.011719 -0.515625,0.3632812 -0.5507812,0.4921875 v -0.4335938 h -0.375 z m 2.2851562,-0.31640625 c -0.046875,0 -0.070312,0 -0.1054687,0 -0.2109375,0 -0.2929688,-0.046875 -0.2929688,-0.29296875 V -1.49885 H 6.8790141 V -1.8152563 H 6.5157328 v -0.5039062 l -0.3398437,0.023437 -0.035156,0.4804687 H 5.8946391 V -1.49885 h 0.2226562 v 0.9375 c 0,0.2109375 0.011719,0.328125 0.1289063,0.45703125 0.082031,0.09375 0.2460937,0.140625 0.3867187,0.140625 0.070312,0 0.1875,-0.01171875 0.28125,-0.03515625 z M 7.2950297,0.00115 h 0.4101562 v -0.8671875 c 0,-0.2226563 0.023437,-0.3398438 0.082031,-0.46875 0.046875,-0.1171875 0.1875,-0.1992188 0.328125,-0.1992188 0.28125,0 0.28125,0.2695313 0.28125,0.421875 V 0.00115 h 0.4101562 v -1.171875 c 0,-0.5039063 -0.1757812,-0.7265625 -0.5625,-0.7265625 -0.375,0 -0.4921875,0.2929687 -0.5390625,0.3984375 V -2.4597875 H 7.2950297 Z M 10.491319,-0.57306875 C 10.444449,-0.47931875 10.374131,-0.2801 10.081163,-0.2801 9.9288188,-0.2801 9.8116313,-0.3386938 9.7413188,-0.4441625 9.63585,-0.59650625 9.63585,-0.73713125 9.6475688,-0.85431875 H 10.889756 C 10.901475,-1.3816625 10.6671,-1.8504125 10.069444,-1.8504125 c -0.5390627,0 -0.855469,0.4101562 -0.855469,0.94921875 0,0.45703125 0.234375,0.9375 0.84375,0.9375 0.351563,0 0.667969,-0.1640625 0.796875,-0.5625 z M 9.6475688,-1.12385 c 0.011719,-0.09375 0.011719,-0.1757813 0.082031,-0.2695313 0.070312,-0.1171875 0.1875,-0.1757812 0.3281252,-0.1757812 0.140625,0 0.246094,0.058594 0.316406,0.1640625 0.08203,0.1054687 0.08203,0.1875 0.08203,0.28125 z m 1.6523442,1.125 h 0.410156 v -0.73828125 c 0,-0.28125005 0.07031,-0.45703125 0.140625,-0.53906255 0.128906,-0.1523437 0.28125,-0.1523437 0.375,-0.1523437 V -1.87385 c -0.386719,-0.011719 -0.515625,0.3632812 -0.550781,0.4921875 v -0.4335938 h -0.375 z m 1.3125,0 h 0.410156 v -0.85546875 c 0,-0.62109375 0.316406,-0.64453125 0.398437,-0.64453125 0.07031,0 0.28125,0.011719 0.28125,0.4335937 V 0.00115 h 0.410157 v -1.078125 c 0,-0.234375 0.01172,-0.7734375 -0.574219,-0.7734375 -0.339844,0 -0.480469,0.3046875 -0.550781,0.4570312 v -0.421875 h -0.375 z m 3.606445,0 V -2.4597875 H 15.773545 V 0.00115 Z m 0.550781,0 h 0.410156 v -0.73828125 c 0,-0.28125005 0.07031,-0.45703125 0.140625,-0.53906255 0.128907,-0.1523437 0.28125,-0.1523437 0.375,-0.1523437 V -1.87385 c -0.386718,-0.011719 -0.515625,0.3632812 -0.550781,0.4921875 v -0.4335938 h -0.375 z m 2.416992,-0.57421875 c -0.04687,0.09375 -0.117187,0.29296875 -0.410156,0.29296875 -0.152344,0 -0.269531,-0.0585938 -0.339844,-0.1640625 -0.105468,-0.15234375 -0.105468,-0.29296875 -0.09375,-0.41015625 h 1.242188 c 0.01172,-0.52734375 -0.222656,-0.99609375 -0.820313,-0.99609375 -0.539062,0 -0.855468,0.4101562 -0.855468,0.94921875 0,0.45703125 0.234375,0.9375 0.84375,0.9375 0.351562,0 0.667968,-0.1640625 0.796875,-0.5625 z M 18.342881,-1.12385 c 0.01172,-0.09375 0.01172,-0.1757813 0.08203,-0.2695313 0.07031,-0.1171875 0.1875,-0.1757812 0.328125,-0.1757812 0.140625,0 0.246093,0.058594 0.316406,0.1640625 0.08203,0.1054687 0.08203,0.1875 0.08203,0.28125 z m 2.0625,1.125 V -2.4597875 H 19.995225 V 0.00115 Z m 2.030274,-1.1835938 c 0,-0.234375 0,-0.375 -0.1875,-0.5390625 -0.117188,-0.1054687 -0.351563,-0.1289062 -0.550782,-0.1289062 -0.375,0 -0.75,0.1054687 -0.820312,0.515625 l 0.351562,0.046875 c 0.01172,-0.082031 0.05859,-0.28125 0.421875,-0.28125 0.1875,0 0.386719,0.058594 0.386719,0.28125 v 0.140625 c -0.386719,-0.011719 -1.21875,0.011719 -1.21875,0.62109375 0,0.3046875 0.210938,0.5625 0.597656,0.5625 0.445313,0 0.5625,-0.26953125 0.621094,-0.41015625 0.01172,0.15234375 0.02344,0.22265625 0.07031,0.375 h 0.386718 c -0.02344,-0.05859375 -0.05859,-0.19921875 -0.05859,-0.375 z m -0.398438,0.42187505 c 0,0.140625 -0.07031,0.4921875 -0.480469,0.4921875 -0.292968,0 -0.316406,-0.2109375 -0.316406,-0.28125 0,-0.22265625 0.222656,-0.29296875 0.292969,-0.31640625 0.08203,-0.0234375 0.246094,-0.0585938 0.503906,-0.0585938 z M 22.962998,0.00115 h 0.410157 v -0.85546875 c 0,-0.62109375 0.316406,-0.64453125 0.398437,-0.64453125 0.07031,0 0.28125,0.011719 0.28125,0.4335937 V 0.00115 h 0.410156 v -1.078125 c 0,-0.234375 0.01172,-0.7734375 -0.574218,-0.7734375 -0.339844,0 -0.480469,0.3046875 -0.550782,0.4570312 v -0.421875 h -0.375 z m 3.521485,0 v -2.4609375 h -0.410156 v 0.890625 c -0.117188,-0.2695313 -0.304688,-0.328125 -0.480469,-0.328125 -0.5625,0 -0.714844,0.609375 -0.714844,0.9609375 0,0.19921875 0.05859,0.97265625 0.691406,0.97265625 0.363282,0 0.480469,-0.28125 0.539063,-0.3984375 V 0.00115 Z m -0.410156,-0.76171875 c 0,0.29296875 -0.199219,0.45703125 -0.386719,0.45703125 -0.363281,0 -0.375,-0.48046875 -0.375,-0.59765625 0,-0.16406255 0.02344,-0.64453125 0.386719,-0.64453125 0.105468,0 0.222656,0.046875 0.28125,0.140625 0.08203,0.1054687 0.09375,0.1757812 0.09375,0.328125 z m 0,0"
         style="fill:#ffffff;fill-opacity:1;fill-rule:nonzero;stroke:none"
         aria-label="Northern Ireland "
         transform="matrix(1.3333333,0,0,1.3333333,643.5272,142.12347)" />
    </g>
    <g
       id="g35"
       style="fill:#ffffff;fill-opacity:1">
      <path
         id="path36"
         d="m 0.01182656,-0.59862656 c 0.03515625,0.1171875 0.08203125,0.26953125 0.24609375,0.3984375 0.2109375,0.1640625 0.46875,0.234375 0.76171879,0.234375 0.5625,0 0.9726562,-0.28125 0.9726562,-0.7734375 0,-0.52734374 -0.421875,-0.64453124 -0.6328125,-0.70312504 l -0.42187499,-0.09375 c -0.1171875,-0.035156 -0.33984375,-0.1054687 -0.33984375,-0.3046875 0,-0.1171875 0.0820313,-0.3046875 0.42187504,-0.3046875 0.3515625,0 0.421875,0.1992188 0.4570312,0.28125 l 0.421875,-0.1054687 c -0.023437,-0.082031 -0.058594,-0.1992188 -0.2109375,-0.3164063 -0.1875,-0.1523437 -0.4335937,-0.2109375 -0.6679687,-0.2109375 -0.50390629,0 -0.87890629,0.2695313 -0.87890629,0.7265625 0,0.3164063 0.17578125,0.5742188 0.5390625,0.65625 l 0.55078129,0.14062504 c 0.1054687,0.0351563 0.2929687,0.09375 0.2929687,0.328125 0,0.10546875 -0.082031,0.328125 -0.4804687,0.328125 -0.0820313,0 -0.18750004,-0.0117188 -0.31640629,-0.0585938 -0.22265625,-0.0585938 -0.2578125,-0.22265625 -0.28125,-0.31640625 z m 3.21972654,0.28125 c -0.046875,0 -0.070312,0 -0.1054687,0 -0.2109375,0 -0.2929688,-0.046875 -0.2929688,-0.29296875 V -1.5009703 H 3.1963969 V -1.8173766 H 2.8331156 v -0.5039062 l -0.3398437,0.023437 -0.035156,0.4804687 h -0.246094 v 0.3164063 h 0.2226562 v 0.93749999 c 0,0.2109375 0.011719,0.328125 0.1289063,0.45703125 0.082031,0.09375 0.2460937,0.140625 0.3867187,0.140625 0.070312,0 0.1875,-0.01171875 0.28125,-0.0351562525 z M 5.1124125,-1.1845641 c 0,-0.234375 0,-0.375 -0.1875,-0.5390625 C 4.807725,-1.8290953 4.57335,-1.8525328 4.3741313,-1.8525328 c -0.375,0 -0.75,0.1054687 -0.8203125,0.515625 l 0.3515625,0.046875 c 0.011719,-0.082031 0.058594,-0.28125 0.421875,-0.28125 0.1875,0 0.3867187,0.058594 0.3867187,0.28125 v 0.140625 c -0.3867187,-0.011719 -1.21875,0.011719 -1.21875,0.62109374 0,0.3046875 0.2109375,0.5625 0.5976563,0.5625 0.4453125,0 0.5625,-0.26953125 0.6210937,-0.41015625 0.011719,0.15234375 0.023437,0.22265625 0.070312,0.3749999975 H 5.1710063 C 5.1475688,-0.05956406 5.1124125,-0.20018906 5.1124125,-0.37597031 Z M 4.713975,-0.76268906 c 0,0.140625 -0.070312,0.4921875 -0.4804687,0.4921875 -0.2929688,0 -0.3164063,-0.2109375 -0.3164063,-0.28125 0,-0.22265625 0.2226563,-0.29296875 0.2929688,-0.31640625 0.082031,-0.0234375 0.2460937,-0.0585938 0.5039062,-0.0585938 z m 1.7695313,0.4453125 c -0.046875,0 -0.070312,0 -0.1054688,0 -0.2109375,0 -0.2929687,-0.046875 -0.2929687,-0.29296875 V -1.5009703 H 6.44835 V -1.8173766 H 6.0850688 V -2.3212828 L 5.745225,-2.2978458 5.710069,-1.8173771 H 5.463975 v 0.3164063 h 0.2226563 v 0.93749999 c 0,0.2109375 0.011719,0.328125 0.1289062,0.45703125 0.082031,0.09375 0.2460938,0.140625 0.3867188,0.140625 0.070312,0 0.1875,-0.01171875 0.28125,-0.0351562525 z M 7.2745219,-9.703125e-4 V -1.8290953 H 6.8643656 v 1.8281249875 z m 0,-2.0390624875 v -0.421875 H 6.8643656 v 0.421875 z m 0.3076172,1.61718749 c 0.070312,0.26953125 0.3398437,0.45703125 0.7734375,0.45703125 0.2460937,0 0.796875,-0.08203125 0.796875,-0.59765625 0,-0.28125 -0.1640625,-0.45703129 -0.4570313,-0.51562499 l -0.3984375,-0.082031 c -0.140625,-0.035156 -0.2578125,-0.082031 -0.2578125,-0.1992187 0,-0.1171875 0.09375,-0.2109375 0.328125,-0.2109375 0.2578125,0 0.3046875,0.1523437 0.328125,0.2109375 l 0.3632813,-0.082031 c -0.1171875,-0.375 -0.4921875,-0.4101562 -0.703125,-0.4101562 -0.5976563,0 -0.703125,0.375 -0.703125,0.5742187 0,0.42187504 0.3867187,0.50390629 0.5507812,0.53906254 l 0.3398438,0.0585938 c 0.070312,0.0234375 0.1992187,0.0703125 0.1992187,0.1875 0,0.2109375 -0.2929687,0.22265625 -0.3867187,0.22265625 -0.2929688,0 -0.3515625,-0.140625 -0.3867188,-0.22265625 z m 2.7773439,0.10546875 c -0.04687,0 -0.07031,0 -0.105469,0 -0.210937,0 -0.2929687,-0.046875 -0.2929687,-0.29296875 V -1.5009703 H 10.324327 V -1.8173766 H 9.9610453 v -0.5039062 l -0.3398437,0.023437 -0.035156,0.4804687 h -0.246094 v 0.3164063 h 0.2226562 v 0.93749999 c 0,0.2109375 0.011719,0.328125 0.1289063,0.45703125 0.082031,0.09375 0.2460937,0.140625 0.3867189,0.140625 0.07031,0 0.1875,-0.01171875 0.28125,-0.0351562525 z m 0.788086,0.3164062475 V -1.8290953 h -0.410156 v 1.8281249875 z m 0,-2.0390624875 v -0.421875 h -0.410156 v 0.421875 z m 1.584961,1.37109374 c -0.05859,0.2109375 -0.164063,0.3515625 -0.363282,0.3515625 -0.375,0 -0.375,-0.50390625 -0.375,-0.57421875 0,-0.0820313 0.01172,-0.22265629 0.05859,-0.35156249 0.02344,-0.09375 0.105469,-0.28125 0.339844,-0.28125 0.175781,0 0.304687,0.1054687 0.339844,0.3398437 l 0.351562,-0.046875 c -0.02344,-0.140625 -0.117187,-0.6210937 -0.714844,-0.6210937 -0.527343,0 -0.808593,0.4453125 -0.808593,0.93749999 0,0.41015625 0.199218,0.94921875 0.773437,0.94921875 0.597656,0 0.714844,-0.50390625 0.75,-0.66796875 z m 0.477539,0.24609375 c 0.07031,0.26953125 0.339844,0.45703125 0.773437,0.45703125 0.246094,0 0.796875,-0.08203125 0.796875,-0.59765625 0,-0.28125 -0.164062,-0.45703129 -0.457031,-0.51562499 l -0.398437,-0.082031 C 13.784288,-1.1962823 13.6671,-1.2431573 13.6671,-1.360345 c 0,-0.1171875 0.09375,-0.2109375 0.328125,-0.2109375 0.257813,0 0.304688,0.1523437 0.328125,0.2109375 l 0.363281,-0.082031 c -0.117187,-0.375 -0.492187,-0.4101562 -0.703125,-0.4101562 -0.597656,0 -0.703125,0.375 -0.703125,0.5742187 0,0.42187504 0.386719,0.50390629 0.550782,0.53906254 l 0.339843,0.0585938 c 0.07031,0.0234375 0.199219,0.0703125 0.199219,0.1875 0,0.2109375 -0.292969,0.22265625 -0.386719,0.22265625 -0.292968,0 -0.351562,-0.140625 -0.386718,-0.22265625 z m 4.541015,-0.76171879 c 0,-0.234375 0,-0.375 -0.1875,-0.5390625 -0.117187,-0.1054687 -0.351562,-0.1289062 -0.550781,-0.1289062 -0.375,0 -0.75,0.1054687 -0.820312,0.515625 l 0.351562,0.046875 c 0.01172,-0.082031 0.05859,-0.28125 0.421875,-0.28125 0.1875,0 0.386719,0.058594 0.386719,0.28125 v 0.140625 c -0.386719,-0.011719 -1.21875,0.011719 -1.21875,0.62109374 0,0.3046875 0.210937,0.5625 0.597656,0.5625 0.445313,0 0.5625,-0.26953125 0.621094,-0.41015625 0.01172,0.15234375 0.02344,0.22265625 0.07031,0.3749999975 h 0.386719 C 17.786241,-0.05956406 17.751084,-0.20018906 17.751084,-0.37597031 Z m -0.398437,0.42187504 c 0,0.140625 -0.07031,0.4921875 -0.480469,0.4921875 -0.292969,0 -0.316406,-0.2109375 -0.316406,-0.28125 0,-0.22265625 0.222656,-0.29296875 0.292969,-0.31640625 0.08203,-0.0234375 0.246093,-0.0585938 0.503906,-0.0585938 z m 0.925781,0.7617187475 h 0.410156 V -0.85643906 c 0,-0.62109374 0.316407,-0.64453124 0.398438,-0.64453124 0.07031,0 0.28125,0.011719 0.28125,0.4335937 v 1.0664062875 h 0.410156 V -1.0790953 c 0,-0.234375 0.01172,-0.7734375 -0.574219,-0.7734375 -0.339843,0 -0.480468,0.3046875 -0.550781,0.4570312 v -0.421875 h -0.375 z m 3.518555,0 V -2.4619078 h -0.410156 v 0.890625 c -0.117188,-0.2695313 -0.304688,-0.328125 -0.480469,-0.328125 -0.5625,0 -0.714844,0.609375 -0.714844,0.96093749 0,0.19921875 0.05859,0.97265625 0.691406,0.97265625 0.363282,0 0.480469,-0.28125 0.539063,-0.3984375 V -9.703125e-4 Z M 21.386827,-0.76268906 c 0,0.29296875 -0.199219,0.45703125 -0.386719,0.45703125 -0.363281,0 -0.375,-0.48046875 -0.375,-0.59765625 0,-0.16406254 0.02344,-0.64453124 0.386719,-0.64453124 0.105468,0 0.222656,0.046875 0.28125,0.140625 0.08203,0.1054687 0.09375,0.1757812 0.09375,0.328125 z M 25.379991,-9.703125e-4 24.946397,-1.0908141 c 0.128906,-0.046875 0.445312,-0.1875 0.445312,-0.6445312 0,-0.2578125 -0.09375,-0.421875 -0.222656,-0.5390625 -0.152344,-0.1289063 -0.339844,-0.1875 -0.644531,-0.1875 h -1.066406 v 2.4609374875 h 0.445312 V -1.0087828 h 0.621094 l 0.386719,1.0078124875 z M 23.903428,-2.1103453 h 0.585938 c 0.316406,0 0.433593,0.1757812 0.433593,0.3632812 0,0.3046875 -0.246093,0.375 -0.46875,0.375 h -0.550781 z m 3.09961,1.53515624 c -0.04687,0.09375 -0.117188,0.29296875 -0.410157,0.29296875 -0.152343,0 -0.269531,-0.0585938 -0.339843,-0.1640625 -0.105469,-0.15234375 -0.105469,-0.29296875 -0.09375,-0.41015625 h 1.242187 c 0.01172,-0.52734374 -0.222656,-0.99609374 -0.820312,-0.99609374 -0.539063,0 -0.855469,0.4101562 -0.855469,0.94921874 0,0.45703125 0.234375,0.9375 0.84375,0.9375 0.351562,0 0.667969,-0.1640625 0.796875,-0.5625 z m -0.84375,-0.55078124 c 0.01172,-0.09375 0.01172,-0.1757813 0.08203,-0.2695313 0.07031,-0.1171875 0.1875,-0.1757812 0.328125,-0.1757812 0.140625,0 0.246094,0.058594 0.316406,0.1640625 0.08203,0.1054687 0.08203,0.1875 0.08203,0.28125 z m 1.429687,0.70312499 c 0.07031,0.26953125 0.339844,0.45703125 0.773438,0.45703125 0.246093,0 0.796875,-0.08203125 0.796875,-0.59765625 0,-0.28125 -0.164063,-0.45703129 -0.457032,-0.51562499 l -0.398437,-0.082031 c -0.140625,-0.035156 -0.257813,-0.082031 -0.257813,-0.1992187 0,-0.1171875 0.09375,-0.2109375 0.328125,-0.2109375 0.257813,0 0.304688,0.1523437 0.328125,0.2109375 l 0.363282,-0.082031 c -0.117188,-0.375 -0.492188,-0.4101562 -0.703125,-0.4101562 -0.597657,0 -0.703125,0.375 -0.703125,0.5742187 0,0.42187504 0.386718,0.50390629 0.550781,0.53906254 l 0.339844,0.0585938 c 0.07031,0.0234375 0.199218,0.0703125 0.199218,0.1875 0,0.2109375 -0.292968,0.22265625 -0.386718,0.22265625 -0.292969,0 -0.351563,-0.140625 -0.386719,-0.22265625 z m 3.09375,-0.15234375 c -0.04687,0.09375 -0.117187,0.29296875 -0.410156,0.29296875 -0.152344,0 -0.269531,-0.0585938 -0.339844,-0.1640625 -0.105469,-0.15234375 -0.105469,-0.29296875 -0.09375,-0.41015625 h 1.242188 c 0.01172,-0.52734374 -0.222657,-0.99609374 -0.820313,-0.99609374 -0.539062,0 -0.855469,0.4101562 -0.855469,0.94921874 0,0.45703125 0.234375,0.9375 0.84375,0.9375 0.351563,0 0.667969,-0.1640625 0.796875,-0.5625 z m -0.84375,-0.55078124 c 0.01172,-0.09375 0.01172,-0.1757813 0.08203,-0.2695313 0.07031,-0.1171875 0.1875,-0.1757812 0.328125,-0.1757812 0.140625,0 0.246094,0.058594 0.316407,0.1640625 0.08203,0.1054687 0.08203,0.1875 0.08203,0.28125 z m 3.152344,-0.058594 c 0,-0.234375 0,-0.375 -0.1875,-0.5390625 -0.117188,-0.1054687 -0.351563,-0.1289062 -0.550781,-0.1289062 -0.375,0 -0.75,0.1054687 -0.820313,0.515625 l 0.351563,0.046875 c 0.01172,-0.082031 0.05859,-0.28125 0.421875,-0.28125 0.1875,0 0.386718,0.058594 0.386718,0.28125 v 0.140625 c -0.386718,-0.011719 -1.21875,0.011719 -1.21875,0.62109374 0,0.3046875 0.210938,0.5625 0.597657,0.5625 0.445312,0 0.5625,-0.26953125 0.621093,-0.41015625 0.01172,0.15234375 0.02344,0.22265625 0.07031,0.3749999975 H 33.04991 C 33.026475,-0.05956406 32.991319,-0.20018906 32.991319,-0.37597031 Z m -0.398438,0.42187504 c 0,0.140625 -0.07031,0.4921875 -0.480468,0.4921875 -0.292969,0 -0.316407,-0.2109375 -0.316407,-0.28125 0,-0.22265625 0.222657,-0.29296875 0.292969,-0.31640625 0.08203,-0.0234375 0.246094,-0.0585938 0.503906,-0.0585938 z m 0.925782,0.7617187475 h 0.410156 V -0.73925156 c 0,-0.28125004 0.07031,-0.45703124 0.140625,-0.53906254 0.128906,-0.1523437 0.28125,-0.1523437 0.375,-0.1523437 v -0.4453125 c -0.386719,-0.011719 -0.515625,0.3632812 -0.550781,0.4921875 v -0.4335938 h -0.375 z M 35.830186,-0.66893906 c -0.05859,0.2109375 -0.164063,0.3515625 -0.363281,0.3515625 -0.375,0 -0.375,-0.50390625 -0.375,-0.57421875 0,-0.0820313 0.01172,-0.22265629 0.05859,-0.35156249 0.02344,-0.09375 0.105469,-0.28125 0.339844,-0.28125 0.175781,0 0.304688,0.1054687 0.339844,0.3398437 l 0.351562,-0.046875 c -0.02344,-0.140625 -0.117187,-0.6210937 -0.714843,-0.6210937 -0.527344,0 -0.808594,0.4453125 -0.808594,0.93749999 0,0.41015625 0.199219,0.94921875 0.773437,0.94921875 0.597657,0 0.714844,-0.50390625 0.75,-0.66796875 z m 0.700195,0.6679687475 h 0.410157 V -0.86815781 c 0,-0.22265629 0.02344,-0.33984379 0.08203,-0.46874999 0.04687,-0.1171875 0.1875,-0.1992188 0.328125,-0.1992188 0.28125,0 0.28125,0.2695313 0.28125,0.421875 V -9.703125e-4 H 38.0421 V -1.1728453 c 0,-0.5039063 -0.175781,-0.7265625 -0.5625,-0.7265625 -0.375,0 -0.492187,0.2929687 -0.539062,0.3984375 V -2.4619078 H 36.530381 Z M 40.798936,-2.4619078 h -0.539063 l -0.820312,2.4609374875 h 0.375 L 40.01378,-0.58690781 h 0.9375 l 0.199218,0.5859374975 h 0.480469 z m -0.679688,1.52343749 0.363282,-1.10156249 0.351562,1.10156249 z m 3.47754,-1.23046879 h -0.128907 c -0.117187,0 -0.210937,0.023437 -0.292968,0.082031 -0.08203,0.046875 -0.140625,0.140625 -0.175782,0.2695312 -0.09375,-0.023437 -0.1875,-0.035156 -0.351562,-0.035156 -0.632813,0 -0.75,0.3515625 -0.75,0.5390625 0,0.2578125 0.164062,0.36328124 0.257812,0.42187499 -0.09375,0.046875 -0.292968,0.15234375 -0.292968,0.38671875 0,0.12890625 0.07031,0.19921875 0.175781,0.29296875 -0.140625,0.0703125 -0.269531,0.15234375 -0.269531,0.375 0,0.375 0.398437,0.4921875 0.878906,0.4921875 0.773437,0 0.949219,-0.36328125 0.949219,-0.59765625 0,-0.24609375 -0.175782,-0.50390625 -0.621094,-0.50390625 h -0.46875 c -0.234375,0 -0.292969,-0.1171875 -0.292969,-0.17578125 0,-0.1171875 0.07031,-0.15234375 0.128906,-0.17578125 0.117188,0.0234375 0.210938,0.046875 0.339844,0.046875 0.433594,0 0.738281,-0.234375 0.738281,-0.56249999 0,-0.1992188 -0.117187,-0.3164063 -0.222656,-0.3984375 0.07031,-0.1054688 0.128906,-0.140625 0.269531,-0.140625 h 0.128907 z m -0.597657,0.8554688 c 0,0.09375 0,0.1757812 -0.105468,0.2578125 -0.05859,0.035156 -0.152344,0.0585937 -0.234375,0.0585937 -0.222657,0 -0.339844,-0.140625 -0.339844,-0.3046875 0,-0.1171875 0.08203,-0.2929687 0.351562,-0.2929687 0.257813,0 0.328125,0.1757812 0.328125,0.28125 z m -0.878906,1.37109374 c 0,-0.0585937525 0.02344,-0.09375 0.09375,-0.1640625 0.117188,0.046875 0.304688,0.046875 0.445313,0.046875 h 0.28125 c 0.128906,0 0.269531,0.0585937475 0.269531,0.1875 0,0.2109375 -0.292969,0.24609375 -0.46875,0.24609375 -0.09375,0 -0.222656,-0.0117188 -0.351563,-0.046875 -0.152343,-0.0351563 -0.269531,-0.15234375 -0.269531,-0.26953125 z m 2.917969,-0.6328125 c -0.04687,0.09375 -0.117188,0.29296875 -0.410156,0.29296875 -0.152344,0 -0.269532,-0.0585938 -0.339844,-0.1640625 -0.105469,-0.15234375 -0.105469,-0.29296875 -0.09375,-0.41015625 h 1.242187 c 0.01172,-0.52734374 -0.222656,-0.99609374 -0.820312,-0.99609374 -0.539063,0 -0.855469,0.4101562 -0.855469,0.94921874 0,0.45703125 0.234375,0.9375 0.84375,0.9375 0.351563,0 0.667969,-0.1640625 0.796875,-0.5625 z m -0.84375,-0.55078124 c 0.01172,-0.09375 0.01172,-0.1757813 0.08203,-0.2695313 0.07031,-0.1171875 0.1875,-0.1757812 0.328125,-0.1757812 0.140625,0 0.246094,0.058594 0.316406,0.1640625 0.08203,0.1054687 0.08203,0.1875 0.08203,0.28125 z m 1.652344,1.1249999875 h 0.410156 V -0.85643906 c 0,-0.62109374 0.316406,-0.64453124 0.398437,-0.64453124 0.07031,0 0.28125,0.011719 0.28125,0.4335937 v 1.0664062875 h 0.410157 V -1.0790953 c 0,-0.234375 0.01172,-0.7734375 -0.574219,-0.7734375 -0.339844,0 -0.480469,0.3046875 -0.550781,0.4570312 v -0.421875 h -0.375 z m 3.08789,-0.6679687475 c -0.05859,0.2109375 -0.164062,0.3515625 -0.363281,0.3515625 -0.375,0 -0.375,-0.50390625 -0.375,-0.57421875 0,-0.0820313 0.01172,-0.22265629 0.05859,-0.35156249 0.02344,-0.09375 0.105468,-0.28125 0.339843,-0.28125 0.175782,0 0.304688,0.1054687 0.339844,0.3398437 l 0.351563,-0.046875 c -0.02344,-0.140625 -0.117188,-0.6210937 -0.714844,-0.6210937 -0.527344,0 -0.808594,0.4453125 -0.808594,0.93749999 0,0.41015625 0.199219,0.94921875 0.773438,0.94921875 0.597656,0 0.714843,-0.50390625 0.75,-0.66796875 z m 2.05957,-1.14843754 h -0.328125 l -0.375,1.19531254 -0.445312,-1.19531254 h -0.433594 l 0.621094,1.71093754 c 0.01172,0.01171875 0.04687,0.09375 0.04687,0.1054687475 0,0.0468750025 -0.05859,0.2226562525 -0.117188,0.2695312525 -0.08203,0.0585938 -0.175781,0.0585938 -0.410156,0.046875 v 0.328125 c 0.128906,0.0117188 0.210938,0.0117188 0.234375,0.0117188 0.175781,0 0.375,-0.046875 0.503906,-0.3984375 z m 0,0"
         style="fill:#ffffff;fill-opacity:1;fill-rule:nonzero;stroke:none"
         aria-label="Statistics and Research Agency"
         transform="matrix(1.3333333,0,0,1.3333333,643.5272,147.0052)" />
    </g>
    <g
       id="g36"
       style="fill:#ffffff;fill-opacity:1">
      <path
         id="path37"
         d="M 2.1329203,-1.2531891 H 1.2071391 v 0.35156254 h 0.515625 c 0,0.36328125 -0.2460938,0.57421875 -0.5273438,0.57421875 -0.49218749,0 -0.58593749,-0.4921875 -0.58593749,-0.93749999 0,-0.3867188 0.09375,-0.5507813 0.17578125,-0.65625 0.0703125,-0.1054688 0.2109375,-0.2109375 0.42187504,-0.2109375 0.3984375,0 0.4921875,0.3515625 0.515625,0.4570312 l 0.3867187,-0.070312 c -0.035156,-0.117188 -0.058594,-0.2695317 -0.2109375,-0.4335942 -0.2226562,-0.2695313 -0.4804687,-0.3164063 -0.703125,-0.3164063 -0.79687499,0 -1.05468749,0.7265625 -1.05468749,1.265625 0,0.28125004 0.09375,1.26562504 0.99609379,1.26562504 0.2460937,0 0.4804687,-0.0703125 0.6679687,-0.36328125 l 0.140625,0.3281249975 h 0.1875 z M 2.6485453,7.171875e-4 H 3.0587016 V -0.85475156 c 0,-0.62109374 0.3164062,-0.64453124 0.3984375,-0.64453124 0.070312,0 0.28125,0.011719 0.28125,0.4335937 V 7.171875e-4 H 4.1485453 V -1.0774078 c 0,-0.234375 0.011719,-0.7734375 -0.5742187,-0.7734375 -0.3398438,0 -0.4804688,0.3046875 -0.5507813,0.4570312 v -0.421875 h -0.375 z m 2.4433594,0 V -1.8156891 H 4.6817484 V 7.171875e-4 Z M 5.2911234,-2.6828766 l -0.703125,0.3984375 0.082031,0.1875 0.75,-0.3164062 z m 1.913086,1.76953129 c 0,-0.49218749 -0.2929688,-0.93749999 -0.84375,-0.93749999 -0.5507813,0 -0.8554688,0.4335937 -0.8554688,0.93749999 0,0.41015625 0.2226563,0.94921875 0.8320313,0.94921875 0.46875,0 0.8671875,-0.33984375 0.8671875,-0.94921875 z m -0.4453125,0 c 0,0.1875 -0.023437,0.609375 -0.4101563,0.609375 -0.4101562,0 -0.4101562,-0.515625 -0.4101562,-0.609375 0,-0.28124999 0.082031,-0.60937499 0.421875,-0.60937499 0.3046875,0 0.3984375,0.2929687 0.3984375,0.60937499 z M 7.6085063,7.171875e-4 H 8.0421 V -0.88990781 c 0,-0.44531249 0.2109375,-0.59765629 0.4101563,-0.59765629 0.2578125,0 0.2929687,0.2109375 0.2929687,0.3515625 V 7.171875e-4 H 9.1788188 V -0.94850156 c 0,-0.39843754 0.1992187,-0.53906254 0.4101562,-0.53906254 0.2695313,0 0.3046875,0.1875 0.3046875,0.421875 V 7.171875e-4 H 10.327256 V -1.1828766 c 0,-0.3984375 -0.1875,-0.6679687 -0.5859372,-0.6679687 -0.3164063,0 -0.5039063,0.2226562 -0.5976563,0.421875 -0.046875,-0.1171875 -0.140625,-0.421875 -0.5273437,-0.421875 -0.3984375,0 -0.5273438,0.2695312 -0.609375,0.421875 V -1.8156891 H 7.6085063 Z m 3.2431637,0 h 0.410157 V -0.86647031 c 0,-0.22265629 0.02344,-0.33984379 0.08203,-0.46874999 0.04687,-0.1171875 0.1875,-0.1992188 0.328125,-0.1992188 0.28125,0 0.28125,0.2695313 0.28125,0.421875 V 7.171875e-4 h 0.410156 V -1.1711578 c 0,-0.5039063 -0.175781,-0.7265625 -0.5625,-0.7265625 -0.375,0 -0.492187,0.2929687 -0.539062,0.3984375 V -2.4602203 H 10.85167 Z M 14.387803,-1.1828766 c 0,-0.234375 0,-0.375 -0.1875,-0.5390625 -0.117187,-0.1054687 -0.351562,-0.1289062 -0.550781,-0.1289062 -0.375,0 -0.75,0.1054687 -0.820313,0.515625 l 0.351563,0.046875 c 0.01172,-0.082031 0.05859,-0.28125 0.421875,-0.28125 0.1875,0 0.386719,0.058594 0.386719,0.28125 v 0.140625 c -0.386719,-0.011719 -1.21875,0.011719 -1.21875,0.62109374 0,0.3046875 0.210937,0.5625 0.597656,0.5625 0.445312,0 0.5625,-0.26953125 0.621094,-0.41015625 0.01172,0.15234375 0.02344,0.22265625 0.07031,0.3749999975 h 0.386719 C 14.422959,-0.05787656 14.387803,-0.19850156 14.387803,-0.37428281 Z m -0.398437,0.42187504 c 0,0.140625 -0.07031,0.4921875 -0.480469,0.4921875 -0.292969,0 -0.316406,-0.2109375 -0.316406,-0.28125 0,-0.22265625 0.222656,-0.29296875 0.292968,-0.31640625 0.08203,-0.0234375 0.246094,-0.0585938 0.503907,-0.0585938 z M 15.325303,7.171875e-4 V -1.8274078 H 14.915147 V 7.171875e-4 Z m 0,-2.0390624875 v -0.421875 h -0.410156 v 0.421875 z m 0.530274,2.0390624875 h 0.410156 V -0.73756406 c 0,-0.28125004 0.07031,-0.45703124 0.140625,-0.53906254 0.128906,-0.1523437 0.28125,-0.1523437 0.375,-0.1523437 v -0.4453125 c -0.386719,-0.011719 -0.515625,0.3632812 -0.550781,0.4921875 v -0.4335938 h -0.375 z M 18.272569,-0.57350156 c -0.04687,0.09375 -0.117188,0.29296875 -0.410156,0.29296875 -0.152344,0 -0.269532,-0.0585938 -0.339844,-0.1640625 C 17.4171,-0.59693906 17.4171,-0.73756406 17.428819,-0.85475156 h 1.242187 c 0.01172,-0.52734374 -0.222656,-0.99609374 -0.820312,-0.99609374 -0.539063,0 -0.855469,0.4101562 -0.855469,0.94921874 0,0.45703125 0.234375,0.9375 0.84375,0.9375 0.351563,0 0.667969,-0.1640625 0.796875,-0.5625 z m -0.84375,-0.55078124 c 0.01172,-0.09375 0.01172,-0.1757813 0.08203,-0.2695313 0.07031,-0.1171875 0.1875,-0.1757812 0.328125,-0.1757812 0.140625,0 0.246094,0.058594 0.316406,0.1640625 0.08203,0.1054687 0.08203,0.1875 0.08203,0.28125 z m 3.152344,-0.058594 c 0,-0.234375 0,-0.375 -0.1875,-0.5390625 -0.117188,-0.1054687 -0.351563,-0.1289062 -0.550782,-0.1289062 -0.375,0 -0.75,0.1054687 -0.820312,0.515625 l 0.351562,0.046875 c 0.01172,-0.082031 0.05859,-0.28125 0.421875,-0.28125 0.1875,0 0.386719,0.058594 0.386719,0.28125 v 0.140625 c -0.386719,-0.011719 -1.21875,0.011719 -1.21875,0.62109374 0,0.3046875 0.210938,0.5625 0.597656,0.5625 0.445313,0 0.5625,-0.26953125 0.621094,-0.41015625 0.01172,0.15234375 0.02344,0.22265625 0.07031,0.3749999975 h 0.386718 C 20.616319,-0.05787656 20.581163,-0.19850156 20.581163,-0.37428281 Z m -0.398438,0.42187504 c 0,0.140625 -0.07031,0.4921875 -0.480469,0.4921875 -0.292968,0 -0.316406,-0.2109375 -0.316406,-0.28125 0,-0.22265625 0.222656,-0.29296875 0.292969,-0.31640625 0.08203,-0.0234375 0.246094,-0.0585938 0.503906,-0.0585938 z m 1.980469,0.09375 c -0.05859,0.2109375 -0.164063,0.3515625 -0.363281,0.3515625 -0.375,0 -0.375,-0.50390625 -0.375,-0.57421875 0,-0.0820313 0.01172,-0.22265629 0.05859,-0.35156249 0.02344,-0.09375 0.105469,-0.28125 0.339844,-0.28125 0.175781,0 0.304688,0.1054687 0.339844,0.3398437 l 0.351562,-0.046875 c -0.02344,-0.140625 -0.117187,-0.6210937 -0.714843,-0.6210937 -0.527344,0 -0.808594,0.4453125 -0.808594,0.93749999 0,0.41015625 0.199219,0.94921875 0.773437,0.94921875 0.597657,0 0.714844,-0.50390625 0.75,-0.66796875 z m 0.700195,0.6679687475 h 0.410156 V -0.86647031 c 0,-0.22265629 0.02344,-0.33984379 0.08203,-0.46874999 0.04687,-0.1171875 0.1875,-0.1992188 0.328125,-0.1992188 0.28125,0 0.28125,0.2695313 0.28125,0.421875 V 7.171875e-4 h 0.410156 V -1.1711578 c 0,-0.5039063 -0.175781,-0.7265625 -0.5625,-0.7265625 -0.375,0 -0.492188,0.2929687 -0.539063,0.3984375 V -2.4602203 H 22.863389 Z M 25.743272,-0.31568906 c -0.04687,0 -0.07031,0 -0.105469,0 -0.210937,0 -0.292969,-0.046875 -0.292969,-0.29296875 V -1.4992828 h 0.363282 v -0.3164063 h -0.363282 v -0.5039062 l -0.339843,0.023437 -0.03516,0.4804687 h -0.246093 v 0.3164063 h 0.222656 v 0.93749999 c 0,0.2109375 0.01172,0.328125 0.128906,0.45703125 0.08203,0.09375 0.246094,0.140625 0.386719,0.140625 0.07031,0 0.1875,-0.01171875 0.28125,-0.0351562525 z M 28.10753,7.171875e-4 V -2.0852203 h 0.65625 v -0.375 h -1.78125 v 0.375 h 0.65625 V 7.171875e-4 Z m 0.940429,0 h 0.410157 V -0.86647031 c 0,-0.22265629 0.02344,-0.33984379 0.08203,-0.46874999 0.04687,-0.1171875 0.1875,-0.1992188 0.328125,-0.1992188 0.28125,0 0.28125,0.2695313 0.28125,0.421875 V 7.171875e-4 h 0.410156 V -1.1711578 c 0,-0.5039063 -0.175781,-0.7265625 -0.5625,-0.7265625 -0.375,0 -0.492187,0.2929687 -0.539062,0.3984375 V -2.4602203 H 29.047959 Z M 32.581163,-1.8156891 h -0.410157 v 0.86718754 c 0,0.17578125 -0.01172,0.26953125 -0.05859,0.375 -0.05859,0.1640625 -0.222657,0.2578125 -0.351563,0.2578125 -0.199219,0 -0.257812,-0.15234375 -0.257812,-0.3515625 V -1.8156891 h -0.421875 v 1.26562504 c 0,0.17578125 0.02344,0.24609375 0.09375,0.36328125 0.105468,0.1640625 0.28125,0.22265625 0.445312,0.22265625 0.199219,0 0.316406,-0.08203125 0.386719,-0.12890625 0.117187,-0.10546875 0.152344,-0.19921875 0.1875,-0.29296875 V 7.171875e-4 h 0.386719 z m 2.024414,0.6328125 c 0,-0.234375 0,-0.375 -0.1875,-0.5390625 -0.117188,-0.1054687 -0.351563,-0.1289062 -0.550782,-0.1289062 -0.375,0 -0.75,0.1054687 -0.820312,0.515625 l 0.351562,0.046875 c 0.01172,-0.082031 0.05859,-0.28125 0.421875,-0.28125 0.1875,0 0.386719,0.058594 0.386719,0.28125 v 0.140625 c -0.386719,-0.011719 -1.21875,0.011719 -1.21875,0.62109374 0,0.3046875 0.210938,0.5625 0.597656,0.5625 0.445313,0 0.5625,-0.26953125 0.621094,-0.41015625 0.01172,0.15234375 0.02344,0.22265625 0.07031,0.3749999975 H 34.66417 C 34.640733,-0.05787656 34.605577,-0.19850156 34.605577,-0.37428281 Z m -0.398438,0.42187504 c 0,0.140625 -0.07031,0.4921875 -0.480469,0.4921875 -0.292968,0 -0.316406,-0.2109375 -0.316406,-0.28125 0,-0.22265625 0.222656,-0.29296875 0.292969,-0.31640625 0.08203,-0.0234375 0.246094,-0.0585938 0.503906,-0.0585938 z M 35.543077,7.171875e-4 V -1.8274078 H 35.13292 V 7.171875e-4 Z m 0,-2.0390624875 v -0.421875 H 35.13292 v 0.421875 z m 0.307617,1.61718749 c 0.07031,0.26953125 0.339844,0.45703125 0.773437,0.45703125 0.246094,0 0.796875,-0.08203125 0.796875,-0.59765625 0,-0.28125 -0.164062,-0.45703129 -0.457031,-0.51562499 l -0.398437,-0.082031 c -0.140625,-0.035156 -0.257813,-0.082031 -0.257813,-0.1992187 0,-0.1171875 0.09375,-0.2109375 0.328125,-0.2109375 0.257813,0 0.304688,0.1523437 0.328125,0.2109375 l 0.363281,-0.082031 c -0.117187,-0.375 -0.492187,-0.4101562 -0.703125,-0.4101562 -0.597656,0 -0.703125,0.375 -0.703125,0.5742187 0,0.42187504 0.386719,0.50390629 0.550782,0.53906254 l 0.339843,0.0585938 c 0.07031,0.0234375 0.199219,0.0703125 0.199219,0.1875 0,0.2109375 -0.292969,0.22265625 -0.386719,0.22265625 -0.292968,0 -0.351562,-0.140625 -0.386718,-0.22265625 z m 2.988281,-0.24609375 c -0.05859,0.2109375 -0.164062,0.3515625 -0.363281,0.3515625 -0.375,0 -0.375,-0.50390625 -0.375,-0.57421875 0,-0.0820313 0.01172,-0.22265629 0.05859,-0.35156249 0.02344,-0.09375 0.105468,-0.28125 0.339843,-0.28125 0.175782,0 0.304688,0.1054687 0.339844,0.3398437 l 0.351563,-0.046875 c -0.02344,-0.140625 -0.117188,-0.6210937 -0.714844,-0.6210937 -0.527344,0 -0.808594,0.4453125 -0.808594,0.93749999 0,0.41015625 0.199219,0.94921875 0.773438,0.94921875 0.597656,0 0.714843,-0.50390625 0.75,-0.66796875 z m 1.860352,0.09375 c -0.04687,0.09375 -0.117188,0.29296875 -0.410157,0.29296875 -0.152343,0 -0.269531,-0.0585938 -0.339843,-0.1640625 -0.105469,-0.15234375 -0.105469,-0.29296875 -0.09375,-0.41015625 h 1.242187 c 0.01172,-0.52734374 -0.222656,-0.99609374 -0.820312,-0.99609374 -0.539063,0 -0.855469,0.4101562 -0.855469,0.94921874 0,0.45703125 0.234375,0.9375 0.84375,0.9375 0.351562,0 0.667969,-0.1640625 0.796875,-0.5625 z m -0.84375,-0.55078124 c 0.01172,-0.09375 0.01172,-0.1757813 0.08203,-0.2695313 0.07031,-0.1171875 0.1875,-0.1757812 0.328125,-0.1757812 0.140625,0 0.246094,0.058594 0.316406,0.1640625 0.08203,0.1054687 0.08203,0.1875 0.08203,0.28125 z m 3.152343,-0.058594 c 0,-0.234375 0,-0.375 -0.1875,-0.5390625 -0.117187,-0.1054687 -0.351562,-0.1289062 -0.550781,-0.1289062 -0.375,0 -0.75,0.1054687 -0.820312,0.515625 l 0.351562,0.046875 c 0.01172,-0.082031 0.05859,-0.28125 0.421875,-0.28125 0.1875,0 0.386719,0.058594 0.386719,0.28125 v 0.140625 c -0.386719,-0.011719 -1.21875,0.011719 -1.21875,0.62109374 0,0.3046875 0.210937,0.5625 0.597656,0.5625 0.445313,0 0.5625,-0.26953125 0.621094,-0.41015625 0.01172,0.15234375 0.02344,0.22265625 0.07031,0.3749999975 h 0.386719 C 43.043077,-0.05787656 43.00792,-0.19850156 43.00792,-0.37428281 Z m -0.398437,0.42187504 c 0,0.140625 -0.07031,0.4921875 -0.480469,0.4921875 -0.292969,0 -0.316406,-0.2109375 -0.316406,-0.28125 0,-0.22265625 0.222656,-0.29296875 0.292969,-0.31640625 0.08203,-0.0234375 0.246093,-0.0585938 0.503906,-0.0585938 z M 43.535264,7.171875e-4 H 43.94542 V -0.73756406 c 0,-0.28125004 0.07031,-0.45703124 0.140625,-0.53906254 0.128907,-0.1523437 0.28125,-0.1523437 0.375,-0.1523437 v -0.4453125 c -0.386718,-0.011719 -0.515625,0.3632812 -0.550781,0.4921875 v -0.4335938 h -0.375 z M 45.82042,-0.31568906 c -0.04687,0 -0.07031,0 -0.105468,0 -0.210938,0 -0.292969,-0.046875 -0.292969,-0.29296875 V -1.4992828 h 0.363281 v -0.3164063 h -0.363281 v -0.5039062 l -0.339844,0.023437 -0.03516,0.4804687 h -0.246094 v 0.3164063 h 0.222656 v 0.93749999 c 0,0.2109375 0.01172,0.328125 0.128907,0.45703125 0.08203,0.09375 0.246093,0.140625 0.386718,0.140625 0.07031,0 0.1875,-0.01171875 0.28125,-0.0351562525 z M 48.925889,7.171875e-4 V -0.37428281 H 47.777452 V -1.0656891 h 0.914062 V -1.4289703 H 47.777452 V -2.0969391 H 48.91417 V -2.4602203 H 47.332139 V 7.171875e-4 Z m -0.28125,-3.2226562875 -0.738281,0.3515625 0.07031,0.1875 0.773438,-0.2578125 z M 49.734483,7.171875e-4 V -1.8274078 H 49.324327 V 7.171875e-4 Z m 0,-2.0390624875 v -0.421875 h -0.410156 v 0.421875 z m 0.530273,2.0390624875 h 0.410157 V -0.73756406 c 0,-0.28125004 0.07031,-0.45703124 0.140625,-0.53906254 0.128906,-0.1523437 0.28125,-0.1523437 0.375,-0.1523437 v -0.4453125 c -0.386719,-0.011719 -0.515625,0.3632812 -0.550782,0.4921875 v -0.4335938 h -0.375 z M 52.681748,-0.57350156 c -0.04687,0.09375 -0.117187,0.29296875 -0.410156,0.29296875 -0.152344,0 -0.269531,-0.0585938 -0.339844,-0.1640625 -0.105468,-0.15234375 -0.105468,-0.29296875 -0.09375,-0.41015625 h 1.242188 c 0.01172,-0.52734374 -0.222656,-0.99609374 -0.820313,-0.99609374 -0.539062,0 -0.855468,0.4101562 -0.855468,0.94921874 0,0.45703125 0.234375,0.9375 0.84375,0.9375 0.351562,0 0.667968,-0.1640625 0.796875,-0.5625 z m -0.84375,-0.55078124 c 0.01172,-0.09375 0.01172,-0.1757813 0.08203,-0.2695313 0.07031,-0.1171875 0.1875,-0.1757812 0.328125,-0.1757812 0.140625,0 0.246093,0.058594 0.316406,0.1640625 0.08203,0.1054687 0.08203,0.1875 0.08203,0.28125 z m 3.152344,-0.058594 c 0,-0.234375 0,-0.375 -0.1875,-0.5390625 -0.117187,-0.1054687 -0.351562,-0.1289062 -0.550781,-0.1289062 -0.375,0 -0.75,0.1054687 -0.820313,0.515625 l 0.351563,0.046875 c 0.01172,-0.082031 0.05859,-0.28125 0.421875,-0.28125 0.1875,0 0.386719,0.058594 0.386719,0.28125 v 0.140625 c -0.386719,-0.011719 -1.21875,0.011719 -1.21875,0.62109374 0,0.3046875 0.210937,0.5625 0.597656,0.5625 0.445312,0 0.5625,-0.26953125 0.621094,-0.41015625 0.01172,0.15234375 0.02344,0.22265625 0.07031,0.3749999975 h 0.386719 C 55.025498,-0.05787656 54.990342,-0.19850156 54.990342,-0.37428281 Z m -0.398437,0.42187504 c 0,0.140625 -0.07031,0.4921875 -0.480469,0.4921875 -0.292969,0 -0.316406,-0.2109375 -0.316406,-0.28125 0,-0.22265625 0.222656,-0.29296875 0.292968,-0.31640625 0.08203,-0.0234375 0.246094,-0.0585938 0.503907,-0.0585938 z m 0.925781,0.7617187475 h 0.410156 V -0.85475156 c 0,-0.62109374 0.316406,-0.64453124 0.398438,-0.64453124 0.07031,0 0.28125,0.011719 0.28125,0.4335937 V 7.171875e-4 h 0.410156 V -1.0774078 c 0,-0.234375 0.01172,-0.7734375 -0.574219,-0.7734375 -0.339844,0 -0.480469,0.3046875 -0.550781,0.4570312 v -0.421875 h -0.375 z m 2.033203,0 h 0.410156 V -0.85475156 c 0,-0.62109374 0.316407,-0.64453124 0.398438,-0.64453124 0.07031,0 0.28125,0.011719 0.28125,0.4335937 V 7.171875e-4 h 0.410156 V -1.0774078 c 0,-0.234375 0.01172,-0.7734375 -0.574219,-0.7734375 -0.339843,0 -0.480468,0.3046875 -0.550781,0.4570312 v -0.421875 h -0.375 z m 0,0"
         style="fill:#ffffff;fill-opacity:1;fill-rule:nonzero;stroke:none"
         aria-label="Gníomhaireacht Thuaisceart Éireann"
         transform="matrix(1.3333333,0,0,1.3333333,643.5272,154.9092)" />
    </g>
    <g
       id="g37"
       style="fill:#ffffff;fill-opacity:1">
      <path
         id="path38"
         d="M 1.7462016,-1.8178094 H 1.3360453 v 0.86718753 c 0,0.17578125 -0.011719,0.26953125 -0.058594,0.375 -0.058594,0.1640625 -0.2226563,0.2578125 -0.35156254,0.2578125 -0.19921875,0 -0.2578125,-0.15234375 -0.2578125,-0.3515625 V -1.8178094 h -0.421875 v 1.26562503 c 0,0.17578125 0.0234375,0.24609375 0.09375,0.36328125 0.10546875,0.1640625 0.28125,0.22265625 0.4453125,0.22265625 0.19921875,0 0.31640624,-0.08203125 0.38671874,-0.12890625 0.1171875,-0.10546875 0.1523438,-0.19921875 0.1875,-0.29296875 v 0.38671875 h 0.3867188 z m 0.524414,1.81640628 h 0.4335938 v -0.890625 c 0,-0.44531248 0.2109375,-0.59765628 0.4101562,-0.59765628 0.2578125,0 0.2929688,0.2109375 0.2929688,0.3515625 v 1.13671878 h 0.4335937 v -0.94921875 c 0,-0.39843753 0.1992188,-0.53906253 0.4101563,-0.53906253 0.2695312,0 0.3046875,0.1875 0.3046875,0.421875 v 1.06640628 H 4.9893656 V -1.1849969 c 0,-0.3984375 -0.1875,-0.6679687 -0.5859375,-0.6679687 -0.3164062,0 -0.5039062,0.2226562 -0.5976562,0.421875 -0.046875,-0.1171875 -0.140625,-0.421875 -0.5273438,-0.421875 -0.3984375,0 -0.5273437,0.2695312 -0.609375,0.421875 V -1.8178094 H 2.2706156 Z m 4.116211,-0.59765625 c 0.035156,0.1171875 0.082031,0.26953125 0.2460937,0.3984375 0.2109375,0.1640625 0.46875,0.234375 0.7617188,0.234375 0.5625,0 0.9726562,-0.28125 0.9726562,-0.7734375 0,-0.52734373 -0.421875,-0.64453123 -0.6328125,-0.70312503 l -0.421875,-0.09375 c -0.1171875,-0.035156 -0.3398437,-0.1054687 -0.3398437,-0.3046875 0,-0.1171875 0.082031,-0.3046875 0.421875,-0.3046875 0.3515625,0 0.421875,0.1992188 0.4570312,0.28125 l 0.421875,-0.1054687 c -0.023437,-0.082031 -0.058594,-0.1992188 -0.2109375,-0.3164063 -0.1875,-0.1523437 -0.4335937,-0.2109375 -0.6679687,-0.2109375 -0.5039063,0 -0.8789063,0.2695313 -0.8789063,0.7265625 0,0.3164063 0.1757813,0.5742188 0.5390625,0.65625 l 0.5507813,0.14062503 c 0.1054687,0.0351563 0.2929687,0.09375 0.2929687,0.328125 0,0.10546875 -0.082031,0.328125 -0.4804687,0.328125 -0.082031,0 -0.1875,-0.0117188 -0.3164063,-0.0585938 -0.2226562,-0.0585938 -0.2578125,-0.22265625 -0.28125,-0.31640625 z m 3.2197265,0.28125 c -0.046875,0 -0.070312,0 -0.1054687,0 -0.2109375,0 -0.2929688,-0.046875 -0.2929688,-0.29296875 V -1.5014031 H 9.5713969 V -1.8178094 H 9.2081156 v -0.5039062 l -0.3398437,0.023437 -0.035156,0.4804687 h -0.246094 v 0.3164063 h 0.2226562 v 0.93749998 c 0,0.2109375 0.011719,0.328125 0.1289063,0.45703125 0.082031,0.09375 0.2460937,0.140625 0.3867187,0.140625 0.070312,0 0.1875,-0.01171875 0.28125,-0.03515625 z M 11.487413,-1.1849969 c 0,-0.234375 0,-0.375 -0.1875,-0.5390625 -0.117188,-0.1054687 -0.351563,-0.1289062 -0.550782,-0.1289062 -0.375,0 -0.7499997,0.1054687 -0.8203122,0.515625 l 0.3515622,0.046875 c 0.01172,-0.082031 0.05859,-0.28125 0.421875,-0.28125 0.1875,0 0.386719,0.058594 0.386719,0.28125 v 0.140625 c -0.386719,-0.011719 -1.21875,0.011719 -1.21875,0.62109373 0,0.3046875 0.210938,0.5625 0.597656,0.5625 0.445313,0 0.5625,-0.26953125 0.621094,-0.41015625 0.01172,0.15234375 0.02344,0.22265625 0.07031,0.375 h 0.386718 c -0.02344,-0.05859375 -0.05859,-0.19921875 -0.05859,-0.375 z m -0.398438,0.42187503 c 0,0.140625 -0.07031,0.4921875 -0.480469,0.4921875 -0.292968,0 -0.316406,-0.2109375 -0.316406,-0.28125 0,-0.22265625 0.222656,-0.29296875 0.292969,-0.31640625 0.08203,-0.0234375 0.246094,-0.0585938 0.503906,-0.0585938 z m 1.335938,0.76171875 V -1.8295281 h -0.410157 v 1.82812498 z m 0,-2.03906248 v -0.421875 h -0.410157 v 0.421875 z m 1.374023,1.72265623 c -0.04687,0 -0.07031,0 -0.105469,0 -0.210937,0 -0.292969,-0.046875 -0.292969,-0.29296875 V -1.5014031 h 0.363282 v -0.3164063 h -0.363282 v -0.5039062 l -0.339843,0.023437 -0.03516,0.4804687 h -0.246093 v 0.3164063 h 0.222656 v 0.93749998 c 0,0.2109375 0.01172,0.328125 0.128906,0.45703125 0.08203,0.09375 0.246094,0.140625 0.386719,0.140625 0.07031,0 0.1875,-0.01171875 0.28125,-0.03515625 z m 0.791016,0.31640625 V -1.8295281 h -0.410157 v 1.82812498 z m 0,-2.03906248 v -0.421875 h -0.410157 v 0.421875 z m 0.304687,1.61718748 c 0.07031,0.26953125 0.339844,0.45703125 0.773438,0.45703125 0.246093,0 0.796875,-0.08203125 0.796875,-0.59765625 0,-0.28125 -0.164063,-0.45703128 -0.457032,-0.51562498 l -0.398437,-0.082031 c -0.140625,-0.035156 -0.257813,-0.082031 -0.257813,-0.1992187 0,-0.1171875 0.09375,-0.2109375 0.328125,-0.2109375 0.257813,0 0.304688,0.1523437 0.328125,0.2109375 l 0.363282,-0.082031 c -0.117188,-0.375 -0.492188,-0.4101562 -0.703125,-0.4101562 -0.597657,0 -0.703125,0.375 -0.703125,0.5742187 0,0.42187503 0.386718,0.50390628 0.550781,0.53906253 l 0.339844,0.0585938 c 0.07031,0.0234375 0.199218,0.0703125 0.199218,0.1875 0,0.2109375 -0.292968,0.22265625 -0.386718,0.22265625 -0.292969,0 -0.351563,-0.140625 -0.386719,-0.22265625 z m 2.777344,0.10546875 c -0.04687,0 -0.07031,0 -0.105469,0 -0.210937,0 -0.292969,-0.046875 -0.292969,-0.29296875 V -1.5014031 h 0.363282 v -0.3164063 h -0.363282 v -0.5039062 l -0.339843,0.023437 -0.03516,0.4804687 h -0.246093 v 0.3164063 h 0.222656 v 0.93749998 c 0,0.2109375 0.01172,0.328125 0.128906,0.45703125 0.08203,0.09375 0.246094,0.140625 0.386719,0.140625 0.07031,0 0.1875,-0.01171875 0.28125,-0.03515625 z m 0.791015,0.31640625 V -1.8295281 h -0.410156 v 1.82812498 z m 0,-2.03906248 v -0.421875 h -0.410156 v 0.421875 z m 1.584961,1.37109373 c -0.05859,0.2109375 -0.164062,0.3515625 -0.363281,0.3515625 -0.375,0 -0.375,-0.50390625 -0.375,-0.57421875 0,-0.0820313 0.01172,-0.22265628 0.05859,-0.35156248 0.02344,-0.09375 0.105469,-0.28125 0.339844,-0.28125 0.175781,0 0.304687,0.1054687 0.339843,0.3398437 l 0.351563,-0.046875 c -0.02344,-0.140625 -0.117188,-0.6210937 -0.714844,-0.6210937 -0.527344,0 -0.808594,0.4453125 -0.808594,0.93749998 0,0.41015625 0.199219,0.94921875 0.773438,0.94921875 0.597656,0 0.714844,-0.50390625 0.75,-0.66796875 z m 1.110352,0.66796875 V -1.8178094 h -0.410156 v 1.81640628 z m 0.199219,-2.68359378 -0.703125,0.3984375 0.08203,0.1875 0.75,-0.3164062 z m 2.938476,1.5 c 0,-0.234375 0,-0.375 -0.1875,-0.5390625 -0.117187,-0.1054687 -0.351562,-0.1289062 -0.550781,-0.1289062 -0.375,0 -0.75,0.1054687 -0.820312,0.515625 l 0.351562,0.046875 c 0.01172,-0.082031 0.05859,-0.28125 0.421875,-0.28125 0.1875,0 0.386719,0.058594 0.386719,0.28125 v 0.140625 c -0.386719,-0.011719 -1.21875,0.011719 -1.21875,0.62109373 0,0.3046875 0.210937,0.5625 0.597656,0.5625 0.445313,0 0.5625,-0.26953125 0.621094,-0.41015625 0.01172,0.15234375 0.02344,0.22265625 0.07031,0.375 H 24.3546 c -0.02344,-0.05859375 -0.05859,-0.19921875 -0.05859,-0.375 z m -0.398437,0.42187503 c 0,0.140625 -0.07031,0.4921875 -0.480469,0.4921875 -0.292969,0 -0.316406,-0.2109375 -0.316406,-0.28125 0,-0.22265625 0.222656,-0.29296875 0.292969,-0.31640625 0.08203,-0.0234375 0.246093,-0.0585938 0.503906,-0.0585938 z m 2.589844,-1.40625003 h -0.128907 c -0.117187,0 -0.210937,0.023437 -0.292968,0.082031 -0.08203,0.046875 -0.140625,0.140625 -0.175782,0.2695312 -0.09375,-0.023437 -0.1875,-0.035156 -0.351562,-0.035156 -0.632813,0 -0.75,0.3515625 -0.75,0.5390625 0,0.2578125 0.164062,0.36328123 0.257812,0.42187498 -0.09375,0.046875 -0.292968,0.15234375 -0.292968,0.38671875 0,0.12890625 0.07031,0.19921875 0.175781,0.29296875 -0.140625,0.0703125 -0.269531,0.15234375 -0.269531,0.375 0,0.375 0.398437,0.4921875 0.878906,0.4921875 0.773437,0 0.949219,-0.36328125 0.949219,-0.59765625 0,-0.24609375 -0.175782,-0.50390625 -0.621094,-0.50390625 h -0.46875 c -0.234375,0 -0.292969,-0.1171875 -0.292969,-0.17578125 0,-0.1171875 0.07031,-0.15234375 0.128906,-0.17578125 0.117188,0.0234375 0.210938,0.046875 0.339844,0.046875 0.433594,0 0.738281,-0.234375 0.738281,-0.56249998 0,-0.1992188 -0.117187,-0.3164063 -0.222656,-0.3984375 0.07031,-0.1054688 0.128906,-0.140625 0.269531,-0.140625 h 0.128907 z m -0.597657,0.8554688 c 0,0.09375 0,0.1757812 -0.105468,0.2578125 -0.05859,0.035156 -0.152344,0.0585937 -0.234375,0.0585937 -0.222657,0 -0.339844,-0.140625 -0.339844,-0.3046875 0,-0.1171875 0.08203,-0.2929687 0.351562,-0.2929687 0.257813,0 0.328125,0.1757812 0.328125,0.28125 z M 25.01085,0.05719063 c 0,-0.05859375 0.02344,-0.09375 0.09375,-0.1640625 0.117188,0.046875 0.304688,0.046875 0.445313,0.046875 h 0.28125 c 0.128906,0 0.269531,0.05859375 0.269531,0.1875 0,0.2109375 -0.292969,0.24609375 -0.46875,0.24609375 -0.09375,0 -0.222656,-0.0117188 -0.351563,-0.046875 C 25.128038,0.29156563 25.01085,0.17437813 25.01085,0.05719063 Z m 3.257813,-1.87500003 h -0.410157 v 0.86718753 c 0,0.17578125 -0.01172,0.26953125 -0.05859,0.375 -0.05859,0.1640625 -0.222657,0.2578125 -0.351563,0.2578125 -0.199219,0 -0.257812,-0.15234375 -0.257812,-0.3515625 V -1.8178094 h -0.421875 v 1.26562503 c 0,0.17578125 0.02344,0.24609375 0.09375,0.36328125 0.105468,0.1640625 0.28125,0.22265625 0.445312,0.22265625 0.199219,0 0.316406,-0.08203125 0.386719,-0.12890625 0.117187,-0.10546875 0.152344,-0.19921875 0.1875,-0.29296875 v 0.38671875 h 0.386719 z m 0.301757,1.39453128 c 0.07031,0.26953125 0.339844,0.45703125 0.773438,0.45703125 0.246094,0 0.796875,-0.08203125 0.796875,-0.59765625 0,-0.28125 -0.164063,-0.45703128 -0.457031,-0.51562498 l -0.398438,-0.082031 c -0.140625,-0.035156 -0.257812,-0.082031 -0.257812,-0.1992187 0,-0.1171875 0.09375,-0.2109375 0.328125,-0.2109375 0.257812,0 0.304687,0.1523437 0.328125,0.2109375 l 0.363281,-0.082031 c -0.117188,-0.375 -0.492188,-0.4101562 -0.703125,-0.4101562 -0.597656,0 -0.703125,0.375 -0.703125,0.5742187 0,0.42187503 0.386719,0.50390628 0.550781,0.53906253 l 0.339844,0.0585938 c 0.07031,0.0234375 0.199219,0.0703125 0.199219,0.1875 0,0.2109375 -0.292969,0.22265625 -0.386719,0.22265625 -0.292969,0 -0.351563,-0.140625 -0.386719,-0.22265625 z m 3.916993,0.421875 V -2.0873406 h 0.65625 v -0.375 h -1.78125 v 0.375 h 0.65625 v 2.08593748 z m 2.217773,-1.18359378 c 0,-0.234375 0,-0.375 -0.1875,-0.5390625 -0.117188,-0.1054687 -0.351563,-0.1289062 -0.550781,-0.1289062 -0.375,0 -0.75,0.1054687 -0.820313,0.515625 l 0.351563,0.046875 c 0.01172,-0.082031 0.05859,-0.28125 0.421875,-0.28125 0.1875,0 0.386718,0.058594 0.386718,0.28125 v 0.140625 c -0.386718,-0.011719 -1.21875,0.011719 -1.21875,0.62109373 0,0.3046875 0.210938,0.5625 0.597657,0.5625 0.445312,0 0.5625,-0.26953125 0.621093,-0.41015625 0.01172,0.15234375 0.02344,0.22265625 0.07031,0.375 h 0.386719 c -0.02344,-0.05859375 -0.05859,-0.19921875 -0.05859,-0.375 z m -0.398438,0.42187503 c 0,0.140625 -0.07031,0.4921875 -0.480468,0.4921875 -0.292969,0 -0.316407,-0.2109375 -0.316407,-0.28125 0,-0.22265625 0.222657,-0.29296875 0.292969,-0.31640625 0.08203,-0.0234375 0.246094,-0.0585938 0.503906,-0.0585938 z m 1.335938,0.76171875 V -1.8295281 H 35.23253 v 1.82812498 z m 0,-2.03906248 v -0.421875 H 35.23253 v 0.421875 z m 2.194336,-0.1289063 h -0.128906 c -0.117188,0 -0.210938,0.023437 -0.292969,0.082031 -0.08203,0.046875 -0.140625,0.140625 -0.175781,0.2695312 -0.09375,-0.023437 -0.1875,-0.035156 -0.351563,-0.035156 -0.632812,0 -0.75,0.3515625 -0.75,0.5390625 0,0.2578125 0.164063,0.36328123 0.257813,0.42187498 -0.09375,0.046875 -0.292969,0.15234375 -0.292969,0.38671875 0,0.12890625 0.07031,0.19921875 0.175781,0.29296875 -0.140625,0.0703125 -0.269531,0.15234375 -0.269531,0.375 0,0.375 0.398437,0.4921875 0.878906,0.4921875 0.773438,0 0.949219,-0.36328125 0.949219,-0.59765625 0,-0.24609375 -0.175781,-0.50390625 -0.621094,-0.50390625 h -0.46875 c -0.234375,0 -0.292969,-0.1171875 -0.292969,-0.17578125 0,-0.1171875 0.07031,-0.15234375 0.128907,-0.17578125 0.117187,0.0234375 0.210937,0.046875 0.339843,0.046875 0.433594,0 0.738282,-0.234375 0.738282,-0.56249998 0,-0.1992188 -0.117188,-0.3164063 -0.222657,-0.3984375 0.07031,-0.1054688 0.128907,-0.140625 0.269532,-0.140625 h 0.128906 z m -0.597656,0.8554688 c 0,0.09375 0,0.1757812 -0.105469,0.2578125 -0.05859,0.035156 -0.152344,0.0585937 -0.234375,0.0585937 -0.222656,0 -0.339844,-0.140625 -0.339844,-0.3046875 0,-0.1171875 0.08203,-0.2929687 0.351563,-0.2929687 0.257812,0 0.328125,0.1757812 0.328125,0.28125 z m -0.878907,1.37109373 c 0,-0.05859375 0.02344,-0.09375 0.09375,-0.1640625 0.117188,0.046875 0.304688,0.046875 0.445313,0.046875 h 0.28125 c 0.128906,0 0.269531,0.05859375 0.269531,0.1875 0,0.2109375 -0.292969,0.24609375 -0.46875,0.24609375 -0.09375,0 -0.222656,-0.0117188 -0.351562,-0.046875 -0.152344,-0.0351563 -0.269532,-0.15234375 -0.269532,-0.26953125 z m 1.760743,-0.05859375 h 0.410156 v -0.8671875 c 0,-0.22265628 0.02344,-0.33984378 0.08203,-0.46874998 0.04687,-0.1171875 0.1875,-0.1992188 0.328125,-0.1992188 0.28125,0 0.28125,0.2695313 0.28125,0.421875 v 1.11328128 H 39.63292 V -1.1732781 c 0,-0.5039063 -0.175781,-0.7265625 -0.5625,-0.7265625 -0.375,0 -0.492187,0.2929687 -0.539062,0.3984375 v -0.9609375 h -0.410156 z m 3.521484,0 V -2.4623406 H 41.23253 v 0.890625 c -0.117188,-0.2695313 -0.304688,-0.328125 -0.480469,-0.328125 -0.5625,0 -0.714844,0.609375 -0.714844,0.96093748 0,0.19921875 0.05859,0.97265625 0.691406,0.97265625 0.363282,0 0.480469,-0.28125 0.539063,-0.3984375 v 0.36328125 z M 41.23253,-0.76312187 c 0,0.29296875 -0.199219,0.45703125 -0.386719,0.45703125 -0.363281,0 -0.375,-0.48046875 -0.375,-0.59765625 0,-0.16406253 0.02344,-0.64453123 0.386719,-0.64453123 0.105468,0 0.222656,0.046875 0.28125,0.140625 0.08203,0.1054687 0.09375,0.1757812 0.09375,0.328125 z m 2.103515,0.1875 c -0.04687,0.09375 -0.117187,0.29296875 -0.410156,0.29296875 -0.152344,0 -0.269531,-0.0585938 -0.339844,-0.1640625 -0.105468,-0.15234375 -0.105468,-0.29296875 -0.09375,-0.41015625 h 1.242188 c 0.01172,-0.52734373 -0.222656,-0.99609373 -0.820313,-0.99609373 -0.539062,0 -0.855468,0.4101562 -0.855468,0.94921873 0,0.45703125 0.234375,0.9375 0.84375,0.9375 0.351562,0 0.667968,-0.1640625 0.796875,-0.5625 z m -0.84375,-0.55078123 c 0.01172,-0.09375 0.01172,-0.1757813 0.08203,-0.2695313 0.07031,-0.1171875 0.1875,-0.1757812 0.328125,-0.1757812 0.140625,0 0.246093,0.058594 0.316406,0.1640625 0.08203,0.1054687 0.08203,0.1875 0.08203,0.28125 z m 0,0"
         style="fill:#ffffff;fill-opacity:1;fill-rule:nonzero;stroke:none"
         aria-label="um Staitisticí agus Taighde"
         transform="matrix(1.3333333,0,0,1.3333333,643.5272,159.79093)" />
    </g>
    <g
       id="g38"
       style="fill:#ffffff;fill-opacity:1;stroke:#ffffff;stroke-opacity:1">
      <path
         id="path39"
         d="M 0,0 H 58.46"
         style="fill:#ffffff;stroke:#ffffff;stroke-width:0.152;stroke-linecap:butt;stroke-linejoin:miter;stroke-miterlimit:4;stroke-dasharray:none;stroke-opacity:1;fill-opacity:1"
         transform="matrix(1.3333333,0,0,-1.3333333,643.5272,149.45413)" />
    </g>
    <g
       id="g39"
       style="fill:#ffffff;fill-opacity:1">
      <path
         id="path40"
         d="m 0,0 c 1.447,-2.507 3.254,-4.314 5.761,-5.761 2.479,-1.431 5.184,-2.111 7.855,-2.111 3.724,0 7.378,1.324 10.248,3.78 0.165,0.14 0.327,0.285 0.486,0.434 1.12,1.041 2.106,2.264 2.911,3.658 L 19.139,4.689 18.521,5.046 13.955,7.682 13.63,7.869 13.336,7.7 3.409,1.968 2.845,1.643 Z"
         style="fill:#ffffff;fill-opacity:1;fill-rule:nonzero;stroke:none"
         transform="matrix(1.3333333,0,0,-1.3333333,598.82787,139.33467)"
         clip-path="url(#clipPath41)" />
      <path
         id="path42"
         d="m 0,0 0.015,0.009 v 9.668 0.619 h 0.619 c 1.665,0 3.293,-0.247 4.858,-0.734 v 2.986 c -2.895,0 -5.363,-0.661 -7.87,-2.109 -5.849,-3.377 -8.71,-9.941 -7.656,-16.232 z"
         style="fill:#ffffff;fill-opacity:1;fill-rule:nonzero;stroke:none"
         transform="matrix(1.3333333,0,0,-1.3333333,616.58907,128.1276)"
         clip-path="url(#clipPath43)" />
      <path
         id="path44"
         d="M 0,0 C -0.204,0.076 -0.411,0.147 -0.619,0.215 -2.149,0.711 -3.781,0.98 -5.476,0.98 v -9.686 l 4.857,-2.804 0.619,-0.358 8.139,-4.699 0.536,-0.309 -0.31,-0.536 c -0.786,-1.362 -1.762,-2.596 -2.889,-3.67 l 2.678,-1.547 c 1.447,2.507 2.108,4.975 2.108,7.87 C 10.262,-7.993 5.992,-2.224 0,0"
         style="fill:#ffffff;fill-opacity:1;fill-rule:nonzero;stroke:none"
         transform="matrix(1.3333333,0,0,-1.3333333,624.73613,116.53147)"
         clip-path="url(#clipPath45)" />
    </g>
    <g
       id="g45"
       style="fill:#ffffff;fill-opacity:1">
      <path
         id="path46"
         d="M 12.879786,-14.893105 H 10.735255 V -4.3696672 C 10.21963,-5.3540422 9.8680672,-5.9985734 9.8211922,-6.1157609 L 4.5946297,-14.893105 H 1.6297859 V 0.00142656 H 3.7743172 V -11.154823 c 0.1289062,0.257812 0.6679687,1.4062496 0.8203125,1.6406246 l 5.8359373,9.51562496 h 2.449219 z M 18.153223,0.00142656 V -14.893105 H 15.46963 V 0.00142656 Z m 1.069336,-3.59765626 c 0.222657,0.6914063 0.492188,1.6054688 1.488282,2.4140625 1.230468,0.98437501 2.789062,1.40625001 4.582031,1.40625001 3.386719,0 5.917969,-1.72265621 5.917969,-4.66406251 0,-3.1992187 -2.589844,-3.9023437 -3.867188,-4.2421875 l -2.519531,-0.6210937 c -0.761719,-0.2109375 -2.074219,-0.6328125 -2.074219,-1.7929691 0,-0.761718 0.503906,-1.851562 2.566406,-1.851562 2.121094,0 2.566407,1.183594 2.742188,1.699219 l 2.542969,-0.644532 c -0.128907,-0.492187 -0.351563,-1.207031 -1.253907,-1.921875 -1.160156,-0.914062 -2.601562,-1.300781 -4.078125,-1.300781 -2.988281,0 -5.273437,1.628906 -5.273437,4.441406 0,1.8984378 1.054687,3.4218753 3.222656,3.9843753 l 3.316406,0.84375 c 0.679688,0.1757813 1.839844,0.5390625 1.839844,1.9453125 0,0.6679688 -0.492187,1.9570313 -2.976562,1.9570313 -0.492188,0 -1.113282,-0.046875 -1.851563,-0.28125 -1.335937,-0.4335938 -1.605469,-1.3945313 -1.734375,-1.921875 z M 44.450098,0.00142656 41.836817,-6.5610734 c 0.761719,-0.3398438 2.671875,-1.1601563 2.671875,-3.9492186 0,-1.523438 -0.574219,-2.53125 -1.335937,-3.222656 -0.914063,-0.796875 -2.027344,-1.160157 -3.878907,-1.160157 H 32.836817 V 0.00142656 h 2.683594 V -6.1157609 h 3.773437 l 2.320313,6.11718746 z M 35.520411,-12.748573 h 3.5625 c 1.898437,0 2.636719,1.078125 2.636719,2.191406 0,1.8515623 -1.535157,2.2968748 -2.859375,2.2968748 h -3.339844 z m 18.793945,-2.144532 h -3.28125 L 46.076075,0.00142656 h 2.296875 l 1.160156,-3.55078126 h 5.71875 l 1.207032,3.55078126 h 2.847656 z m -4.113281,9.1992191 2.167969,-6.6445311 2.167969,6.6445311 z m 0,0"
         style="fill:#ffffff;fill-opacity:1;fill-rule:nonzero;stroke:none"
         aria-label="NISRA"
         transform="matrix(1.3333333,0,0,1.3333333,641.87773,135.04107)" />
    </g>
  </g>
</svg>
