<?xml version="1.0" encoding="UTF-8" standalone="no"?>
<!-- Created with Inkscape (http://www.inkscape.org/) -->

<svg
   version="1.1"
   id="svg1"
   width="120.32835"
   height="38.301865"
   viewBox="0 0 120.32835 38.301865"
   sodipodi:docname="English only color logo.svg"
   inkscape:version="1.3.2 (091e20e, 2023-11-25, custom)"
   xmlns:inkscape="http://www.inkscape.org/namespaces/inkscape"
   xmlns:sodipodi="http://sodipodi.sourceforge.net/DTD/sodipodi-0.dtd"
   xmlns="http://www.w3.org/2000/svg"
   xmlns:svg="http://www.w3.org/2000/svg">
  <defs
     id="defs1">
    <clipPath
       clipPathUnits="userSpaceOnUse"
       id="clipPath26">
      <path
         d="M 0,0 H 595.276 V 419.528 H 0 Z"
         transform="translate(-452.97641,-258.43931)"
         id="path26" />
    </clipPath>
    <clipPath
       clipPathUnits="userSpaceOnUse"
       id="clipPath28">
      <path
         d="M 0,0 H 595.276 V 419.528 H 0 Z"
         transform="translate(-466.25161,-266.81571)"
         id="path28" />
    </clipPath>
    <clipPath
       clipPathUnits="userSpaceOnUse"
       id="clipPath30">
      <path
         d="M 0,0 H 595.276 V 419.528 H 0 Z"
         transform="translate(-472.34091,-275.48301)"
         id="path30" />
    </clipPath>
    <clipPath
       clipPathUnits="userSpaceOnUse"
       id="clipPath41">
      <path
         d="M 0,0 H 595.276 V 419.528 H 0 Z"
         transform="translate(-449.12091,-315.02701)"
         id="path41" />
    </clipPath>
    <clipPath
       clipPathUnits="userSpaceOnUse"
       id="clipPath43">
      <path
         d="M 0,0 H 595.276 V 419.528 H 0 Z"
         transform="translate(-462.44181,-323.43231)"
         id="path43" />
    </clipPath>
    <clipPath
       clipPathUnits="userSpaceOnUse"
       id="clipPath45">
      <path
         d="M 0,0 H 595.276 V 419.528 H 0 Z"
         transform="translate(-468.55211,-332.12941)"
         id="path45" />
    </clipPath>
  </defs>
  <sodipodi:namedview
     id="namedview1"
     pagecolor="#ffffff"
     bordercolor="#000000"
     borderopacity="0.25"
     inkscape:showpageshadow="2"
     inkscape:pageopacity="0.0"
     inkscape:pagecheckerboard="0"
     inkscape:deskcolor="#d1d1d1"
     inkscape:zoom="1.389061"
     inkscape:cx="-207.3343"
     inkscape:cy="92.508533"
     inkscape:window-width="1920"
     inkscape:window-height="991"
     inkscape:window-x="-9"
     inkscape:window-y="-9"
     inkscape:window-maximized="1"
     inkscape:current-layer="g1">
    <inkscape:page
       x="0"
       y="0"
       inkscape:label="2"
       id="page1"
       width="120.32835"
       height="38.301865"
       margin="0"
       bleed="0" />
  </sodipodi:namedview>
  <g
     id="g1"
     inkscape:groupmode="layer"
     inkscape:label="2"
     transform="translate(-603.96851,-186.94307)">
    <g
       id="g25">
      <path
         id="path25"
         d="m 0,0 c 1.442,-2.498 3.243,-4.299 5.741,-5.741 2.47,-1.426 5.167,-2.104 7.828,-2.104 3.711,0 7.353,1.32 10.213,3.767 0.164,0.14 0.326,0.284 0.484,0.432 1.116,1.038 2.099,2.257 2.901,3.646 L 19.074,4.673 18.457,5.029 13.907,7.656 13.583,7.842 13.29,7.673 3.397,1.961 2.836,1.637 Z"
         style="fill:#3d7dca;fill-opacity:1;fill-rule:nonzero;stroke:none"
         transform="matrix(1.3333333,0,0,-1.3333333,603.96853,214.78493)"
         clip-path="url(#clipPath26)" />
      <path
         id="path27"
         d="m 0,0 0.015,0.009 v 9.635 0.616 h 0.617 c 1.659,0 3.281,-0.245 4.841,-0.73 v 2.975 C 2.588,12.505 0.128,11.846 -2.37,10.404 -8.199,7.038 -11.05,0.496 -10,-5.773 Z"
         style="fill:#00205c;fill-opacity:1;fill-rule:nonzero;stroke:none"
         transform="matrix(1.3333333,0,0,-1.3333333,621.6688,203.6164)"
         clip-path="url(#clipPath28)" />
      <path
         id="path29"
         d="M 0,0 C -0.204,0.076 -0.409,0.146 -0.617,0.214 -2.141,0.708 -3.768,0.976 -5.458,0.976 V -8.676 L -0.617,-11.471 0,-11.827 8.111,-16.51 8.645,-16.818 8.336,-17.352 C 7.553,-18.71 6.58,-19.94 5.457,-21.01 l 2.669,-1.541 c 1.442,2.498 2.101,4.958 2.101,7.843 C 10.227,-7.965 5.972,-2.217 0,0"
         style="fill:#cedc00;fill-opacity:1;fill-rule:nonzero;stroke:none"
         transform="matrix(1.3333333,0,0,-1.3333333,629.78787,192.06)"
         clip-path="url(#clipPath30)" />
    </g>
    <g
       id="g30">
      <path
         id="path31"
         d="m 2.8350766,-3.2799391 h -0.46875 v 2.32031254 C 2.2491391,-1.1822828 2.1788266,-1.3229078 2.1671078,-1.3463453 L 1.0186703,-3.2799391 H 0.36242031 v 3.28125004 h 0.46875 V -2.4596266 c 0.0234375,0.058594 0.15234375,0.3046875 0.18749999,0.3632813 l 1.2773438,2.09765624 h 0.5390625 z m 2.7890625,2.0625 c 0,-0.65625 -0.375,-1.2539062 -1.1132813,-1.2539062 -0.7382812,0 -1.1367187,0.5859375 -1.1367187,1.2421875 0,0.56249999 0.2929687,1.27734374 1.1015625,1.27734374 0.6210937,0 1.1484375,-0.4453125 1.1484375,-1.26562504 z m -0.5742188,-0.011719 c 0,0.25781249 -0.046875,0.83203124 -0.5507812,0.83203124 -0.5507813,0 -0.5507813,-0.69140624 -0.5507813,-0.82031254 0,-0.375 0.1171875,-0.8085937 0.5625,-0.8085937 0.4101563,0 0.5390625,0.3867187 0.5390625,0.796875 z m 1.1308594,1.23046874 h 0.5507812 v -0.984375 c 0,-0.37500004 0.082031,-0.60937504 0.1757813,-0.72656254 0.1757812,-0.1992187 0.3867187,-0.1992187 0.515625,-0.1992187 v -0.5859375 c -0.5273438,-0.023437 -0.6914063,0.46875 -0.75,0.65625 V -2.4244703 H 6.1807797 Z m 3.046875,-0.43359375 c -0.058594,0.0117188 -0.09375,0.0117188 -0.1289063,0.0117188 -0.28125,0 -0.3984375,-0.0585938 -0.3984375,-0.3984375 V -2.0025953 h 0.4804688 v -0.421875 H 8.7003109 v -0.6679688 l -0.4570312,0.035156 -0.046875,0.6328125 h -0.328125 v 0.421875 h 0.2929687 v 1.26562499 c 0,0.26953125 0.023437,0.43359375 0.1640625,0.59765625 0.1171875,0.12890625 0.3398438,0.1875 0.5273438,0.1875 0.09375,0 0.2578125,-0.01171875 0.375,-0.046875 z M 9.7374203,0.00131094 H 10.288202 V -1.1588453 c 0,-0.28125 0.02344,-0.4453125 0.105468,-0.6210938 0.05859,-0.1523437 0.246094,-0.2695312 0.445313,-0.2695312 0.363281,0 0.363281,0.3632812 0.363281,0.5742187 v 1.47656254 h 0.539063 V -1.5690016 c 0,-0.6679687 -0.222657,-0.9492187 -0.738282,-0.9492187 -0.503906,0 -0.65625,0.375 -0.714843,0.515625 V -3.2799391 H 9.7374203 Z m 4.2626957,-0.7734375 c -0.05859,0.12890625 -0.164063,0.3984375 -0.550782,0.3984375 -0.199218,0 -0.351562,-0.0703125 -0.457031,-0.22265625 -0.128906,-0.19921875 -0.128906,-0.38671875 -0.128906,-0.55078129 h 1.664062 c 0.02344,-0.703125 -0.304687,-1.3242187 -1.089843,-1.3242187 -0.714844,0 -1.136719,0.5507812 -1.136719,1.265625 0,0.60937499 0.316406,1.25390624 1.113281,1.25390624 0.480469,0 0.902344,-0.2109375 1.078125,-0.75 z M 12.863397,-1.4986891 c 0.02344,-0.1289062 0.03516,-0.234375 0.117187,-0.3515625 0.105469,-0.1640625 0.246094,-0.234375 0.433594,-0.234375 0.1875,0 0.328125,0.082031 0.433594,0.2109375 0.09375,0.140625 0.105469,0.2460938 0.117187,0.375 z m 2.217773,1.50000004 h 0.550782 v -0.984375 c 0,-0.37500004 0.08203,-0.60937504 0.175781,-0.72656254 0.175781,-0.1992187 0.386719,-0.1992187 0.515625,-0.1992187 v -0.5859375 c -0.527344,-0.023437 -0.691406,0.46875 -0.75,0.65625 V -2.4244703 H 15.08117 Z m 1.751953,0 h 0.550782 V -1.1354078 c 0,-0.8320313 0.410156,-0.8671875 0.539062,-0.8671875 0.09375,0 0.363281,0.011719 0.363281,0.5742187 V 0.00131094 H 18.83703 V -1.4400953 c 0,-0.3164063 0.01172,-1.03125 -0.773438,-1.03125 -0.457031,0 -0.632812,0.4101562 -0.726562,0.609375 v -0.5625 h -0.503907 z m 4.810547,0 V -3.2799391 h -0.585937 v 3.28125004 z m 0.741211,0 h 0.550782 v -0.984375 c 0,-0.37500004 0.08203,-0.60937504 0.175781,-0.72656254 0.175781,-0.1992187 0.386719,-0.1992187 0.515625,-0.1992187 v -0.5859375 c -0.527344,-0.023437 -0.691406,0.46875 -0.75,0.65625 v -0.5859375 h -0.492188 z m 3.225586,-0.7734375 c -0.05859,0.12890625 -0.164062,0.3984375 -0.550781,0.3984375 -0.199219,0 -0.351563,-0.0703125 -0.457031,-0.22265625 -0.128907,-0.19921875 -0.128907,-0.38671875 -0.128907,-0.55078129 h 1.664063 c 0.02344,-0.703125 -0.304688,-1.3242187 -1.089844,-1.3242187 -0.714844,0 -1.136719,0.5507812 -1.136719,1.265625 0,0.60937499 0.316407,1.25390624 1.113282,1.25390624 0.480468,0 0.902343,-0.2109375 1.078125,-0.75 z M 24.473748,-1.4986891 c 0.02344,-0.1289062 0.03516,-0.234375 0.117188,-0.3515625 0.105469,-0.1640625 0.246094,-0.234375 0.433594,-0.234375 0.1875,0 0.328125,0.082031 0.433593,0.2109375 0.09375,0.140625 0.105469,0.2460938 0.117188,0.375 z m 2.768555,1.50000004 V -3.2799391 h -0.550781 v 3.28125004 z m 2.707031,-1.58203124 c 0,-0.3046875 0,-0.5039063 -0.246093,-0.7148438 -0.175782,-0.140625 -0.480469,-0.1757812 -0.738282,-0.1757812 -0.492187,0 -1.007812,0.140625 -1.101562,0.6914062 l 0.46875,0.070312 c 0.02344,-0.1054687 0.08203,-0.375 0.5625,-0.375 0.246094,0 0.515625,0.058594 0.515625,0.375 v 0.1757813 c -0.515625,0 -1.617188,0.023437 -1.617188,0.83203124 0,0.3984375 0.28125,0.75 0.796875,0.75 0.585938,0 0.75,-0.36328125 0.820313,-0.5390625 0.02344,0.19921875 0.02344,0.29296875 0.09375,0.4921875 h 0.515625 c -0.02344,-0.08203125 -0.07031,-0.2578125 -0.07031,-0.4921875 z m -0.539062,0.5625 c 0,0.19921874 -0.09375,0.65624999 -0.632813,0.65624999 -0.386718,0 -0.421875,-0.28125 -0.421875,-0.36328125 0,-0.31640624 0.28125,-0.39843754 0.398438,-0.43359374 0.105469,-0.023437 0.316406,-0.070312 0.65625,-0.070312 z m 1.242187,1.01953124 h 0.550782 V -1.1354078 c 0,-0.8320313 0.410156,-0.8671875 0.539062,-0.8671875 0.09375,0 0.363281,0.011719 0.363281,0.5742187 v 1.42968754 h 0.550782 V -1.4400953 c 0,-0.3164063 0.01172,-1.03125 -0.773438,-1.03125 -0.457031,0 -0.632812,0.4101562 -0.726562,0.609375 v -0.5625 h -0.503907 z m 4.702149,0 V -3.2799391 h -0.550781 v 1.1835938 c -0.152344,-0.3515625 -0.410157,-0.421875 -0.644532,-0.421875 -0.75,0 -0.949218,0.796875 -0.949218,1.2773437 0,0.25781254 0.07031,1.28906254 0.914062,1.28906254 0.492188,0 0.644531,-0.375 0.714844,-0.5390625 v 0.4921875 z M 34.803827,-1.0182203 c 0,0.38671874 -0.257813,0.62109374 -0.515625,0.62109374 -0.492188,0 -0.503907,-0.64453124 -0.503907,-0.80859374 0,-0.2109375 0.02344,-0.8554688 0.515625,-0.8554688 0.140625,0 0.292969,0.070312 0.375,0.1875 0.105469,0.140625 0.128907,0.234375 0.128907,0.4453125 z m 0,0"
         style="fill:#00205c;fill-opacity:1;fill-rule:nonzero;stroke:none"
         aria-label="Northern Ireland "
         transform="matrix(1.3333333,0,0,1.3333333,648.38787,216.73653)" />
    </g>
    <g
       id="g31">
      <path
         id="path32"
         d="m 0.0243375,-0.79556406 c 0.046875,0.15234375 0.10546875,0.36328125 0.328125,0.5390625 0.26953125,0.2109375 0.609375,0.3046875 1.0078125,0.3046875 0.75,0 1.3007813,-0.375 1.3007813,-1.03125 0,-0.70312504 -0.5742188,-0.85546874 -0.84375,-0.92578124 l -0.5625,-0.140625 C 1.0907438,-2.0963453 0.797775,-2.1900953 0.797775,-2.4479078 c 0,-0.1640625 0.1171875,-0.4101563 0.5625,-0.4101563 0.46875,0 0.5742188,0.2695313 0.609375,0.375 l 0.5625,-0.140625 C 2.496994,-2.7291578 2.450119,-2.8932203 2.2509,-3.0455641 c -0.2460937,-0.1992187 -0.5742187,-0.28125 -0.9023437,-0.28125 -0.65625005,0 -1.1601563,0.3515625 -1.1601563,0.9726563 0,0.421875 0.234375,0.7617187 0.71484375,0.8789062 l 0.72656255,0.1875 c 0.1523437,0.035156 0.4101562,0.1171875 0.4101562,0.43359379 0,0.140625 -0.1054687,0.421875 -0.65625,0.421875 -0.1054687,0 -0.2460937,0 -0.41015625,-0.0585938 -0.29296875,-0.09375 -0.3515625,-0.3046875 -0.38671875,-0.421875 z M 4.3134,-0.43228281 c -0.058594,0.0117188 -0.09375,0.0117188 -0.1289062,0.0117188 -0.28125,0 -0.3984375,-0.0585938 -0.3984375,-0.3984375 V -2.0025953 H 4.266525 v -0.421875 H 3.7860563 V -3.0924391 L 3.329025,-3.0572828 3.28215,-2.4244703 H 2.954025 v 0.421875 h 0.2929688 v 1.26562499 c 0,0.26953125 0.023437,0.43359375 0.1640625,0.59765625 0.1171875,0.12890625 0.3398437,0.1875 0.5273437,0.1875 0.09375,0 0.2578125,-0.01171875 0.375,-0.046875 z M 6.8241422,-1.5807203 c 0,-0.3046875 0,-0.5039063 -0.2460938,-0.7148438 -0.1757812,-0.140625 -0.4804687,-0.1757812 -0.7382812,-0.1757812 -0.4921875,0 -1.0078125,0.140625 -1.1015625,0.6914062 l 0.46875,0.070312 c 0.023437,-0.1054687 0.082031,-0.375 0.5625,-0.375 0.2460937,0 0.515625,0.058594 0.515625,0.375 v 0.1757813 c -0.515625,0 -1.6171875,0.023437 -1.6171875,0.83203124 0,0.3984375 0.28125,0.75 0.796875,0.75 0.5859375,0 0.75,-0.36328125 0.8203125,-0.5390625 0.023437,0.19921875 0.023437,0.29296875 0.09375,0.4921875 h 0.515625 c -0.023437,-0.08203125 -0.070312,-0.2578125 -0.070312,-0.4921875 z m -0.5390625,0.5625 c 0,0.19921874 -0.09375,0.65624999 -0.6328125,0.65624999 -0.3867188,0 -0.421875,-0.28125 -0.421875,-0.36328125 0,-0.31640624 0.28125,-0.39843754 0.3984375,-0.43359374 0.1054687,-0.023437 0.3164062,-0.070312 0.65625,-0.070312 z m 2.3671875,0.58593749 c -0.058594,0.0117188 -0.09375,0.0117188 -0.1289063,0.0117188 -0.28125,0 -0.3984375,-0.0585938 -0.3984375,-0.3984375 V -2.0025953 h 0.4804688 v -0.421875 H 8.1249234 v -0.6679688 l -0.4570312,0.035156 -0.046875,0.6328125 h -0.328125 v 0.421875 h 0.2929687 v 1.26562499 c 0,0.26953125 0.023437,0.43359375 0.1640625,0.59765625 0.1171875,0.12890625 0.3398438,0.1875 0.5273438,0.1875 0.09375,0 0.2578125,-0.01171875 0.375,-0.046875 z M 9.7128141,0.00131094 V -2.4244703 H 9.1620328 v 2.42578124 z m 0,-2.70703124 V -3.2799391 H 9.1620328 v 0.5742188 z m 0.4101559,2.15624999 c 0.09375,0.3515625 0.457032,0.59765625 1.03125,0.59765625 0.328125,0 1.054688,-0.1171875 1.054688,-0.78515625 0,-0.38671879 -0.210938,-0.62109379 -0.609375,-0.70312499 l -0.527344,-0.1054688 c -0.1875,-0.046875 -0.351562,-0.1171875 -0.351562,-0.2695312 0,-0.1523438 0.140625,-0.2695313 0.445312,-0.2695313 0.339844,0 0.410156,0.1875 0.433594,0.2695313 l 0.492187,-0.09375 c -0.164062,-0.5039063 -0.65625,-0.5625 -0.949218,-0.5625 -0.785157,0 -0.925782,0.5039062 -0.925782,0.7734375 0,0.5625 0.503907,0.6679687 0.738282,0.71484374 l 0.445312,0.0820313 c 0.09375,0.0234375 0.257813,0.09375 0.257813,0.24609375 0,0.29296875 -0.386719,0.29296875 -0.503907,0.29296875 -0.386718,0 -0.46875,-0.17578125 -0.515625,-0.29296875 z m 3.703125,0.1171875 c -0.05859,0.0117188 -0.09375,0.0117188 -0.128906,0.0117188 -0.28125,0 -0.398437,-0.0585938 -0.398437,-0.3984375 V -2.0025953 h 0.480468 v -0.421875 h -0.480468 v -0.6679688 l -0.457032,0.035156 -0.04687,0.6328125 h -0.32813 v 0.421875 h 0.292969 v 1.26562499 c 0,0.26953125 0.02344,0.43359375 0.164063,0.59765625 0.117187,0.12890625 0.339843,0.1875 0.527343,0.1875 0.09375,0 0.257813,-0.01171875 0.375,-0.046875 z m 1.057618,0.43359375 V -2.4244703 h -0.550782 v 2.42578124 z m 0,-2.70703124 v -0.5742188 h -0.550782 v 0.5742188 z m 2.100585,1.81640624 c -0.05859,0.28125 -0.210937,0.45703125 -0.46875,0.45703125 -0.503906,0 -0.503906,-0.65624999 -0.503906,-0.76171879 0,-0.1054687 0.02344,-0.2929687 0.07031,-0.4570312 0.04687,-0.1289063 0.152343,-0.375 0.457031,-0.375 0.234375,0 0.410156,0.1289062 0.445312,0.4570312 l 0.480469,-0.070312 c -0.03516,-0.1875 -0.152344,-0.8320312 -0.949219,-0.8320312 -0.714843,0 -1.078125,0.5976562 -1.078125,1.2539062 0,0.55078129 0.257813,1.26562504 1.03125,1.26562504 0.785157,0 0.949219,-0.66796875 0.996094,-0.890625 z m 0.653321,0.33984375 c 0.09375,0.3515625 0.457031,0.59765625 1.03125,0.59765625 0.328125,0 1.054687,-0.1171875 1.054687,-0.78515625 0,-0.38671879 -0.210937,-0.62109379 -0.609375,-0.70312499 l -0.527343,-0.1054688 c -0.1875,-0.046875 -0.351563,-0.1171875 -0.351563,-0.2695312 0,-0.1523438 0.140625,-0.2695313 0.445313,-0.2695313 0.339843,0 0.410156,0.1875 0.433593,0.2695313 l 0.492188,-0.09375 c -0.164063,-0.5039063 -0.65625,-0.5625 -0.949219,-0.5625 -0.785156,0 -0.925781,0.5039062 -0.925781,0.7734375 0,0.5625 0.503906,0.6679687 0.738281,0.71484374 l 0.445313,0.0820313 c 0.09375,0.0234375 0.257812,0.09375 0.257812,0.24609375 0,0.29296875 -0.386719,0.29296875 -0.503906,0.29296875 -0.386719,0 -0.46875,-0.17578125 -0.515625,-0.29296875 z m 0,0"
         style="fill:#00205c;fill-opacity:1;fill-rule:nonzero;stroke:none"
         aria-label="Statistics "
         transform="matrix(1.3333333,0,0,1.3333333,697.9988,216.73653)" />
    </g>
    <g
       id="g32">
      <path
         id="path33"
         d="m 2.3311703,-1.5811016 c 0,-0.3046875 0,-0.5039062 -0.2460937,-0.7148437 -0.1757813,-0.140625 -0.4804688,-0.1757813 -0.7382813,-0.1757813 -0.49218749,0 -1.00781249,0.140625 -1.10156249,0.6914063 l 0.46875,0.070312 c 0.0234375,-0.1054688 0.0820313,-0.375 0.56249999,-0.375 0.2460938,0 0.515625,0.058594 0.515625,0.375 v 0.1757812 c -0.515625,0 -1.61718749,0.023437 -1.61718749,0.83203129 0,0.3984375 0.28125,0.75 0.796875,0.75 0.58593749,0 0.74999999,-0.36328125 0.82031249,-0.5390625 0.023437,0.19921875 0.023437,0.29296875 0.09375,0.4921874975 h 0.515625 C 2.3780453,-0.08110156 2.3311703,-0.25688281 2.3311703,-0.49125781 Z m -0.5390625,0.5625 c 0,0.19921879 -0.09375,0.65625004 -0.6328125,0.65625004 -0.38671874,0 -0.42187499,-0.28125 -0.42187499,-0.36328125 0,-0.31640629 0.28124999,-0.39843749 0.39843749,-0.43359379 0.1054688,-0.023437 0.3164063,-0.070312 0.65625,-0.070312 z M 3.0342953,9.296875e-4 H 3.5850766 V -1.1357891 c 0,-0.8320312 0.4101562,-0.8671875 0.5390625,-0.8671875 0.09375,0 0.3632812,0.011719 0.3632812,0.5742188 V 9.296875e-4 H 5.0382016 V -1.4404766 c 0,-0.3164062 0.011719,-1.03125 -0.7734375,-1.03125 -0.4570313,0 -0.6328125,0.4101563 -0.7265625,0.609375 v -0.5625 H 3.0342953 Z m 4.7050781,0 V -3.2803203 H 7.1885922 v 1.1835937 c -0.1523438,-0.3515625 -0.4101563,-0.421875 -0.6445313,-0.421875 -0.75,0 -0.9492187,0.796875 -0.9492187,1.2773438 0,0.25781249 0.070312,1.28906249 0.9140625,1.28906249 0.4921875,0 0.6445312,-0.375 0.7148437,-0.5390625 V 9.296875e-4 Z M 7.1885922,-1.0186016 c 0,0.38671879 -0.2578125,0.62109379 -0.515625,0.62109379 -0.4921875,0 -0.5039063,-0.64453129 -0.5039063,-0.80859379 0,-0.2109375 0.023437,-0.8554687 0.515625,-0.8554687 0.140625,0 0.2929688,0.070312 0.375,0.1875 0.1054688,0.140625 0.1289063,0.234375 0.1289063,0.4453125 z M 12.508905,9.296875e-4 11.934686,-1.4404766 c 0.164062,-0.082031 0.585937,-0.2578125 0.585937,-0.8789062 0,-0.328125 -0.128906,-0.5507813 -0.292968,-0.703125 -0.199219,-0.1757813 -0.445313,-0.2578125 -0.855469,-0.2578125 H 9.9542172 V 9.296875e-4 H 10.540155 V -1.3467266 h 0.832031 L 11.887811,9.296875e-4 Z M 10.540155,-2.8115703 h 0.785156 c 0.421875,0 0.585937,0.234375 0.585937,0.4804687 0,0.4101563 -0.339843,0.515625 -0.632812,0.515625 h -0.738281 z m 4.139648,2.03906249 c -0.05859,0.12890625 -0.164062,0.3984375 -0.550781,0.3984375 -0.199219,0 -0.351563,-0.0703125 -0.457031,-0.22265625 -0.128907,-0.19921875 -0.128907,-0.38671875 -0.128907,-0.55078124 h 1.664063 c 0.02344,-0.703125 -0.304688,-1.3242188 -1.089844,-1.3242188 -0.714844,0 -1.136719,0.5507813 -1.136719,1.265625 0,0.60937504 0.316407,1.25390629 1.113282,1.25390629 0.480468,0 0.902343,-0.2109375 1.078125,-0.75 z M 13.543084,-1.4990703 c 0.02344,-0.1289063 0.03516,-0.234375 0.117188,-0.3515625 0.105469,-0.1640625 0.246094,-0.234375 0.433594,-0.234375 0.1875,0 0.328125,0.082031 0.433593,0.2109375 0.09375,0.140625 0.105469,0.2460937 0.117188,0.375 z m 1.924805,0.94921874 c 0.09375,0.3515625 0.457031,0.59765625 1.03125,0.59765625 0.328125,0 1.054688,-0.1171875 1.054688,-0.78515625 0,-0.38671874 -0.210938,-0.62109374 -0.609375,-0.70312504 l -0.527344,-0.1054687 c -0.1875,-0.046875 -0.351563,-0.1171875 -0.351563,-0.2695313 0,-0.1523437 0.140625,-0.2695312 0.445313,-0.2695312 0.339844,0 0.410156,0.1875 0.433594,0.2695312 l 0.492187,-0.09375 c -0.164062,-0.5039062 -0.65625,-0.5625 -0.949219,-0.5625 -0.785156,0 -0.925781,0.5039063 -0.925781,0.7734375 0,0.5625 0.503906,0.6679688 0.738281,0.71484379 l 0.445313,0.0820313 c 0.09375,0.0234375 0.257812,0.09375 0.257812,0.24609375 0,0.29296875 -0.386718,0.29296875 -0.503906,0.29296875 -0.386719,0 -0.46875,-0.17578125 -0.515625,-0.29296875 z m 4.12207,-0.22265625 c -0.05859,0.12890625 -0.164062,0.3984375 -0.550781,0.3984375 -0.199219,0 -0.351562,-0.0703125 -0.457031,-0.22265625 -0.128906,-0.19921875 -0.128906,-0.38671875 -0.128906,-0.55078124 h 1.664062 c 0.02344,-0.703125 -0.304687,-1.3242188 -1.089844,-1.3242188 -0.714843,0 -1.136718,0.5507813 -1.136718,1.265625 0,0.60937504 0.316406,1.25390629 1.113281,1.25390629 0.480469,0 0.902344,-0.2109375 1.078125,-0.75 z M 18.453241,-1.4990703 c 0.02344,-0.1289063 0.03516,-0.234375 0.117187,-0.3515625 0.105469,-0.1640625 0.246094,-0.234375 0.433594,-0.234375 0.1875,0 0.328125,0.082031 0.433594,0.2109375 0.09375,0.140625 0.105468,0.2460937 0.117187,0.375 z m 4.221679,-0.082031 c 0,-0.3046875 0,-0.5039062 -0.246093,-0.7148437 -0.175782,-0.140625 -0.480469,-0.1757813 -0.738282,-0.1757813 -0.492187,0 -1.007812,0.140625 -1.101562,0.6914063 l 0.46875,0.070312 c 0.02344,-0.1054688 0.08203,-0.375 0.5625,-0.375 0.246094,0 0.515625,0.058594 0.515625,0.375 v 0.1757812 c -0.515625,0 -1.617188,0.023437 -1.617188,0.83203129 0,0.3984375 0.28125,0.75 0.796875,0.75 0.585938,0 0.75,-0.36328125 0.820313,-0.5390625 0.02344,0.19921875 0.02344,0.29296875 0.09375,0.4921874975 h 0.515625 C 22.721795,-0.08110156 22.67492,-0.25688281 22.67492,-0.49125781 Z m -0.539062,0.5625 c 0,0.19921879 -0.09375,0.65625004 -0.632813,0.65625004 -0.386718,0 -0.421875,-0.28125 -0.421875,-0.36328125 0,-0.31640629 0.28125,-0.39843749 0.398438,-0.43359379 0.105469,-0.023437 0.316406,-0.070312 0.65625,-0.070312 z m 1.242187,1.0195312875 h 0.550782 V -0.98344531 c 0,-0.37499999 0.08203,-0.60937499 0.175781,-0.72656249 0.175781,-0.1992188 0.386719,-0.1992188 0.515625,-0.1992188 v -0.5859375 c -0.527344,-0.023437 -0.691406,0.46875 -0.75,0.65625 V -2.4248516 H 23.378045 Z M 26.451288,-0.88969531 c -0.05859,0.28125 -0.210938,0.45703125 -0.46875,0.45703125 -0.503907,0 -0.503907,-0.65625004 -0.503907,-0.76171874 0,-0.1054688 0.02344,-0.2929688 0.07031,-0.4570313 0.04687,-0.1289062 0.152344,-0.375 0.457031,-0.375 0.234375,0 0.410156,0.1289063 0.445313,0.4570313 l 0.480468,-0.070312 c -0.03516,-0.1875 -0.152343,-0.8320313 -0.949218,-0.8320313 -0.714844,0 -1.078125,0.5976563 -1.078125,1.2539063 0,0.55078124 0.257812,1.26562499 1.03125,1.26562499 0.785156,0 0.949218,-0.66796875 0.996093,-0.890625 z m 0.949218,0.8906249975 h 0.550782 V -1.1592266 c 0,-0.28125 0.02344,-0.4453125 0.105468,-0.6210937 0.05859,-0.1523438 0.246094,-0.2695313 0.445313,-0.2695313 0.363281,0 0.363281,0.3632813 0.363281,0.5742188 V 9.296875e-4 h 0.539063 V -1.5693828 c 0,-0.6679688 -0.222657,-0.9492188 -0.738282,-0.9492188 -0.503906,0 -0.65625,0.375 -0.714843,0.515625 V -3.2803203 H 27.400506 Z M 33.092889,-3.2803203 H 32.366327 L 31.276483,9.296875e-4 h 0.515625 L 32.038202,-0.78422656 h 1.265625 l 0.269531,0.7851562475 h 0.621094 z m -0.902344,2.0273437 0.480469,-1.4648437 0.46875,1.4648437 z m 4.634766,-1.640625 h -0.164063 c -0.152343,0 -0.292968,0.035156 -0.398437,0.1054688 -0.105469,0.070312 -0.1875,0.1875 -0.222656,0.3632812 -0.140625,-0.023437 -0.257813,-0.046875 -0.46875,-0.046875 -0.855469,0 -1.007813,0.4804688 -1.007813,0.7265625 0,0.328125 0.210938,0.4804688 0.339844,0.5625 -0.128906,0.070312 -0.386719,0.19921879 -0.386719,0.50390629 0,0.17578125 0.09375,0.28125 0.222656,0.3984375 -0.175781,0.09375 -0.351562,0.19921875 -0.351562,0.4921875 0,0.515625 0.539062,0.65625 1.183594,0.65625 1.019531,0 1.253906,-0.48046875 1.253906,-0.796875 0,-0.31640625 -0.234375,-0.65625 -0.832031,-0.65625 h -0.621094 c -0.304688,0 -0.386719,-0.15234375 -0.386719,-0.24609375 0,-0.15234375 0.09375,-0.19921874 0.164063,-0.23437504 0.164062,0.035156 0.28125,0.058594 0.457031,0.058594 0.585937,0 0.984375,-0.3046875 0.984375,-0.75 0,-0.2578125 -0.152344,-0.4101563 -0.28125,-0.515625 0.07031,-0.140625 0.164062,-0.1992188 0.351562,-0.1992188 h 0.164063 z m -0.796875,1.1484375 c 0,0.1289063 0,0.234375 -0.140625,0.328125 -0.07031,0.058594 -0.1875,0.09375 -0.304688,0.09375 -0.304687,0 -0.445312,-0.1875 -0.445312,-0.3984375 0,-0.1757812 0.09375,-0.4101562 0.457031,-0.4101562 0.351563,0 0.433594,0.234375 0.433594,0.3867187 z M 34.86828,0.08296094 c 0,-0.0820312525 0.02344,-0.140625 0.117187,-0.2109375 0.152344,0.046875 0.398438,0.05859375 0.585938,0.05859375 h 0.386718 c 0.164063,0 0.351563,0.0703124975 0.351563,0.24609375 0,0.28125 -0.386719,0.31640625 -0.621094,0.31640625 -0.128906,0 -0.292969,0 -0.457031,-0.046875 -0.210938,-0.046875 -0.363281,-0.2109375 -0.363281,-0.36328125 z m 3.884765,-0.85546875 c -0.05859,0.12890625 -0.164062,0.3984375 -0.550781,0.3984375 -0.199219,0 -0.351562,-0.0703125 -0.457031,-0.22265625 -0.128906,-0.19921875 -0.128906,-0.38671875 -0.128906,-0.55078124 h 1.664062 c 0.02344,-0.703125 -0.304687,-1.3242188 -1.089844,-1.3242188 -0.714843,0 -1.136718,0.5507813 -1.136718,1.265625 0,0.60937504 0.316406,1.25390629 1.113281,1.25390629 0.480469,0 0.902344,-0.2109375 1.078125,-0.75 z M 37.616327,-1.4990703 c 0.02344,-0.1289063 0.03516,-0.234375 0.117187,-0.3515625 0.105469,-0.1640625 0.246094,-0.234375 0.433594,-0.234375 0.1875,0 0.328125,0.082031 0.433594,0.2109375 0.09375,0.140625 0.105468,0.2460937 0.117187,0.375 z M 39.8341,9.296875e-4 h 0.550781 V -1.1357891 c 0,-0.8320312 0.410157,-0.8671875 0.539063,-0.8671875 0.09375,0 0.363281,0.011719 0.363281,0.5742188 V 9.296875e-4 h 0.550781 V -1.4404766 c 0,-0.3164062 0.01172,-1.03125 -0.773437,-1.03125 -0.457031,0 -0.632813,0.4101563 -0.726563,0.609375 v -0.5625 H 39.8341 Z M 43.941522,-0.88969531 c -0.05859,0.28125 -0.210938,0.45703125 -0.46875,0.45703125 -0.503906,0 -0.503906,-0.65625004 -0.503906,-0.76171874 0,-0.1054688 0.02344,-0.2929688 0.07031,-0.4570313 0.04687,-0.1289062 0.152344,-0.375 0.457031,-0.375 0.234375,0 0.410157,0.1289063 0.445313,0.4570313 l 0.480469,-0.070312 c -0.03516,-0.1875 -0.152344,-0.8320313 -0.949219,-0.8320313 -0.714844,0 -1.078125,0.5976563 -1.078125,1.2539063 0,0.55078124 0.257812,1.26562499 1.03125,1.26562499 0.785156,0 0.949219,-0.66796875 0.996094,-0.890625 z m 2.765625,-1.53515629 h -0.445313 l -0.503906,1.60546879 -0.585937,-1.60546879 h -0.574219 l 0.832031,2.27343754 c 0.01172,0.0351562 0.04687,0.140625 0.04687,0.1523437475 0,0.0585937525 -0.08203,0.2929687525 -0.152344,0.3515625025 -0.105468,0.0820313 -0.234375,0.0820313 -0.539062,0.0703125 v 0.43359375 c 0.175781,0.0117188 0.28125,0.0234375 0.316406,0.0234375 0.222656,0 0.492188,-0.0585938 0.65625,-0.5390625 z m 0,0"
         style="fill:#00205c;fill-opacity:1;fill-rule:nonzero;stroke:none"
         aria-label="and Research Agency"
         transform="matrix(1.3333333,0,0,1.3333333,648.38787,223.25267)" />
    </g>
    <g
       id="g33">
      <path
         id="path34"
         d="M 12.503555,-14.461766 H 10.429336 V -4.2547344 C 9.9254297,-5.2039531 9.5855859,-5.8367656 9.5387109,-5.9422344 L 4.4644922,-14.461766 H 1.5816797 V -8.28125e-4 H 3.6676172 V -10.840672 c 0.1289062,0.257813 0.6445312,1.3710939 0.796875,1.6054689 l 5.6601558,9.234374975 h 2.378907 z M 18.055313,-8.28125e-4 V -14.461766 H 15.45375 V -8.28125e-4 Z M 19.523086,-3.4930156 c 0.222656,0.6679687 0.480469,1.5585937 1.453125,2.34375 1.195312,0.94921873 2.71875,1.37109373 4.453125,1.37109373 3.292969,0 5.742187,-1.67578123 5.742187,-4.53515623 0,-3.1054688 -2.519531,-3.796875 -3.75,-4.125 l -2.449218,-0.5976563 c -0.738282,-0.1992187 -2.015625,-0.609375 -2.015625,-1.7343746 0,-0.738282 0.492187,-1.804688 2.484375,-1.804688 2.0625,0 2.496093,1.148438 2.671875,1.652344 l 2.472656,-0.632813 c -0.128906,-0.480468 -0.351563,-1.171875 -1.21875,-1.863281 -1.125,-0.890625 -2.53125,-1.253906 -3.960938,-1.253906 -2.90625,0 -5.121093,1.582031 -5.121093,4.3125 0,1.8398436 1.019531,3.3164061 3.128906,3.8554686 l 3.222656,0.8203125 c 0.65625,0.1757813 1.78125,0.5273438 1.78125,1.8867188 0,0.65625 -0.480469,1.9101562 -2.882812,1.9101562 -0.480469,0 -1.089844,-0.046875 -1.804688,-0.28125 -1.300781,-0.4101562 -1.558594,-1.3476562 -1.6875,-1.8632812 z m 24.93457,3.492187475 -2.53125,-6.374999975 c 0.738281,-0.328125 2.601563,-1.125 2.601563,-3.8320309 0,-1.476563 -0.5625,-2.449219 -1.300782,-3.128907 -0.890625,-0.773437 -1.980468,-1.125 -3.773437,-1.125 H 33.184219 V -8.28125e-4 h 2.601562 V -5.9422344 h 3.667969 l 2.25,5.941406275 z M 35.785781,-12.375828 h 3.46875 c 1.839844,0 2.554688,1.03125 2.554688,2.121094 0,1.7929684 -1.488282,2.2265621 -2.765625,2.2265621 h -3.257813 z m 17.598633,-2.085938 h -3.1875 L 45.392227,-8.28125e-4 h 2.226562 l 1.125,-3.445312475 h 5.554688 l 1.171875,3.445312475 h 2.777343 z m -3.984375,8.9296879 2.097656,-6.4570309 2.109375,6.4570309 z m 0,0"
         style="fill:#00205c;fill-opacity:1;fill-rule:nonzero;stroke:none"
         aria-label="NISRA"
         transform="matrix(1.3333333,0,0,1.3333333,646.52,209.10267)" />
    </g>
  </g>
</svg>
